<?xml version="1.0" encoding="utf-8"?>
<!-- Generator: Adobe Illustrator 16.0.0, SVG Export Plug-In . SVG Version: 6.00 Build 0)  -->
<!DOCTYPE svg PUBLIC "-//W3C//DTD SVG 1.1//EN" "http://www.w3.org/Graphics/SVG/1.1/DTD/svg11.dtd">
<svg version="1.1" xmlns="http://www.w3.org/2000/svg" xmlns:xlink="http://www.w3.org/1999/xlink" x="0px" y="0px"
	 width="3839.477px" height="177.524px" viewBox="0 0 3839.477 177.524" enable-background="new 0 0 3839.477 177.524"
	 xml:space="preserve">
<g id="Layer_1">
</g>
<g id="Layer_2">
	<g>
		<defs>
			<rect id="SVGID_1_" x="0" y="-0.162" width="4022" height="177.866"/>
		</defs>
		<clipPath id="SVGID_2_">
			<use xlink:href="#SVGID_1_"  overflow="visible"/>
		</clipPath>
		<g clip-path="url(#SVGID_2_)">
			<g>
				<defs>
					<rect id="SVGID_3_" x="1279.825" y="-61.16" width="1279.826" height="320.821"/>
				</defs>
				<clipPath id="SVGID_4_">
					<use xlink:href="#SVGID_3_"  overflow="visible"/>
				</clipPath>
				<g clip-path="url(#SVGID_4_)">
					<g>
						<polyline fill="none" stroke="#FFFFFF" stroke-width="0.7959" stroke-miterlimit="10" points="1930.468,130.15 
							1786.149,195.997 1538.615,11.554 1425.397,128.508 1534.799,114.845 1930.468,130.15 1797.616,24.949 1534.799,114.845 
													"/>
						
							<polygon fill="none" stroke="#FFFFFF" stroke-width="0.7959" stroke-linecap="round" stroke-linejoin="round" stroke-miterlimit="10" points="
							1381.587,247.172 1425.397,128.508 1389.419,41.021 						"/>
						<polygon fill="none" stroke="#FFFFFF" stroke-width="0.7959" stroke-miterlimit="10" points="1533.445,128.775 
							1667.337,35.27 1576.246,224.379 						"/>
						
							<polygon fill="none" stroke="#FFFFFF" stroke-width="0.7959" stroke-linecap="round" stroke-linejoin="round" stroke-miterlimit="10" points="
							1236.544,114.169 1389.419,41.021 1267.233,245.497 						"/>
					</g>
					<polygon fill="none" stroke="#FFFFFF" stroke-width="0.7959" stroke-miterlimit="10" points="1425.397,128.508 
						1250.397,173.454 1247.055,35.27 1275.345,-1.96 					"/>
					<polyline fill="none" stroke="#FFFFFF" stroke-width="0.7959" stroke-miterlimit="10" points="1667.337,35.27 1734.104,166.79 
						1797.616,24.949 					"/>
					<g>
						<polyline fill="none" stroke="#FFFFFF" stroke-width="0.7959" stroke-miterlimit="10" points="2582.62,106.48 2452.932,80.16 
							2314.073,219.711 2233.76,133.534 2320.501,138.907 2582.62,106.48 2573.074,206.317 2320.501,138.907 						"/>
						<polygon fill="none" stroke="#FFFFFF" stroke-width="0.7959" stroke-miterlimit="10" points="2163.917,53.375 
							2233.76,133.534 2164.781,204.191 						"/>
						<polygon fill="none" stroke="#FFFFFF" stroke-width="0.7959" stroke-miterlimit="10" points="2319.053,138.924 
							2442.698,209.943 2307.432,75.16 						"/>
						<polygon fill="none" stroke="#FFFFFF" stroke-width="0.7959" stroke-miterlimit="10" points="1981.159,163.529 
							2328.635,234.395 2262.991,76.636 						"/>
					</g>
					<polygon fill="none" stroke="#FFFFFF" stroke-width="0.7959" stroke-miterlimit="10" points="2038.432,167.661 
						1947.311,64.083 1993.932,231.5 2021.324,267.547 					"/>
					<polyline fill="none" stroke="#FFFFFF" stroke-width="1.1496" stroke-miterlimit="10" points="2442.698,209.943 
						2581.79,107.881 2573.074,206.317 					"/>
					<polygon fill="none" stroke="#FFFFFF" stroke-width="0.7959" stroke-miterlimit="10" points="1761.06,180.901 
						1959.251,158.208 1947.311,64.083 					"/>
				</g>
			</g>
		</g>
		<g clip-path="url(#SVGID_2_)">
			<g>
				<defs>
					<rect id="SVGID_5_" x="0" y="-60.773" width="1279.825" height="320.82"/>
				</defs>
				<clipPath id="SVGID_6_">
					<use xlink:href="#SVGID_5_"  overflow="visible"/>
				</clipPath>
				<g clip-path="url(#SVGID_6_)">
					<g>
						<polyline fill="none" stroke="#FFFFFF" stroke-width="0.7959" stroke-miterlimit="10" points="629.184,130.538 
							773.501,196.383 1021.036,11.94 1134.254,128.895 1024.853,115.231 629.184,130.538 762.035,25.336 1024.853,115.231 						
							"/>
						
							<path fill="none" stroke="#FFFFFF" stroke-width="0.7959" stroke-linecap="round" stroke-linejoin="round" stroke-miterlimit="10" d="
							M1177.641,236.383l-7.409-194.975l-35.979,87.487l39.463,106.888C1175.026,235.963,1176.334,236.165,1177.641,236.383z"/>
						<polygon fill="none" stroke="#FFFFFF" stroke-width="0.7959" stroke-miterlimit="10" points="1026.206,129.162 
							892.315,35.656 983.405,224.766 						"/>
						
							<polygon fill="none" stroke="#FFFFFF" stroke-width="0.7959" stroke-linecap="round" stroke-linejoin="round" stroke-miterlimit="10" points="
							1323.108,114.556 1170.232,41.408 1292.417,245.883 						"/>
					</g>
					<polygon fill="none" stroke="#FFFFFF" stroke-width="0.7959" stroke-miterlimit="10" points="1134.254,128.895 
						1309.254,173.84 1312.596,35.656 1284.306,-1.573 					"/>
					<polyline fill="none" stroke="#FFFFFF" stroke-width="0.7959" stroke-miterlimit="10" points="892.315,35.656 825.548,167.176 
						762.035,25.336 					"/>
					<g>
						<polyline fill="none" stroke="#FFFFFF" stroke-width="0.7959" stroke-miterlimit="10" points="-22.969,106.867 
							106.719,80.547 245.578,220.099 325.891,133.92 239.149,139.293 -22.969,106.867 -13.423,206.704 239.149,139.293 						"/>
						<polygon fill="none" stroke="#FFFFFF" stroke-width="0.7959" stroke-miterlimit="10" points="395.734,53.762 325.891,133.92 
							394.87,204.579 						"/>
						<polygon fill="none" stroke="#FFFFFF" stroke-width="0.7959" stroke-miterlimit="10" points="240.598,139.311 
							116.953,210.331 252.219,75.547 						"/>
						<polygon fill="none" stroke="#FFFFFF" stroke-width="0.7959" stroke-miterlimit="10" points="578.492,163.917 
							231.016,234.781 296.66,77.022 						"/>
					</g>
					<polygon fill="none" stroke="#FFFFFF" stroke-width="0.7959" stroke-miterlimit="10" points="521.219,168.047 612.341,64.47 
						565.719,231.887 538.327,267.934 					"/>
					<polyline fill="none" stroke="#FFFFFF" stroke-width="1.1496" stroke-miterlimit="10" points="116.953,210.331 
						-22.139,108.268 -13.423,206.704 					"/>
					<polygon fill="none" stroke="#FFFFFF" stroke-width="0.7959" stroke-miterlimit="10" points="798.592,181.288 600.4,158.595 
						612.341,64.47 					"/>
				</g>
			</g>
		</g>
		<g clip-path="url(#SVGID_2_)">
			<g>
				<defs>
					<rect id="SVGID_7_" x="2559.651" y="-60.901" width="1279.824" height="320.819"/>
				</defs>
				<clipPath id="SVGID_8_">
					<use xlink:href="#SVGID_7_"  overflow="visible"/>
				</clipPath>
				<g clip-path="url(#SVGID_8_)">
					<g>
						<polyline fill="none" stroke="#FFFFFF" stroke-width="0.7959" stroke-miterlimit="10" points="3188.835,130.409 
							3333.153,196.256 3580.686,11.812 3693.903,128.767 3584.503,115.104 3188.835,130.409 3321.686,25.208 3584.503,115.104 
													"/>
						
							<polygon fill="none" stroke="#FFFFFF" stroke-width="0.7959" stroke-linecap="round" stroke-linejoin="round" stroke-miterlimit="10" points="
							3737.716,247.432 3693.903,128.767 3729.884,41.28 						"/>
						<polygon fill="none" stroke="#FFFFFF" stroke-width="0.7959" stroke-miterlimit="10" points="3585.856,129.034 
							3451.966,35.528 3543.055,224.638 						"/>
						
							<polygon fill="none" stroke="#FFFFFF" stroke-width="0.7959" stroke-linecap="round" stroke-linejoin="round" stroke-miterlimit="10" points="
							3882.759,114.428 3729.884,41.28 3852.067,245.756 						"/>
					</g>
					<polygon fill="none" stroke="#FFFFFF" stroke-width="0.7959" stroke-miterlimit="10" points="3693.903,128.767 
						3868.903,173.711 3872.247,35.528 3843.956,-1.701 					"/>
					<polyline fill="none" stroke="#FFFFFF" stroke-width="0.7959" stroke-miterlimit="10" points="3451.966,35.528 
						3385.198,167.047 3321.686,25.208 					"/>
					<g>
						<polyline fill="none" stroke="#FFFFFF" stroke-width="0.7959" stroke-miterlimit="10" points="2536.682,106.739 
							2666.37,80.419 2805.229,219.971 2885.542,133.793 2798.801,139.167 2536.682,106.739 2546.228,206.577 2798.801,139.167 
													"/>
						<polygon fill="none" stroke="#FFFFFF" stroke-width="0.7959" stroke-miterlimit="10" points="2955.385,53.634 
							2885.542,133.793 2954.521,204.45 						"/>
						<polygon fill="none" stroke="#FFFFFF" stroke-width="0.7959" stroke-miterlimit="10" points="2800.249,139.183 
							2676.604,210.202 2811.87,75.419 						"/>
						<polygon fill="none" stroke="#FFFFFF" stroke-width="0.7959" stroke-miterlimit="10" points="3138.143,163.788 
							2790.667,234.653 2856.311,76.895 						"/>
					</g>
					<polygon fill="none" stroke="#FFFFFF" stroke-width="0.7959" stroke-miterlimit="10" points="3080.87,167.918 3171.991,64.342 
						3125.37,231.758 3097.978,267.806 					"/>
					<polyline fill="none" stroke="#FFFFFF" stroke-width="1.1496" stroke-miterlimit="10" points="2676.604,210.202 
						2537.512,108.14 2546.228,206.577 					"/>
					<polygon fill="none" stroke="#FFFFFF" stroke-width="0.7959" stroke-miterlimit="10" points="3358.243,181.161 
						3160.052,158.467 3171.991,64.342 					"/>
				</g>
			</g>
		</g>
	</g>
</g>
</svg>
