<?xml version="1.0" encoding="utf-8"?>
<!-- Generator: Adobe Illustrator 21.0.0, SVG Export Plug-In . SVG Version: 6.00 Build 0)  -->
<svg version="1.1" id="Layer_1" xmlns="http://www.w3.org/2000/svg" xmlns:xlink="http://www.w3.org/1999/xlink" x="0px" y="0px"
	 viewBox="0 0 512 64" style="enable-background:new 0 0 512 64;" xml:space="preserve">
<style type="text/css">
	.st0{display:none;fill:#3AD1CA;}
	.st1{fill:none;stroke:#FFFFFF;stroke-miterlimit:10;}
	.st2{fill:#FFFFFF;}
	.st3{fill:none;stroke:#FFFFFF;stroke-miterlimit:10;stroke-dasharray:5.4145,3.6097;}
</style>
<rect class="st0" width="512" height="64"/>
<g>
	<line class="st1" x1="235.4" y1="32.2" x2="196.9" y2="32.2"/>
	<g>
		<g>
			<line class="st1" x1="383.9" y1="28" x2="347.2" y2="28"/>
			<g>
				<polygon class="st2" points="380.5,23.9 379.9,24.6 383.5,28 379.9,31.4 380.5,32.1 384.9,28 				"/>
			</g>
		</g>
	</g>
	<g>
		<circle class="st1" cx="180.9" cy="32" r="16.1"/>
		<g>
			<g>
				<path class="st2" d="M176.5,33.9c-0.3,0.5-0.6,0.8-1,1c-0.4,0.2-0.7,0.3-1.1,0.3c-0.5,0-0.9-0.2-1.2-0.6c-0.4-0.4-0.5-1-0.5-1.8
					c0-0.6,0.1-1.2,0.4-1.7s0.6-0.9,1-1.2c0.4-0.3,0.9-0.4,1.5-0.4c0.2,0,0.4,0,0.8,0.1c0.1,0,0.1,0,0.2,0h0.9v3.9
					c0,0.7,0.1,1.2,0.2,1.6h-0.9C176.6,34.8,176.6,34.4,176.5,33.9z M176.5,32.8v-2.3c-0.3-0.1-0.6-0.1-0.9-0.1
					c-0.6,0-1,0.2-1.4,0.6c-0.4,0.4-0.6,1-0.6,1.8c0,0.5,0.1,0.9,0.3,1.2s0.4,0.4,0.7,0.4c0.3,0,0.6-0.1,0.9-0.4
					C175.9,33.6,176.2,33.3,176.5,32.8z"/>
				<path class="st2" d="M180,30.9c0.3-0.5,0.6-0.8,1-1c0.4-0.2,0.7-0.3,1.1-0.3c0.5,0,0.9,0.2,1.2,0.6s0.5,1,0.5,1.8
					c0,0.6-0.1,1.2-0.4,1.7c-0.2,0.5-0.6,0.9-1,1.2c-0.4,0.3-0.9,0.4-1.5,0.4c-0.2,0-0.4,0-0.8-0.1c-0.1,0-0.1,0-0.2,0v2.1h-0.9
					v-7.6h0.9L180,30.9L180,30.9z M180,31.9v2.3c0.3,0.1,0.6,0.1,0.9,0.1c0.6,0,1-0.2,1.4-0.6c0.4-0.4,0.6-1,0.6-1.8
					c0-0.5-0.1-1-0.3-1.2s-0.4-0.4-0.7-0.4c-0.3,0-0.6,0.1-0.9,0.4C180.5,31.1,180.2,31.4,180,31.9z"/>
				<path class="st2" d="M186.9,35.1v-4.7h-1.5v-0.8h2.4v4.7h1.5v0.8H186.9z M186.7,27.7c0-0.2,0.1-0.4,0.2-0.5s0.3-0.2,0.4-0.2
					c0.1,0,0.3,0,0.4,0.2c0.1,0.1,0.2,0.3,0.2,0.5c0,0.2-0.1,0.4-0.2,0.5s-0.3,0.2-0.4,0.2c-0.1,0-0.3,0-0.4-0.2
					S186.7,27.9,186.7,27.7z"/>
			</g>
		</g>
	</g>
	<g>
		<rect x="235.4" y="22.1" class="st1" width="111.8" height="19.8"/>
		<g>
			<g>
				<path class="st2" d="M270.7,35v-1c0.4,0.2,0.8,0.4,1.2,0.5c0.4,0.1,0.8,0.1,1,0.1c0.5,0,0.8-0.1,1-0.2c0.2-0.1,0.3-0.3,0.3-0.6
					c0-0.1,0-0.3-0.1-0.4s-0.3-0.2-0.7-0.4l-0.3-0.1l-0.6-0.2c-0.7-0.3-1.1-0.5-1.3-0.7c-0.2-0.2-0.3-0.5-0.3-0.8
					c0-0.4,0.2-0.8,0.5-1.1c0.3-0.3,0.9-0.4,1.7-0.4c0.6,0,1.1,0.1,1.7,0.3v0.8c-0.6-0.2-1.2-0.3-1.7-0.3c-0.4,0-0.7,0.1-0.9,0.2
					c-0.2,0.1-0.3,0.3-0.3,0.5c0,0.2,0.1,0.4,0.3,0.5c0.2,0.1,0.5,0.3,0.9,0.4l0.6,0.2c0.6,0.2,1,0.4,1.2,0.7
					c0.2,0.2,0.3,0.5,0.3,0.9c0,0.5-0.2,0.9-0.5,1.2c-0.4,0.3-0.9,0.5-1.7,0.5C272.2,35.5,271.5,35.3,270.7,35z"/>
				<path class="st2" d="M281.4,35c-0.7,0.3-1.4,0.5-2.1,0.5c-0.5,0-0.9-0.1-1.3-0.4c-0.4-0.2-0.7-0.6-0.9-1
					c-0.2-0.5-0.4-0.9-0.4-1.5c0-0.5,0.1-1,0.3-1.4c0.2-0.5,0.5-0.8,0.9-1.1c0.4-0.3,0.8-0.4,1.3-0.4c0.6,0,1.2,0.2,1.6,0.7
					s0.6,1.2,0.6,2.1v0.2h-3.8c0,0.4,0.1,0.7,0.2,1c0.2,0.3,0.4,0.5,0.6,0.7c0.3,0.2,0.5,0.2,0.9,0.2c0.6,0,1.2-0.2,1.9-0.6
					L281.4,35L281.4,35z M277.8,32.1h2.7v-0.1c0-0.4-0.1-0.8-0.3-1.1c-0.2-0.3-0.5-0.4-0.9-0.4c-0.4,0-0.7,0.1-1,0.4
					C278.1,31.1,277.9,31.5,277.8,32.1z"/>
				<path class="st2" d="M283.5,35.3v-5.5h0.9v1.2c0.3-0.4,0.6-0.8,1-1c0.4-0.2,0.8-0.3,1.2-0.3c0.3,0,0.7,0,1,0.2v2h-0.9v-1.2
					c-0.2,0-0.3,0-0.4,0c-0.3,0-0.7,0.1-1,0.4c-0.3,0.3-0.6,0.7-1,1.2v3.2C284.4,35.3,283.5,35.3,283.5,35.3z"/>
				<path class="st2" d="M291.1,35.3l-2.4-5.5h1l1.9,4.3l1.9-4.3h0.9l-2.4,5.5H291.1z"/>
				<path class="st2" d="M297,35.3v-4.7h-1.5v-0.8h2.4v4.7h1.5v0.8H297z M296.9,27.9c0-0.2,0.1-0.4,0.2-0.5c0.1-0.1,0.3-0.2,0.4-0.2
					c0.1,0,0.3,0,0.4,0.2c0.1,0.1,0.2,0.3,0.2,0.5c0,0.2-0.1,0.4-0.2,0.5c-0.1,0.1-0.3,0.2-0.4,0.2c-0.1,0-0.3,0-0.4-0.2
					C296.9,28.3,296.9,28.1,296.9,27.9z"/>
				<path class="st2" d="M306.3,35.2c-0.6,0.2-1.2,0.3-1.7,0.3c-0.5,0-1-0.1-1.5-0.4c-0.4-0.3-0.8-0.6-1-1c-0.2-0.4-0.4-0.9-0.4-1.5
					c0-0.8,0.3-1.5,0.8-2.1c0.5-0.5,1.2-0.8,1.9-0.8c0.6,0,1.2,0.1,1.8,0.3v0.9c-0.6-0.3-1.2-0.4-1.7-0.4c-0.3,0-0.6,0.1-0.9,0.2
					s-0.5,0.4-0.7,0.8c-0.2,0.3-0.2,0.7-0.2,1.1c0,0.5,0.2,1,0.5,1.4c0.3,0.4,0.8,0.7,1.4,0.7c0.2,0,0.4,0,0.6,0
					c0.2,0,0.5-0.1,1.1-0.3L306.3,35.2L306.3,35.2z"/>
				<path class="st2" d="M312.4,35c-0.7,0.3-1.4,0.5-2.1,0.5c-0.5,0-0.9-0.1-1.3-0.4c-0.4-0.2-0.7-0.6-0.9-1
					c-0.2-0.5-0.4-0.9-0.4-1.5c0-0.5,0.1-1,0.3-1.4c0.2-0.5,0.5-0.8,0.9-1.1c0.4-0.3,0.8-0.4,1.3-0.4c0.6,0,1.2,0.2,1.6,0.7
					c0.4,0.5,0.6,1.2,0.6,2.1v0.2h-3.8c0,0.4,0.1,0.7,0.2,1c0.2,0.3,0.4,0.5,0.6,0.7c0.3,0.2,0.5,0.2,0.9,0.2c0.6,0,1.2-0.2,1.9-0.6
					L312.4,35L312.4,35z M308.8,32.1h2.7v-0.1c0-0.4-0.1-0.8-0.3-1.1c-0.2-0.3-0.5-0.4-0.9-0.4c-0.4,0-0.7,0.1-1,0.4
					C309.1,31.1,308.9,31.5,308.8,32.1z"/>
			</g>
		</g>
	</g>
	<g>
		<path class="st1" d="M447.7,15.9c-4.5,0-8.6,1.9-11.5,4.9c-2.9-3-7-4.9-11.5-4.9c-4.5,0-8.6,1.9-11.5,4.9c-2.9-3-7-4.9-11.5-4.9
			c-8.9,0-16.1,7.2-16.1,16.1s7.2,16.1,16.1,16.1c4.5,0,8.6-1.9,11.5-4.9c2.9,3,7,4.9,11.5,4.9c4.5,0,8.6-1.9,11.5-4.9
			c2.9,3,7,4.9,11.5,4.9c8.9,0,16.1-7.2,16.1-16.1S456.6,15.9,447.7,15.9z"/>
		<g>
			<g>
				<path class="st2" d="M405.2,34.8c-0.7,0.3-1.4,0.5-2.1,0.5c-0.5,0-0.9-0.1-1.3-0.4c-0.4-0.2-0.7-0.6-0.9-1
					c-0.2-0.5-0.4-0.9-0.4-1.5c0-0.5,0.1-1,0.3-1.4c0.2-0.5,0.5-0.8,0.9-1.1c0.4-0.3,0.8-0.4,1.3-0.4c0.6,0,1.2,0.2,1.6,0.7
					c0.4,0.5,0.6,1.2,0.6,2.1v0.2h-3.8c0,0.4,0.1,0.7,0.2,1c0.2,0.3,0.4,0.5,0.6,0.7c0.3,0.2,0.5,0.2,0.9,0.2c0.6,0,1.2-0.2,1.9-0.6
					L405.2,34.8L405.2,34.8z M401.6,31.9h2.7v-0.1c0-0.4-0.1-0.8-0.3-1.1c-0.2-0.3-0.5-0.4-0.9-0.4c-0.4,0-0.7,0.1-1,0.4
					C401.9,31,401.7,31.4,401.6,31.9z"/>
				<path class="st2" d="M406.9,35.2v-5.5h0.9v1.2c0.3-0.4,0.6-0.7,0.9-1c0.4-0.2,0.7-0.4,1.1-0.4c0.3,0,0.6,0.1,0.9,0.3
					c0.3,0.2,0.4,0.4,0.6,0.7c0.1,0.3,0.2,0.8,0.2,1.6v3h-0.9V32c0-0.5,0-0.9-0.1-1s-0.1-0.3-0.3-0.4c-0.1-0.1-0.3-0.2-0.4-0.2
					c-0.3,0-0.7,0.2-1,0.5c-0.4,0.3-0.7,0.7-0.9,1.1v3.2L406.9,35.2L406.9,35.2L406.9,35.2z"/>
				<path class="st2" d="M416.7,33.9c-0.3,0.5-0.6,0.8-1,1c-0.4,0.2-0.7,0.3-1.1,0.3c-0.5,0-0.9-0.2-1.2-0.6c-0.4-0.4-0.5-1-0.5-1.8
					c0-0.6,0.1-1.2,0.4-1.7c0.2-0.5,0.6-0.9,1-1.2c0.4-0.3,0.9-0.4,1.5-0.4c0.2,0,0.4,0,0.8,0.1c0.1,0,0.1,0,0.2,0v-2.4h0.9v7.9
					h-0.9L416.7,33.9L416.7,33.9z M416.7,32.9v-2.3c-0.3-0.1-0.6-0.1-0.9-0.1c-0.6,0-1,0.2-1.4,0.6c-0.4,0.4-0.6,1-0.6,1.8
					c0,0.5,0.1,0.9,0.3,1.2c0.2,0.3,0.4,0.4,0.7,0.4c0.3,0,0.6-0.1,0.9-0.4C416.2,33.7,416.5,33.4,416.7,32.9z"/>
				<path class="st2" d="M420.1,30.9c0.3-0.5,0.6-0.8,1-1c0.4-0.2,0.7-0.3,1.1-0.3c0.5,0,0.9,0.2,1.2,0.6c0.4,0.4,0.5,1,0.5,1.8
					c0,0.6-0.1,1.2-0.4,1.7c-0.2,0.5-0.6,0.9-1,1.2c-0.4,0.3-0.9,0.4-1.5,0.4c-0.2,0-0.4,0-0.8-0.1c-0.1,0-0.1,0-0.2,0v2.1h-0.9
					v-7.6h0.9V30.9L420.1,30.9z M420.1,32v2.3c0.3,0.1,0.6,0.1,0.9,0.1c0.5,0,1-0.2,1.4-0.6c0.4-0.4,0.6-1,0.6-1.8
					c0-0.5-0.1-1-0.3-1.2s-0.4-0.4-0.7-0.4c-0.3,0-0.6,0.1-0.9,0.4C420.7,31.2,420.4,31.5,420.1,32z"/>
				<path class="st2" d="M427.7,35.3c-0.8,0-1.4-0.3-1.9-0.8c-0.5-0.5-0.7-1.2-0.7-2.1s0.2-1.5,0.7-2.1c0.5-0.5,1.1-0.8,1.9-0.8
					c0.8,0,1.4,0.3,1.9,0.8c0.5,0.5,0.7,1.2,0.7,2.1c0,0.8-0.2,1.5-0.7,2.1C429.1,35.1,428.5,35.3,427.7,35.3z M427.7,34.6
					c0.5,0,0.9-0.2,1.2-0.6c0.3-0.4,0.4-0.9,0.4-1.6c0-0.7-0.1-1.2-0.4-1.6c-0.3-0.4-0.7-0.6-1.2-0.6c-0.5,0-0.9,0.2-1.2,0.6
					c-0.3,0.4-0.4,0.9-0.4,1.6c0,0.7,0.1,1.2,0.4,1.6C426.9,34.4,427.2,34.6,427.7,34.6z"/>
				<path class="st2" d="M433.2,35.2v-4.7h-1.5v-0.8h2.4v4.7h1.5v0.8H433.2z M433.1,27.8c0-0.2,0.1-0.4,0.2-0.5
					c0.1-0.1,0.3-0.2,0.4-0.2c0.1,0,0.3,0,0.4,0.2c0.1,0.1,0.2,0.3,0.2,0.5c0,0.2-0.1,0.4-0.2,0.5c-0.1,0.1-0.3,0.2-0.4,0.2
					c-0.1,0-0.3,0-0.4-0.2C433.1,28.1,433.1,28,433.1,27.8z"/>
				<path class="st2" d="M437.9,35.2v-5.5h0.9v1.2c0.3-0.4,0.6-0.7,0.9-1c0.4-0.2,0.7-0.4,1.1-0.4c0.3,0,0.6,0.1,0.9,0.3
					c0.3,0.2,0.4,0.4,0.6,0.7c0.1,0.3,0.2,0.8,0.2,1.6v3h-0.9V32c0-0.5,0-0.9-0.1-1c0-0.2-0.1-0.3-0.3-0.4s-0.3-0.2-0.4-0.2
					c-0.3,0-0.7,0.2-1,0.5c-0.4,0.3-0.7,0.7-0.9,1.1v3.2L437.9,35.2L437.9,35.2L437.9,35.2z"/>
				<path class="st2" d="M448.7,35c-0.4,0.2-0.7,0.3-0.9,0.3c-0.2,0-0.4,0.1-0.6,0.1c-0.4,0-0.7-0.1-1-0.2c-0.3-0.1-0.6-0.4-0.7-0.7
					c-0.2-0.3-0.2-0.7-0.2-1.3v-2.2h-1.4v-0.8h1.4V28h0.9v2.2h2.4v0.8h-2.4v2.2c0,0.4,0.1,0.7,0.2,0.9c0.1,0.2,0.2,0.3,0.4,0.4
					c0.2,0.1,0.4,0.1,0.6,0.1c0.4,0,0.9-0.1,1.4-0.4L448.7,35L448.7,35z"/>
			</g>
		</g>
	</g>
	<g>
		<path class="st1" d="M110.3,15.9c-4.5,0-8.6,1.9-11.5,4.9c-2.9-3-7-4.9-11.5-4.9s-8.6,1.9-11.5,4.9c-2.9-3-7-4.9-11.5-4.9
			c-8.9,0-16.1,7.2-16.1,16.1s7.2,16.1,16.1,16.1c4.5,0,8.6-1.9,11.5-4.9c2.9,3,7,4.9,11.5,4.9s8.6-1.9,11.5-4.9
			c2.9,3,7,4.9,11.5,4.9c8.9,0,16.1-7.2,16.1-16.1S119.2,15.9,110.3,15.9z"/>
		<g>
			<g>
				<path class="st2" d="M74,35c-0.6,0.2-1.2,0.3-1.7,0.3c-0.5,0-1-0.1-1.5-0.4c-0.4-0.3-0.8-0.6-1-1c-0.2-0.4-0.4-0.9-0.4-1.5
					c0-0.8,0.3-1.5,0.8-2.1c0.5-0.5,1.2-0.8,1.9-0.8c0.6,0,1.2,0.1,1.8,0.3v0.9c-0.6-0.3-1.2-0.4-1.7-0.4c-0.3,0-0.6,0.1-0.9,0.2
					s-0.5,0.4-0.7,0.8c-0.2,0.3-0.2,0.7-0.2,1.1c0,0.5,0.2,1,0.5,1.4c0.3,0.4,0.8,0.7,1.4,0.7c0.2,0,0.4,0,0.6,0
					c0.2,0,0.5-0.1,1.1-0.3C74,34.1,74,35,74,35z"/>
				<path class="st2" d="M79.2,34c-0.3,0.5-0.6,0.8-1,1c-0.4,0.2-0.7,0.3-1.1,0.3c-0.5,0-0.9-0.2-1.2-0.6c-0.4-0.4-0.5-1-0.5-1.8
					c0-0.6,0.1-1.2,0.4-1.7s0.6-0.9,1-1.2c0.4-0.3,0.9-0.4,1.5-0.4c0.2,0,0.4,0,0.8,0.1c0.1,0,0.1,0,0.2,0h0.9v3.9
					c0,0.7,0.1,1.2,0.2,1.6h-0.9C79.3,34.9,79.3,34.5,79.2,34z M79.2,32.9v-2.3c-0.3-0.1-0.6-0.1-0.9-0.1c-0.6,0-1,0.2-1.4,0.6
					c-0.4,0.4-0.6,1-0.6,1.8c0,0.5,0.1,0.9,0.3,1.2c0.2,0.3,0.4,0.4,0.7,0.4c0.3,0,0.6-0.1,0.9-0.4C78.6,33.7,78.9,33.4,79.2,32.9z"
					/>
				<path class="st2" d="M83.3,35.2v-7.1h-1.6v-0.8h2.5v7.1h1.7v0.8H83.3z"/>
				<path class="st2" d="M89.5,35.2v-7.1h-1.6v-0.8h2.5v7.1h1.7v0.8H89.5z"/>
				<path class="st2" d="M98.8,34.8c-0.7,0.3-1.4,0.5-2.1,0.5c-0.5,0-0.9-0.1-1.3-0.4c-0.4-0.2-0.7-0.6-0.9-1
					c-0.2-0.5-0.3-0.9-0.3-1.5c0-0.5,0.1-1,0.3-1.4c0.2-0.5,0.5-0.8,0.9-1.1c0.4-0.3,0.8-0.4,1.3-0.4c0.6,0,1.2,0.2,1.6,0.7
					c0.4,0.5,0.6,1.2,0.6,2.1v0.2h-3.8c0,0.4,0.1,0.7,0.2,1c0.2,0.3,0.4,0.5,0.6,0.7s0.6,0.2,0.9,0.2c0.6,0,1.2-0.2,1.9-0.6
					L98.8,34.8L98.8,34.8z M95.1,31.9h2.7v-0.1c0-0.4-0.1-0.8-0.3-1.1s-0.5-0.4-0.9-0.4c-0.4,0-0.7,0.1-1,0.4
					C95.4,31,95.2,31.4,95.1,31.9z"/>
				<path class="st2" d="M100.9,35.2v-5.5h0.9v1.2c0.3-0.4,0.6-0.8,1-1c0.4-0.2,0.8-0.3,1.2-0.3c0.3,0,0.7,0,1,0.2v2h-0.9v-1.2
					c-0.2,0-0.3,0-0.4,0c-0.3,0-0.7,0.1-1,0.4c-0.3,0.3-0.6,0.7-1,1.2v3.2L100.9,35.2L100.9,35.2z"/>
			</g>
		</g>
	</g>
	<g>
		<g>
			<line class="st1" x1="163.2" y1="32.2" x2="126.6" y2="32.2"/>
			<g>
				<polygon class="st2" points="159.9,28.1 159.2,28.8 162.9,32.2 159.2,35.5 159.9,36.2 164.3,32.2 				"/>
			</g>
		</g>
	</g>
	<g>
		<g>
			<line class="st1" x1="348.6" y1="35.3" x2="351.6" y2="35.3"/>
			<line class="st3" x1="355.2" y1="35.3" x2="380.5" y2="35.3"/>
			<line class="st1" x1="382.3" y1="35.3" x2="385.3" y2="35.3"/>
			<g>
				<polygon class="st2" points="351.9,39.4 352.6,38.7 349,35.3 352.6,32 351.9,31.2 347.5,35.3 				"/>
			</g>
		</g>
	</g>
</g>
</svg>
