<?xml version="1.0" encoding="utf-8"?>
<!-- Generator: Adobe Illustrator 21.0.0, SVG Export Plug-In . SVG Version: 6.00 Build 0)  -->
<svg version="1.1" id="Layer_1" xmlns="http://www.w3.org/2000/svg" xmlns:xlink="http://www.w3.org/1999/xlink" x="0px" y="0px"
	 viewBox="0 0 512 64" style="enable-background:new 0 0 512 64;" xml:space="preserve">
<style type="text/css">
	.st0{display:none;fill:#3AD1CA;}
	.st1{fill:none;stroke:#FFFFFF;stroke-miterlimit:10;}
	.st2{fill:#FFFFFF;}
</style>
<title>data-service</title>
<rect class="st0" width="512" height="64"/>
<line class="st1" x1="253.4" y1="32" x2="214.9" y2="32"/>
<line class="st1" x1="410.4" y1="32.5" x2="365.1" y2="32"/>
<polygon class="st2" points="407.1,28.4 406.5,29.1 410,32.5 406.4,35.8 407.1,36.5 411.5,32.5 "/>
<circle class="st1" cx="198.9" cy="31.9" r="16.1"/>
<path class="st2" d="M194.5,33.7c-0.2,0.4-0.6,0.8-1,1c-0.3,0.2-0.7,0.3-1.1,0.3c-0.5,0-0.9-0.2-1.2-0.6c-0.4-0.5-0.6-1.1-0.5-1.8
	c0-0.6,0.1-1.1,0.4-1.7c0.2-0.5,0.6-0.9,1-1.2c0.4-0.3,1-0.4,1.5-0.4c0.2,0,0.4,0,0.8,0h0.2h0.9v3.8c0,0.5,0.1,1.1,0.2,1.6h-0.9
	C194.6,34.5,194.5,34.1,194.5,33.7z M194.5,32.6v-2.3c-0.3-0.1-0.6-0.1-0.9-0.1c-0.5,0-1.1,0.2-1.4,0.6c-0.4,0.5-0.6,1.1-0.6,1.8
	c0,0.4,0.1,0.9,0.3,1.2c0.2,0.2,0.4,0.4,0.7,0.4c0.4,0,0.7-0.2,0.9-0.4C193.9,33.5,194.2,33.1,194.5,32.6z"/>
<path class="st2" d="M197.9,30.7c0.2-0.4,0.6-0.8,1-1c0.3-0.2,0.7-0.3,1.1-0.4c0.5,0,0.9,0.2,1.2,0.6c0.4,0.5,0.6,1.1,0.6,1.8
	c0,0.6-0.1,1.2-0.4,1.7c-0.2,0.5-0.6,0.9-1,1.2c-0.4,0.3-1,0.4-1.5,0.4c-0.2,0-0.4,0-0.8,0h-0.2v2H197v-7.5h0.9L197.9,30.7z
	 M197.9,31.8v2.3c0.3,0.1,0.6,0.1,0.9,0.1c0.5,0,1-0.2,1.4-0.7c0.4-0.5,0.6-1.1,0.6-1.8c0-0.4-0.1-0.9-0.3-1.2
	c-0.2-0.2-0.4-0.4-0.7-0.4c-0.4,0-0.7,0.2-0.9,0.4C198.5,30.9,198.2,31.3,197.9,31.8z"/>
<path class="st2" d="M204.8,34.9v-4.7h-1.5v-0.8h2.4v4.7h1.5v0.8L204.8,34.9z M204.7,27.5c0-0.2,0.1-0.4,0.2-0.5
	c0.2-0.2,0.6-0.2,0.8,0c0.1,0.1,0.2,0.3,0.2,0.5c0,0.2-0.1,0.3-0.2,0.5c-0.2,0.2-0.6,0.2-0.8,0C204.7,27.9,204.7,27.7,204.7,27.5
	L204.7,27.5z"/>
<rect x="253.4" y="22" class="st1" width="111.8" height="19.8"/>
<path class="st2" d="M288.7,34.9v-1c0.4,0.2,0.7,0.4,1.2,0.5c0.3,0.1,0.7,0.1,1,0.1c0.3,0,0.7,0,1-0.2c0.2-0.1,0.3-0.3,0.3-0.5
	c0-0.1,0-0.3-0.1-0.4c-0.2-0.2-0.4-0.3-0.7-0.4l-0.3-0.1l-0.6-0.2c-0.5-0.1-0.9-0.4-1.3-0.7c-0.2-0.2-0.3-0.5-0.3-0.8
	c0-0.4,0.2-0.8,0.5-1.1c0.5-0.3,1.1-0.5,1.7-0.4c0.6,0,1.1,0.1,1.7,0.2v0.8c-0.5-0.2-1.1-0.3-1.7-0.3c-0.3,0-0.6,0.1-0.9,0.2
	c-0.2,0.1-0.3,0.3-0.3,0.5c0,0.2,0.1,0.4,0.3,0.5c0.3,0.2,0.6,0.3,0.9,0.4l0.6,0.2c0.4,0.1,0.8,0.4,1.2,0.7c0.2,0.2,0.4,0.6,0.3,0.9
	c0,0.5-0.2,0.9-0.5,1.2c-0.5,0.3-1.1,0.5-1.7,0.5C290.1,35.3,289.4,35.2,288.7,34.9z"/>
<path class="st2" d="M299.4,34.8c-0.6,0.3-1.3,0.5-2.1,0.5c-0.5,0-0.9-0.1-1.3-0.3c-0.4-0.2-0.7-0.6-0.9-1c-0.2-0.5-0.4-1-0.4-1.5
	c0-0.5,0.1-1,0.3-1.4c0.2-0.5,0.5-0.8,1-1.1c0.4-0.3,0.9-0.4,1.3-0.4c0.6,0,1.2,0.2,1.6,0.7c0.4,0.6,0.7,1.4,0.6,2.1v0.2h-3.8
	c0,0.3,0.1,0.7,0.2,1c0.1,0.3,0.4,0.5,0.6,0.7c0.3,0.2,0.6,0.2,0.9,0.2c0.7,0,1.4-0.2,1.9-0.6V34.8z M295.8,31.9h2.7v-0.1
	c0-0.4-0.1-0.8-0.3-1.1c-0.2-0.3-0.5-0.4-0.9-0.4c-0.4,0-0.7,0.1-1,0.4C296,31.1,295.8,31.5,295.8,31.9z"/>
<path class="st2" d="M301.5,35.2v-5.5h0.9v1.2c0.2-0.4,0.6-0.8,1-1c0.4-0.2,0.8-0.3,1.2-0.3c0.3,0,0.7,0,1,0.1v2h-0.9v-1.3h-0.4
	c-0.4,0-0.7,0.2-1,0.4c-0.4,0.3-0.7,0.7-1,1.2v3.2L301.5,35.2z"/>
<path class="st2" d="M309,35.2l-2.4-5.5h1l1.9,4.3l1.9-4.3h0.9l-2.4,5.5L309,35.2z"/>
<path class="st2" d="M315,35.2v-4.7h-1.5v-0.8h2.4v4.7h1.5v0.8L315,35.2z M314.9,27.8c0-0.2,0.1-0.4,0.2-0.5c0.2-0.2,0.6-0.2,0.8,0
	c0.1,0.1,0.2,0.3,0.2,0.5c0,0.2-0.1,0.3-0.2,0.5c-0.2,0.2-0.6,0.2-0.8,0C314.9,28.1,314.8,27.9,314.9,27.8L314.9,27.8z"/>
<path class="st2" d="M324.2,35c-0.6,0.2-1.1,0.3-1.7,0.3c-0.5,0-1-0.1-1.5-0.4c-0.4-0.2-0.8-0.6-1-1c-0.2-0.5-0.4-1-0.4-1.5
	c0-0.8,0.3-1.5,0.8-2.1c0.5-0.5,1.2-0.8,2-0.8c0.6,0,1.2,0.1,1.8,0.3v0.9c-0.5-0.3-1.1-0.4-1.7-0.4c-0.3,0-0.7,0.1-0.9,0.2
	c-0.3,0.2-0.5,0.4-0.7,0.8c-0.2,0.3-0.2,0.7-0.2,1.1c0,0.5,0.2,1,0.5,1.4c0.3,0.5,0.9,0.7,1.5,0.7c0.2,0,0.4,0,0.6,0
	c0.4-0.1,0.7-0.2,1.1-0.3L324.2,35z"/>
<path class="st2" d="M330.4,34.8c-0.6,0.3-1.3,0.5-2.1,0.5c-0.5,0-0.9-0.1-1.3-0.3c-0.4-0.2-0.7-0.6-0.9-1c-0.2-0.5-0.4-1-0.4-1.5
	c0-0.5,0.1-1,0.3-1.4c0.2-0.5,0.5-0.8,1-1.1c0.4-0.3,0.9-0.4,1.3-0.4c0.6,0,1.2,0.2,1.6,0.7c0.4,0.6,0.7,1.4,0.6,2.1v0.2h-3.8
	c0,0.3,0.1,0.7,0.2,1c0.1,0.3,0.4,0.5,0.6,0.7c0.3,0.2,0.6,0.2,0.9,0.2c0.7,0,1.4-0.2,1.9-0.6V34.8z M326.8,31.9h2.7v-0.1
	c0-0.4-0.1-0.8-0.3-1.1c-0.2-0.3-0.5-0.4-0.9-0.4c-0.4,0-0.7,0.1-1,0.4C327,31.1,326.8,31.5,326.8,31.9z"/>
<path class="st1" d="M128.2,15.8c-4.3,0-8.5,1.8-11.5,4.9c-6.1-6.4-16.3-6.5-22.6-0.4c-0.1,0.1-0.3,0.2-0.4,0.4
	c-6.2-6.4-16.3-6.5-22.7-0.3S64.5,36.7,70.7,43s16.3,6.5,22.7,0.3c0.1-0.1,0.2-0.2,0.3-0.3c6.1,6.4,16.3,6.5,22.6,0.4
	c0.1-0.1,0.3-0.2,0.4-0.4c6.2,6.3,16.3,6.4,22.6,0.2s6.4-16.3,0.2-22.6C136.6,17.5,132.5,15.8,128.2,15.8z"/>
<path class="st2" d="M92,34.9c-0.6,0.2-1.1,0.3-1.7,0.3c-0.5,0-1-0.1-1.5-0.4c-0.4-0.2-0.8-0.6-1-1c-0.2-0.5-0.4-1-0.4-1.5
	c0-0.8,0.3-1.5,0.8-2.1c0.5-0.5,1.2-0.8,2-0.8c0.6,0,1.2,0.1,1.8,0.3v0.9c-0.5-0.3-1.1-0.4-1.7-0.4c-0.3,0-0.7,0.1-0.9,0.2
	c-0.3,0.2-0.5,0.4-0.7,0.8c-0.2,0.3-0.2,0.7-0.2,1.1c0,0.5,0.2,1,0.5,1.4c0.3,0.5,0.9,0.7,1.4,0.7c0.2,0,0.4,0,0.6,0
	c0.3-0.1,0.7-0.2,1-0.4V34.9z"/>
<path class="st2" d="M97.2,33.8c-0.2,0.4-0.6,0.8-1,1c-0.3,0.2-0.7,0.3-1.1,0.3c-0.5,0-0.9-0.2-1.2-0.6c-0.4-0.5-0.6-1.1-0.5-1.8
	c0-0.6,0.1-1.2,0.4-1.7c0.2-0.5,0.6-0.9,1-1.2c0.4-0.3,1-0.4,1.5-0.4c0.2,0,0.4,0,0.8,0h0.2h0.9v3.9c0,0.5,0,1.1,0.2,1.6h-0.9
	C97.3,34.6,97.2,34.2,97.2,33.8z M97.2,32.7v-2.3c-0.3-0.1-0.6-0.1-0.9-0.1c-0.5,0-1.1,0.2-1.4,0.6c-0.4,0.5-0.6,1.1-0.6,1.8
	c0,0.4,0.1,0.9,0.3,1.2c0.2,0.2,0.4,0.4,0.7,0.4c0.4,0,0.7-0.2,0.9-0.4C96.6,33.5,96.9,33.2,97.2,32.7L97.2,32.7z"/>
<path class="st2" d="M101.3,35v-7.1h-1.6v-0.8h2.5v7.1h1.7V35H101.3z"/>
<path class="st2" d="M107.5,35v-7.1h-1.6v-0.8h2.5v7.1h1.7V35H107.5z"/>
<path class="st2" d="M116.7,34.7c-0.6,0.3-1.3,0.5-2.1,0.5c-0.5,0-0.9-0.1-1.3-0.4c-0.4-0.2-0.7-0.6-0.9-1c-0.2-0.5-0.4-1-0.3-1.5
	c0-0.5,0.1-1,0.3-1.4c0.2-0.4,0.5-0.8,0.9-1.1c0.4-0.3,0.9-0.4,1.3-0.4c0.6,0,1.2,0.2,1.6,0.7c0.4,0.6,0.7,1.4,0.6,2.1v0.2H113
	c0,0.3,0.1,0.7,0.2,1c0.1,0.3,0.3,0.5,0.6,0.7c0.3,0.2,0.6,0.2,0.9,0.2c0.7,0,1.4-0.2,1.9-0.6L116.7,34.7z M113.1,31.8h2.7v-0.1
	c0-0.4-0.1-0.8-0.3-1.1c-0.2-0.3-0.5-0.4-0.9-0.4c-0.4,0-0.7,0.1-1,0.4C113.3,30.9,113.2,31.3,113.1,31.8z"/>
<path class="st2" d="M118.9,35v-5.4h0.9v1.2c0.2-0.4,0.6-0.8,1-1c0.4-0.2,0.8-0.3,1.2-0.3c0.3,0,0.7,0,1,0.1v2h-0.9v-1.3h-0.4
	c-0.4,0-0.7,0.2-1,0.4c-0.4,0.3-0.7,0.7-1,1.2V35H118.9z"/>
<line class="st1" x1="181.2" y1="32" x2="144.5" y2="32"/>
<polygon class="st2" points="177.9,27.9 177.2,28.6 180.8,32 177.2,35.4 177.9,36.1 182.3,32 "/>
<ellipse class="st1" cx="427.7" cy="23.1" rx="16" ry="5.9"/>
<path class="st1" d="M411.7,23.1v19.6l0,0c0.1,3.2,7.2,5.9,16,5.9s15.8-2.6,15.9-5.9l0,0V23.1"/>
</svg>
