<?xml version="1.0" encoding="utf-8"?>
<!-- Generator: Adobe Illustrator 21.0.0, SVG Export Plug-In . SVG Version: 6.00 Build 0)  -->
<svg version="1.1" id="Layer_1" xmlns="http://www.w3.org/2000/svg" xmlns:xlink="http://www.w3.org/1999/xlink" x="0px" y="0px"
	 viewBox="0 0 512 64" style="enable-background:new 0 0 512 64;" xml:space="preserve">
<style type="text/css">
	.st0{display:none;fill:#3AD1CA;}
	.st1{fill:none;stroke:#FFFFFF;stroke-miterlimit:10;}
	.st2{fill:#FFFFFF;}
</style>
<title>talking-to-endpoints</title>
<rect class="st0" width="512" height="64"/>
<line class="st1" x1="238.4" y1="32" x2="199.9" y2="32"/>
<line class="st1" x1="386.8" y1="32" x2="350.1" y2="32"/>
<polygon class="st2" points="383.5,27.9 382.8,28.6 386.4,32 382.8,35.4 383.5,36.1 387.9,32 "/>
<circle class="st1" cx="183.9" cy="31.9" r="16.1"/>
<path class="st2" d="M179.5,33.7c-0.2,0.4-0.6,0.8-1,1c-0.3,0.2-0.7,0.3-1.1,0.3c-0.5,0-0.9-0.2-1.2-0.6c-0.4-0.5-0.6-1.1-0.5-1.8
	c0-0.6,0.1-1.1,0.4-1.7c0.2-0.5,0.6-0.9,1-1.2c0.4-0.3,1-0.4,1.5-0.4c0.2,0,0.4,0,0.8,0h0.2h0.9v3.8c0,0.5,0.1,1.1,0.2,1.6h-0.9
	C179.6,34.5,179.5,34.1,179.5,33.7z M179.5,32.6v-2.3c-0.3-0.1-0.6-0.1-0.9-0.1c-0.5,0-1.1,0.2-1.4,0.6c-0.4,0.5-0.6,1.1-0.6,1.8
	c0,0.4,0.1,0.9,0.3,1.2c0.2,0.2,0.4,0.4,0.7,0.4c0.4,0,0.7-0.2,0.9-0.4C178.9,33.5,179.2,33.1,179.5,32.6z"/>
<path class="st2" d="M182.9,30.7c0.2-0.4,0.6-0.8,1-1c0.3-0.2,0.7-0.3,1.1-0.4c0.5,0,0.9,0.2,1.2,0.6c0.4,0.5,0.6,1.1,0.6,1.8
	c0,0.6-0.1,1.2-0.4,1.7c-0.2,0.5-0.6,0.9-1,1.2c-0.4,0.3-1,0.4-1.5,0.4c-0.2,0-0.4,0-0.8,0h-0.2v2H182v-7.5h0.9L182.9,30.7z
	 M182.9,31.8v2.3c0.3,0.1,0.6,0.1,0.9,0.1c0.5,0,1-0.2,1.4-0.7c0.4-0.5,0.6-1.1,0.6-1.8c0-0.4-0.1-0.9-0.3-1.2
	c-0.2-0.2-0.4-0.4-0.7-0.4c-0.4,0-0.7,0.2-0.9,0.4C183.5,30.9,183.2,31.3,182.9,31.8z"/>
<path class="st2" d="M189.8,34.9v-4.7h-1.5v-0.8h2.4v4.7h1.5v0.8L189.8,34.9z M189.7,27.5c0-0.2,0.1-0.4,0.2-0.5
	c0.2-0.2,0.6-0.2,0.8,0c0.1,0.1,0.2,0.3,0.2,0.5c0,0.2-0.1,0.3-0.2,0.5c-0.2,0.2-0.6,0.2-0.8,0C189.7,27.9,189.7,27.7,189.7,27.5
	L189.7,27.5z"/>
<rect x="238.4" y="22" class="st1" width="111.8" height="19.8"/>
<path class="st2" d="M273.7,34.9v-1c0.4,0.2,0.7,0.4,1.2,0.5c0.3,0.1,0.7,0.1,1,0.1c0.3,0,0.7,0,1-0.2c0.2-0.1,0.3-0.3,0.3-0.5
	c0-0.1,0-0.3-0.1-0.4c-0.2-0.2-0.4-0.3-0.7-0.4l-0.3-0.1l-0.6-0.2c-0.5-0.1-0.9-0.4-1.3-0.7c-0.2-0.2-0.3-0.5-0.3-0.8
	c0-0.4,0.2-0.8,0.5-1.1c0.5-0.3,1.1-0.5,1.7-0.4c0.6,0,1.1,0.1,1.7,0.2v0.8c-0.5-0.2-1.1-0.3-1.7-0.3c-0.3,0-0.6,0.1-0.9,0.2
	c-0.2,0.1-0.3,0.3-0.3,0.5c0,0.2,0.1,0.4,0.3,0.5c0.3,0.2,0.6,0.3,0.9,0.4l0.6,0.2c0.4,0.1,0.8,0.4,1.2,0.7c0.2,0.2,0.4,0.6,0.3,0.9
	c0,0.5-0.2,0.9-0.5,1.2c-0.5,0.3-1.1,0.5-1.7,0.5C275.1,35.3,274.4,35.2,273.7,34.9z"/>
<path class="st2" d="M284.4,34.8c-0.6,0.3-1.3,0.5-2.1,0.5c-0.5,0-0.9-0.1-1.3-0.3c-0.4-0.2-0.7-0.6-0.9-1c-0.2-0.5-0.4-1-0.4-1.5
	c0-0.5,0.1-1,0.3-1.4c0.2-0.5,0.5-0.8,1-1.1c0.4-0.3,0.9-0.4,1.3-0.4c0.6,0,1.2,0.2,1.6,0.7c0.4,0.6,0.7,1.4,0.6,2.1v0.2h-3.8
	c0,0.3,0.1,0.7,0.2,1c0.1,0.3,0.4,0.5,0.6,0.7c0.3,0.2,0.6,0.2,0.9,0.2c0.7,0,1.4-0.2,1.9-0.6V34.8z M280.8,31.9h2.7v-0.1
	c0-0.4-0.1-0.8-0.3-1.1c-0.2-0.3-0.5-0.4-0.9-0.4c-0.4,0-0.7,0.1-1,0.4C281,31.1,280.8,31.5,280.8,31.9z"/>
<path class="st2" d="M286.5,35.2v-5.5h0.9v1.2c0.2-0.4,0.6-0.8,1-1c0.4-0.2,0.8-0.3,1.2-0.3c0.3,0,0.7,0,1,0.1v2h-0.9v-1.3h-0.4
	c-0.4,0-0.7,0.2-1,0.4c-0.4,0.3-0.7,0.7-1,1.2v3.2L286.5,35.2z"/>
<path class="st2" d="M294,35.2l-2.4-5.5h1l1.9,4.3l1.9-4.3h0.9l-2.4,5.5L294,35.2z"/>
<path class="st2" d="M300,35.2v-4.7h-1.5v-0.8h2.4v4.7h1.5v0.8L300,35.2z M299.9,27.8c0-0.2,0.1-0.4,0.2-0.5c0.2-0.2,0.6-0.2,0.8,0
	c0.1,0.1,0.2,0.3,0.2,0.5c0,0.2-0.1,0.3-0.2,0.5c-0.2,0.2-0.6,0.2-0.8,0C299.9,28.1,299.8,27.9,299.9,27.8L299.9,27.8z"/>
<path class="st2" d="M309.2,35c-0.6,0.2-1.1,0.3-1.7,0.3c-0.5,0-1-0.1-1.5-0.4c-0.4-0.2-0.8-0.6-1-1c-0.2-0.5-0.4-1-0.4-1.5
	c0-0.8,0.3-1.5,0.8-2.1c0.5-0.5,1.2-0.8,2-0.8c0.6,0,1.2,0.1,1.8,0.3v0.9c-0.5-0.3-1.1-0.4-1.7-0.4c-0.3,0-0.7,0.1-0.9,0.2
	c-0.3,0.2-0.5,0.4-0.7,0.8c-0.2,0.3-0.2,0.7-0.2,1.1c0,0.5,0.2,1,0.5,1.4c0.3,0.5,0.9,0.7,1.5,0.7c0.2,0,0.4,0,0.6,0
	c0.4-0.1,0.7-0.2,1.1-0.3L309.2,35z"/>
<path class="st2" d="M315.4,34.8c-0.6,0.3-1.3,0.5-2.1,0.5c-0.5,0-0.9-0.1-1.3-0.3c-0.4-0.2-0.7-0.6-0.9-1c-0.2-0.5-0.4-1-0.4-1.5
	c0-0.5,0.1-1,0.3-1.4c0.2-0.5,0.5-0.8,1-1.1c0.4-0.3,0.9-0.4,1.3-0.4c0.6,0,1.2,0.2,1.6,0.7c0.4,0.6,0.7,1.4,0.6,2.1v0.2h-3.8
	c0,0.3,0.1,0.7,0.2,1c0.1,0.3,0.4,0.5,0.6,0.7c0.3,0.2,0.6,0.2,0.9,0.2c0.7,0,1.4-0.2,1.9-0.6V34.8z M311.8,31.9h2.7v-0.1
	c0-0.4-0.1-0.8-0.3-1.1c-0.2-0.3-0.5-0.4-0.9-0.4c-0.4,0-0.7,0.1-1,0.4C312,31.1,311.8,31.5,311.8,31.9z"/>
<path class="st1" d="M450.7,15.8c-4.3,0-8.5,1.8-11.5,4.9c-6.1-6.4-16.3-6.5-22.6-0.4c-0.1,0.1-0.3,0.2-0.4,0.4
	c-6.2-6.4-16.3-6.5-22.7-0.3c-6.4,6.2-6.5,16.3-0.3,22.7s16.3,6.5,22.7,0.3c0.1-0.1,0.2-0.2,0.3-0.3c6.1,6.4,16.3,6.5,22.6,0.4
	c0.1-0.1,0.3-0.2,0.4-0.4c6.2,6.3,16.3,6.4,22.6,0.2s6.4-16.3,0.2-22.6C459,17.5,455,15.8,450.7,15.8z"/>
<path class="st2" d="M404.3,34.7c-0.6,0.3-1.3,0.5-2.1,0.5c-0.5,0-0.9-0.1-1.3-0.4c-0.4-0.2-0.7-0.6-0.9-1c-0.2-0.5-0.4-1-0.4-1.5
	c0-0.5,0.1-1,0.3-1.4c0.2-0.4,0.5-0.8,0.9-1.1c0.4-0.3,0.9-0.4,1.3-0.4c0.6,0,1.2,0.2,1.6,0.7c0.4,0.6,0.7,1.4,0.6,2.1v0.2h-3.8
	c0,0.3,0.1,0.7,0.2,1c0.1,0.3,0.3,0.5,0.6,0.7c0.3,0.2,0.6,0.2,0.9,0.2c0.7,0,1.4-0.2,1.9-0.6L404.3,34.7z M400.7,31.8h2.7v-0.1
	c0-0.4-0.1-0.8-0.3-1.1c-0.2-0.3-0.5-0.4-0.9-0.4c-0.4,0-0.7,0.1-1,0.4C400.9,30.9,400.7,31.3,400.7,31.8z"/>
<path class="st2" d="M406,35v-5.4h0.9v1.2c0.2-0.4,0.6-0.7,0.9-1c0.3-0.2,0.7-0.4,1.1-0.4c0.3,0,0.6,0.1,0.9,0.3
	c0.3,0.2,0.4,0.4,0.5,0.7c0.1,0.5,0.2,1.1,0.2,1.6v3h-0.9v-3.1c0-0.3,0-0.7-0.1-1c0-0.2-0.1-0.3-0.3-0.4c-0.1-0.1-0.3-0.2-0.4-0.2
	c-0.4,0-0.7,0.2-1,0.5c-0.4,0.3-0.7,0.7-0.9,1.1V35H406z"/>
<path class="st2" d="M415.8,33.8c-0.2,0.4-0.6,0.8-1,1c-0.3,0.2-0.7,0.3-1.1,0.3c-0.5,0-0.9-0.2-1.2-0.6c-0.4-0.5-0.6-1.1-0.5-1.8
	c0-0.6,0.1-1.2,0.4-1.7c0.2-0.5,0.6-0.9,1-1.2c0.4-0.3,1-0.4,1.5-0.4c0.2,0,0.4,0,0.8,0h0.2v-2.4h0.9V35h-0.9L415.8,33.8z
	 M415.8,32.7v-2.3c-0.3-0.1-0.6-0.1-0.9-0.1c-0.5,0-1.1,0.2-1.4,0.6c-0.4,0.5-0.6,1.1-0.6,1.8c0,0.4,0.1,0.9,0.3,1.2
	c0.2,0.2,0.4,0.4,0.7,0.4c0.4,0,0.7-0.2,0.9-0.4C415.3,33.5,415.6,33.2,415.8,32.7z"/>
<path class="st2" d="M419.2,30.8c0.2-0.4,0.6-0.8,1-1c0.3-0.2,0.7-0.3,1.1-0.4c0.5,0,0.9,0.2,1.2,0.6c0.4,0.5,0.6,1.1,0.5,1.8
	c0,0.6-0.1,1.2-0.4,1.7c-0.2,0.5-0.6,0.9-1,1.2c-0.4,0.3-1,0.4-1.5,0.4c-0.2,0-0.4,0-0.8,0h-0.2v2.1h-0.9v-7.6h0.9L419.2,30.8z
	 M419.2,31.9v2.3c0.3,0.1,0.6,0.1,0.9,0.1c0.5,0,1-0.2,1.4-0.7c0.4-0.5,0.6-1.1,0.6-1.8c0-0.4-0.1-0.9-0.3-1.2
	c-0.2-0.2-0.4-0.4-0.7-0.4c-0.4,0-0.7,0.2-0.9,0.4C419.8,31,419.5,31.4,419.2,31.9L419.2,31.9z"/>
<path class="st2" d="M426.8,35.2c-0.7,0-1.4-0.3-1.9-0.8c-0.9-1.2-0.9-2.9,0-4.1c1-1,2.6-1.1,3.6-0.1c0,0,0.1,0.1,0.1,0.1
	c0.9,1.2,0.9,2.9,0,4.1C428.2,34.9,427.5,35.2,426.8,35.2z M426.8,34.4c0.5,0,0.9-0.2,1.2-0.6c0.6-1,0.6-2.2,0-3.1
	c-0.5-0.6-1.4-0.8-2.1-0.3c-0.1,0.1-0.2,0.2-0.3,0.3c-0.6,1-0.6,2.2,0,3.1C425.9,34.2,426.4,34.4,426.8,34.4L426.8,34.4z"/>
<path class="st2" d="M432.3,35v-4.7h-1.5v-0.8h2.4v4.7h1.5V35H432.3z M432.2,27.6c0-0.2,0.1-0.4,0.2-0.5c0.2-0.2,0.6-0.2,0.8,0
	c0.1,0.1,0.2,0.3,0.2,0.5c0,0.2-0.1,0.3-0.2,0.5c-0.2,0.2-0.6,0.2-0.8,0C432.2,27.9,432.2,27.8,432.2,27.6L432.2,27.6z"/>
<path class="st2" d="M437,35v-5.4h0.9v1.2c0.2-0.4,0.6-0.7,0.9-1c0.3-0.2,0.7-0.4,1.1-0.4c0.3,0,0.6,0.1,0.9,0.3
	c0.3,0.2,0.4,0.4,0.5,0.7c0.1,0.5,0.2,1.1,0.2,1.6v3h-0.9v-3.1c0-0.3,0-0.7-0.1-1c0-0.2-0.1-0.3-0.3-0.4c-0.1-0.1-0.3-0.2-0.4-0.2
	c-0.4,0-0.7,0.2-1,0.5c-0.4,0.3-0.7,0.7-0.9,1.1V35H437z"/>
<path class="st2" d="M447.8,34.8c-0.3,0.1-0.6,0.2-0.9,0.3c-0.2,0-0.4,0-0.6,0c-0.3,0-0.7-0.1-1-0.2c-0.3-0.1-0.6-0.4-0.7-0.7
	c-0.2-0.4-0.3-0.9-0.2-1.3v-2.2h-1.4V30h1.4v-2.2h0.9V30h2.4v0.8h-2.4V33c0,0.3,0,0.6,0.2,0.9c0.1,0.2,0.2,0.3,0.4,0.4
	c0.2,0.1,0.4,0.1,0.6,0.1c0.5,0,1-0.2,1.4-0.4L447.8,34.8z"/>
<path class="st2" d="M449.5,34.7v-1c0.4,0.2,0.7,0.4,1.2,0.5c0.3,0.1,0.7,0.1,1,0.1c0.3,0,0.7,0,1-0.2c0.2-0.1,0.3-0.3,0.3-0.5
	c0-0.1,0-0.3-0.1-0.4c-0.2-0.2-0.4-0.3-0.7-0.4l-0.3-0.1l-0.6-0.2c-0.5-0.1-0.9-0.4-1.3-0.7c-0.2-0.2-0.3-0.5-0.3-0.8
	c0-0.4,0.2-0.8,0.5-1.1c0.5-0.3,1.1-0.5,1.7-0.4c0.6,0,1.1,0.1,1.7,0.2v0.8c-0.5-0.2-1.1-0.3-1.7-0.3c-0.3,0-0.6,0.1-0.9,0.2
	c-0.2,0.1-0.3,0.3-0.3,0.5c0,0.2,0.1,0.4,0.3,0.5c0.3,0.2,0.6,0.3,0.9,0.4l0.6,0.2c0.4,0.1,0.8,0.4,1.2,0.7c0.2,0.2,0.4,0.6,0.3,0.9
	c0,0.4-0.2,0.9-0.5,1.2c-0.5,0.3-1.1,0.5-1.7,0.5C450.9,35.1,450.1,35,449.5,34.7z"/>
<path class="st1" d="M113.2,15.8c-4.3,0-8.5,1.8-11.5,4.9c-6.1-6.4-16.3-6.5-22.6-0.4c-0.1,0.1-0.3,0.2-0.4,0.4
	c-6.2-6.4-16.3-6.5-22.7-0.3S49.5,36.7,55.7,43s16.3,6.5,22.7,0.3c0.1-0.1,0.2-0.2,0.3-0.3c6.1,6.4,16.3,6.5,22.6,0.4
	c0.1-0.1,0.3-0.2,0.4-0.4c6.2,6.3,16.3,6.4,22.6,0.2c6.3-6.2,6.4-16.3,0.2-22.6C121.6,17.5,117.5,15.8,113.2,15.8z"/>
<path class="st2" d="M77,34.9c-0.6,0.2-1.1,0.3-1.7,0.3c-0.5,0-1-0.1-1.5-0.4c-0.4-0.2-0.8-0.6-1-1c-0.2-0.5-0.4-1-0.4-1.5
	c0-0.8,0.3-1.5,0.8-2.1c0.5-0.5,1.2-0.8,2-0.8c0.6,0,1.2,0.1,1.8,0.3v0.9c-0.5-0.3-1.1-0.4-1.7-0.4c-0.3,0-0.7,0.1-0.9,0.2
	c-0.3,0.2-0.5,0.4-0.7,0.8c-0.2,0.3-0.2,0.7-0.2,1.1c0,0.5,0.2,1,0.5,1.4c0.3,0.5,0.9,0.7,1.4,0.7c0.2,0,0.4,0,0.6,0
	c0.3-0.1,0.7-0.2,1-0.4V34.9z"/>
<path class="st2" d="M82.2,33.8c-0.2,0.4-0.6,0.8-1,1c-0.3,0.2-0.7,0.3-1.1,0.3c-0.5,0-0.9-0.2-1.2-0.6c-0.4-0.5-0.6-1.1-0.5-1.8
	c0-0.6,0.1-1.2,0.4-1.7c0.2-0.5,0.6-0.9,1-1.2c0.4-0.3,1-0.4,1.5-0.4c0.2,0,0.4,0,0.8,0h0.2h0.9v3.9c0,0.5,0,1.1,0.2,1.6h-0.9
	C82.3,34.6,82.2,34.2,82.2,33.8z M82.2,32.7v-2.3c-0.3-0.1-0.6-0.1-0.9-0.1c-0.5,0-1.1,0.2-1.4,0.6c-0.4,0.5-0.6,1.1-0.6,1.8
	c0,0.4,0.1,0.9,0.3,1.2c0.2,0.2,0.4,0.4,0.7,0.4c0.4,0,0.7-0.2,0.9-0.4C81.6,33.5,81.9,33.2,82.2,32.7L82.2,32.7z"/>
<path class="st2" d="M86.3,35v-7.1h-1.6v-0.8h2.5v7.1h1.7V35H86.3z"/>
<path class="st2" d="M92.5,35v-7.1h-1.6v-0.8h2.5v7.1h1.7V35H92.5z"/>
<path class="st2" d="M101.7,34.7c-0.6,0.3-1.3,0.5-2.1,0.5c-0.5,0-0.9-0.1-1.3-0.4c-0.4-0.2-0.7-0.6-0.9-1c-0.2-0.5-0.4-1-0.3-1.5
	c0-0.5,0.1-1,0.3-1.4c0.2-0.4,0.5-0.8,0.9-1.1c0.4-0.3,0.9-0.4,1.3-0.4c0.6,0,1.2,0.2,1.6,0.7c0.4,0.6,0.7,1.4,0.6,2.1v0.2H98
	c0,0.3,0.1,0.7,0.2,1c0.1,0.3,0.3,0.5,0.6,0.7c0.3,0.2,0.6,0.2,0.9,0.2c0.7,0,1.4-0.2,1.9-0.6L101.7,34.7z M98.1,31.8h2.7v-0.1
	c0-0.4-0.1-0.8-0.3-1.1c-0.2-0.3-0.5-0.4-0.9-0.4c-0.4,0-0.7,0.1-1,0.4C98.3,30.9,98.2,31.3,98.1,31.8z"/>
<path class="st2" d="M103.9,35v-5.4h0.9v1.2c0.2-0.4,0.6-0.8,1-1c0.4-0.2,0.8-0.3,1.2-0.3c0.3,0,0.7,0,1,0.1v2h-0.9v-1.3h-0.4
	c-0.4,0-0.7,0.2-1,0.4c-0.4,0.3-0.7,0.7-1,1.2V35H103.9z"/>
<line class="st1" x1="166.2" y1="32" x2="129.5" y2="32"/>
<polygon class="st2" points="162.9,27.9 162.2,28.6 165.8,32 162.2,35.4 162.9,36.1 167.3,32 "/>
</svg>
