<svg id="Layer_1" data-name="Layer 1" xmlns="http://www.w3.org/2000/svg" viewBox="0 0 476 285"><defs><style>.cls-1{fill:#e6e9e9;}.cls-2{fill:#999;}.cls-3{fill:#595b5f;}.cls-4,.cls-6{fill:none;stroke-miterlimit:10;}.cls-4{stroke:#585a5e;}.cls-5{fill:#585a5e;}.cls-6{stroke:#595b5f;stroke-width:0.5px;stroke-dasharray:6 6;}</style></defs><title>downloads</title><rect class="cls-1" x="208" y="18.5" width="207" height="44"/><rect class="cls-1" x="208" y="86.5" width="207" height="44"/><rect class="cls-1" x="208" y="155.5" width="208" height="44"/><rect class="cls-1" x="208" y="223.5" width="208" height="44"/><path class="cls-2" d="M399.8,249l-2.85-12.38a2.29,2.29,0,0,0-1.31-1.63l-11.47-5.48a2.34,2.34,0,0,0-2.13,0L370.56,235a2.33,2.33,0,0,0-1.34,1.69q-1.41,6.16-2.83,12.31a2.21,2.21,0,0,0,.46,2l8,9.9a2.32,2.32,0,0,0,1.92.92c2.1,0,4.2,0,6.3,0h6.44a2.26,2.26,0,0,0,1.86-.86l8-9.94A2.22,2.22,0,0,0,399.8,249Zm-5.08.42a2,2,0,0,1-.85-.2,7.68,7.68,0,0,0-1.36-.44.51.51,0,0,0-.36.05c-.05,0-.11.09-.18.06-.26-.11-.27.09-.33.25a9.06,9.06,0,0,1-3.72,4.63c-.13.09-.23.16-.13.33s0,.08,0,.11c-.14.29,0,.52.15.76a9.51,9.51,0,0,0,.65,1,1.45,1.45,0,0,1,.33.78.67.67,0,0,1-.38.66.68.68,0,0,1-.77-.14,1.53,1.53,0,0,1-.38-.71,9.06,9.06,0,0,0-.52-1.43.54.54,0,0,0-.32-.3s-.1,0-.12-.07c-.08-.26-.24-.18-.43-.12a8.94,8.94,0,0,1-5.91,0c-.15-.05-.27-.09-.33.1a.16.16,0,0,1-.11.12c-.25.06-.35.26-.44.46a12,12,0,0,0-.45,1.28,1.72,1.72,0,0,1-.29.62.69.69,0,0,1-.89.21.73.73,0,0,1-.3-.89,2.47,2.47,0,0,1,.35-.62,8.27,8.27,0,0,0,.71-1.18.56.56,0,0,0,0-.46s0-.09,0-.13c.18-.26,0-.34-.2-.46a9,9,0,0,1-3.62-4.56c-.06-.16-.11-.3-.32-.23h0c-.67-.3-1.23.13-1.82.31a3.74,3.74,0,0,1-.77.22.69.69,0,0,1-.79-.78.72.72,0,0,1,.49-.57,2.15,2.15,0,0,1,.75-.13,8,8,0,0,0,1.27-.16.6.6,0,0,0,.43-.26.25.25,0,0,1,.19-.13c.17,0,.17-.12.15-.26a8.89,8.89,0,0,1,1.09-5.51c.05-.09.1-.18.16-.27s.27-.34,0-.5c-.17-.72-.86-.87-1.36-1.23a4.68,4.68,0,0,1-.62-.44.73.73,0,0,1-.12-1,.71.71,0,0,1,1-.16,2.63,2.63,0,0,1,.61.56,7,7,0,0,0,.93.88.54.54,0,0,0,.42.14c.05,0,.12,0,.16,0s.27.07.4-.06a8.89,8.89,0,0,1,5.44-2.58c.13,0,.18-.05.18-.18a.22.22,0,0,1,0-.16.9.9,0,0,0,.19-.77c0-.49-.13-1-.16-1.48a1.12,1.12,0,0,1,.05-.52.71.71,0,0,1,.72-.47.76.76,0,0,1,.61.67,7.6,7.6,0,0,1-.12,1.35c0,.25,0,.49,0,.74a.52.52,0,0,0,.17.45.15.15,0,0,1,.06.1c0,.26.15.27.34.29a9,9,0,0,1,5.34,2.64c.09.09.16.11.26,0a.24.24,0,0,1,.19-.09.84.84,0,0,0,.69-.31,10.19,10.19,0,0,0,.84-.85,2.11,2.11,0,0,1,.52-.45.71.71,0,0,1,.91.15.7.7,0,0,1,0,.9,2,2,0,0,1-.62.47,8,8,0,0,0-1.17.77.51.51,0,0,0-.22.38s0,.11,0,.13c-.28.16-.12.32,0,.5a8.93,8.93,0,0,1,1.28,5.79c0,.12,0,.2.14.22a.21.21,0,0,1,.14.07c.21.33.55.34.88.39s.92.09,1.37.15a.8.8,0,0,1,.74.6A.68.68,0,0,1,394.72,249.4Z"/><path class="cls-2" d="M386.28,247.92l1.83.3,1.6.27c.15,0,.2.05.14.22a7.23,7.23,0,0,1-2.68,3.36c-.12.08-.17.08-.23-.07-.43-1-.86-2.08-1.29-3.12A.63.63,0,0,1,386.28,247.92Z"/><path class="cls-2" d="M382.2,239.18c-.06,1.06-.11,2.12-.18,3.18a.75.75,0,0,1-.37.73A.63.63,0,0,1,381,243l-2.43-1.72c-.12-.08-.23-.17-.35-.24s-.13-.14,0-.24a7.15,7.15,0,0,1,2.45-1.49,8.56,8.56,0,0,1,1.36-.35C382.2,238.9,382.25,239,382.2,239.18Z"/><path class="cls-2" d="M376.94,242.31l2.4,2.15a3.78,3.78,0,0,1,.37.37.58.58,0,0,1-.24,1c-.33.13-.68.21-1,.31-.78.23-1.56.44-2.33.68-.17.05-.2,0-.23-.15A7.11,7.11,0,0,1,376.94,242.31Z"/><path class="cls-2" d="M389.25,242.3a7.32,7.32,0,0,1,1,3,7.07,7.07,0,0,1,0,1.26c0,.16,0,.22-.23.16l-3.18-.92a.65.65,0,0,1-.28-1.2l2.43-2.18Z"/><path class="cls-2" d="M380.79,252.92l1.37-2.47c.12-.22.24-.45.37-.66a.62.62,0,0,1,1.14,0c.4.68.77,1.38,1.16,2.08l.59,1.08A7.24,7.24,0,0,1,380.79,252.92Z"/><path class="cls-2" d="M380.63,248.58a2.83,2.83,0,0,1-.1.35c-.42,1-.84,2-1.25,3-.06.15-.1.19-.26.09a7.3,7.3,0,0,1-2.63-3.27c-.08-.19,0-.24.16-.27l3.26-.55A.65.65,0,0,1,380.63,248.58Z"/><path class="cls-2" d="M384.82,243.13a.57.57,0,0,1-.61-.49c0-.32-.06-.65-.08-1-.05-.85-.1-1.71-.15-2.57,0-.13,0-.2.17-.17a7.32,7.32,0,0,1,3.85,1.85c.11.1.13.15,0,.24L385.25,243A.73.73,0,0,1,384.82,243.13Z"/><path class="cls-2" d="M384.33,245.84c-.08.34-.15.66-.22,1a.25.25,0,0,1-.09.1l-.11.05c-.27.13-.55.36-.81.36a2.62,2.62,0,0,1-.86-.37c-.1,0-.18-.1-.18-.23v0c-.23-.91-.23-.91.37-1.63a.35.35,0,0,1,.3-.15c1,0,1,0,1.53.75C384.29,245.73,384.36,245.78,384.33,245.84Z"/><path class="cls-2" d="M402.48,172.29a7.42,7.42,0,0,0-4.62-.53,6.11,6.11,0,0,0-2.59-4l-.89-.59-.59.89a6.85,6.85,0,0,0-1,4.24,5.36,5.36,0,0,0,.78,2.32,6.34,6.34,0,0,1-3.06.67H363l-.05.32a13.42,13.42,0,0,0,2.83,9.93c2.35,2.78,5.86,4.19,10.45,4.19,10,0,17.31-4.58,20.76-12.9,1.36,0,4.27,0,5.77-2.85,0-.07.13-.24.39-.78l.14-.3Zm-21.66-6.9H385v-3.8h-4.18Zm0,4.55H385v-3.8h-4.18Zm-4.94,0h4.18v-3.8h-4.18Zm-4.94,0h4.18v-3.8h-4.18ZM366,174.5h4.17v-3.8H366Zm4.93,0h4.18v-3.8h-4.18Zm4.94,0h4.18v-3.8h-4.18Zm4.94,0H385v-3.8h-4.18Zm4.93,0h4.18v-3.8h-4.18Z"/><path class="cls-3" d="M225.24,233.55v3.82l3.32-3.82h1.7L227,237.18l3.34,4.35h-1.69l-2.63-3.42-.82.94v2.48h-1.35v-8Z"/><path class="cls-3" d="M237.18,240.81a3.62,3.62,0,0,1-4.67,0,3.3,3.3,0,0,1-.87-2.46v-4.8H233v4.65q0,2.25,1.85,2.25t1.85-2.25v-4.65H238v4.81A3.29,3.29,0,0,1,237.18,240.81Z"/><path class="cls-3" d="M244.66,237.41a1.8,1.8,0,0,1,.94.7,1.92,1.92,0,0,1,.36,1.14,2.07,2.07,0,0,1-.72,1.7,3,3,0,0,1-2,.59h-3.05v-8H243a3.16,3.16,0,0,1,2,.56,1.92,1.92,0,0,1,.71,1.61,2,2,0,0,1-.29,1.08A1.43,1.43,0,0,1,244.66,237.41Zm-3.15-.51H243q1.42,0,1.42-1.1T243,234.72h-1.47Zm0,1.12v2.34h1.72a1.55,1.55,0,0,0,1-.31,1.2,1.2,0,0,0,0-1.72,1.56,1.56,0,0,0-1-.31h-1.72Z"/><path class="cls-3" d="M247.89,233.55h5.21v1.2h-3.89v2.11h3.52V238h-3.52v2.29h3.89v1.21h-5.21Z"/><path class="cls-3" d="M257.4,238.3h-1v3.24h-1.35v-8h3.08a3,3,0,0,1,2,.62,2.53,2.53,0,0,1,.19,3.34,2.54,2.54,0,0,1-1.5.73l2.31,3.29h-1.53Zm-1-3.57v2.44h1.7a1.49,1.49,0,0,0,1-.33,1.26,1.26,0,0,0,0-1.78,1.49,1.49,0,0,0-1-.33h-1.7Z"/><path class="cls-3" d="M269.25,233.55v8h-1l-4.08-5.81v5.81h-1.3v-8h1.27l3.85,5.54v-5.54Z"/><path class="cls-3" d="M271.53,233.55h5.21v1.2h-3.89v2.11h3.52V238h-3.52v2.29h3.89v1.21h-5.21Z"/><path class="cls-3" d="M278.24,234.75v-1.2h6.65v1.2h-2.65v6.79h-1.35v-6.79Z"/><path class="cls-3" d="M286.69,233.55h5.21v1.2H288v2.11h3.52V238H288v2.29h3.89v1.21h-5.21Z"/><path class="cls-3" d="M293.27,239.32h1.38a1.68,1.68,0,0,0,1.81,1.2,1.82,1.82,0,0,0,1.13-.32,1,1,0,0,0,.42-.86.9.9,0,0,0-.27-.68,1.91,1.91,0,0,0-.89-.4l-1.35-.32q-2-.47-2-2.15a2.16,2.16,0,0,1,.76-1.7,2.86,2.86,0,0,1,2-.67,3.26,3.26,0,0,1,2,.59,2.67,2.67,0,0,1,1,1.62H297.9a1.58,1.58,0,0,0-1.66-1.07,1.66,1.66,0,0,0-1,.31,1,1,0,0,0-.4.8q0,.79,1.05,1l1.39.33a3,3,0,0,1,1.52.78,2,2,0,0,1,.55,1.43,2.17,2.17,0,0,1-.79,1.76,3.12,3.12,0,0,1-2.05.66,3.52,3.52,0,0,1-2.12-.62A2.64,2.64,0,0,1,293.27,239.32Z"/><path class="cls-3" d="M226.33,249.15h1.3l3.07,8h-1.38l-.82-2.21h-3.05l-.82,2.21h-1.37Zm.64,1.65-1.09,3h2.18Z"/><path class="cls-3" d="M234.68,253.9h-1v3.24h-1.35v-8h3.08a3,3,0,0,1,2,.62,2.53,2.53,0,0,1,.19,3.34,2.53,2.53,0,0,1-1.5.73l2.31,3.29H236.9Zm-1-3.58v2.44h1.7a1.5,1.5,0,0,0,1-.33,1.26,1.26,0,0,0,0-1.78,1.5,1.5,0,0,0-1-.33h-1.7Z"/><path class="cls-3" d="M239.48,250.35v-1.2h6.66v1.2h-2.65v6.79h-1.35v-6.79Z"/><path class="cls-3" d="M249.28,249.15v8h-1.35v-8Z"/><path class="cls-3" d="M252.92,257.13h-1.35v-8h5.1v1.2h-3.74v2.37h3.5v1.18h-3.5v3.24Z"/><path class="cls-3" d="M260.51,249.15h1.3l3.07,8H263.5l-.82-2.21h-3.06l-.82,2.21h-1.37Zm.64,1.65-1.09,3h2.18Z"/><path class="cls-3" d="M266.82,256.11a4.79,4.79,0,0,1,0-5.94,3.34,3.34,0,0,1,2.59-1.15,3.26,3.26,0,0,1,2.17.71,3.22,3.22,0,0,1,1.08,1.93h-1.33a1.92,1.92,0,0,0-1.92-1.42,2,2,0,0,0-1.65.81,3.87,3.87,0,0,0,0,4.17,2,2,0,0,0,1.65.81,1.92,1.92,0,0,0,1.92-1.43h1.33a3.23,3.23,0,0,1-1.08,1.94,3.27,3.27,0,0,1-2.17.71A3.33,3.33,0,0,1,266.82,256.11Z"/><path class="cls-3" d="M273.74,250.35v-1.2h6.66v1.2h-2.65v6.79H276.4v-6.79Z"/><path class="cls-3" d="M281.51,254.93h1.38a1.68,1.68,0,0,0,1.81,1.2,1.82,1.82,0,0,0,1.12-.32,1,1,0,0,0,.42-.87.9.9,0,0,0-.27-.68,1.9,1.9,0,0,0-.89-.4l-1.35-.33q-2-.47-2-2.15a2.16,2.16,0,0,1,.76-1.7,2.85,2.85,0,0,1,2-.67,3.26,3.26,0,0,1,2,.59,2.67,2.67,0,0,1,1,1.62h-1.35a1.58,1.58,0,0,0-1.66-1.07,1.67,1.67,0,0,0-1,.31,1,1,0,0,0-.4.8q0,.79,1.05,1l1.39.32a3,3,0,0,1,1.52.78,2,2,0,0,1,.55,1.43,2.17,2.17,0,0,1-.79,1.76,3.11,3.11,0,0,1-2.05.66,3.53,3.53,0,0,1-2.13-.62A2.65,2.65,0,0,1,281.51,254.93Z"/><path class="cls-3" d="M223.89,172.64v-8h2.69a3.75,3.75,0,0,1,2.82,1.09,4.53,4.53,0,0,1,0,5.81,3.75,3.75,0,0,1-2.82,1.09Zm1.35-1.21h1.29a2.44,2.44,0,0,0,1.9-.74,2.93,2.93,0,0,0,.67-2,3,3,0,0,0-.67-2,2.43,2.43,0,0,0-1.9-.75h-1.29Z"/><path class="cls-3" d="M238.22,165.69a4.73,4.73,0,0,1,0,5.92,3.6,3.6,0,0,1-5.3,0,4.75,4.75,0,0,1,0-5.92,3.6,3.6,0,0,1,5.3,0Zm-1,5.05a3.72,3.72,0,0,0,0-4.19,2.14,2.14,0,0,0-3.36,0,3.78,3.78,0,0,0,0,4.2,2.14,2.14,0,0,0,3.36,0Z"/><path class="cls-3" d="M241.72,171.62a4.79,4.79,0,0,1,0-5.94,3.34,3.34,0,0,1,2.59-1.15,3.26,3.26,0,0,1,2.17.71,3.22,3.22,0,0,1,1.08,1.93h-1.33a1.92,1.92,0,0,0-1.92-1.42,2,2,0,0,0-1.65.81,3.87,3.87,0,0,0,0,4.17,2,2,0,0,0,1.65.81,1.92,1.92,0,0,0,1.92-1.43h1.33a3.23,3.23,0,0,1-1.08,1.94,3.27,3.27,0,0,1-2.17.71A3.33,3.33,0,0,1,241.72,171.62Z"/><path class="cls-3" d="M250.75,164.66v3.82l3.31-3.82h1.7l-3.22,3.63,3.34,4.35h-1.69l-2.63-3.42-.82.94v2.48H249.4v-8h1.35Z"/><path class="cls-3" d="M257.48,164.66h5.21v1.2h-3.89V168h3.52v1.18h-3.52v2.29h3.89v1.21h-5.21Z"/><path class="cls-3" d="M267,169.4h-1v3.24h-1.35v-8h3.08a3,3,0,0,1,2,.62,2.53,2.53,0,0,1,.19,3.34,2.53,2.53,0,0,1-1.5.73l2.31,3.29h-1.53Zm-1-3.58v2.44h1.7a1.5,1.5,0,0,0,1-.33,1.26,1.26,0,0,0,0-1.78,1.5,1.5,0,0,0-1-.33H266Z"/><path class="cls-3" d="M277.16,164.66v8h-1.35v-8Z"/><path class="cls-3" d="M283.9,172.64h-1l-2.2-5.55v5.55h-1.29v-8H281l2.43,6.14,2.4-6.14h1.51v8H286v-5.55Z"/><path class="cls-3" d="M292.07,164.66h1.3l3.07,8h-1.38l-.82-2.21h-3.05l-.82,2.21H289Zm.64,1.65-1.09,3h2.18Z"/><path class="cls-3" d="M303.54,169.68H301.8v-1.16h3v.62a3.64,3.64,0,0,1-1,2.63,3.23,3.23,0,0,1-2.44,1,3.51,3.51,0,0,1-2.69-1.15,4.68,4.68,0,0,1,0-5.94,3.44,3.44,0,0,1,2.65-1.15,3.33,3.33,0,0,1,2.19.7,3.18,3.18,0,0,1,1.08,1.92h-1.35a2.38,2.38,0,0,0-.71-1,1.9,1.9,0,0,0-1.21-.36,2.06,2.06,0,0,0-1.7.81,3.72,3.72,0,0,0,0,4.19,2.11,2.11,0,0,0,1.74.82,2,2,0,0,0,1.43-.51A2.28,2.28,0,0,0,303.54,169.68Z"/><path class="cls-3" d="M306.69,164.66h5.21v1.2H308V168h3.52v1.18H308v2.29h3.89v1.21h-5.21Z"/><path class="cls-3" d="M227.52,180.26h1.09l1.51,5.88,1.44-5.88h1.3l-2.05,8h-1.25l-1.51-5.71-1.53,5.71h-1.24l-2.05-8h1.33l1.44,5.88Z"/><path class="cls-3" d="M235.84,180.26v8h-1.35v-8Z"/><path class="cls-3" d="M237.63,181.45v-1.2h6.66v1.2h-2.65v6.79h-1.35v-6.79Z"/><path class="cls-3" d="M251.45,180.26h1.35v8h-1.35v-3.5h-4v3.5h-1.35v-8h1.35v3.29h4Z"/><path class="cls-3" d="M262.94,184.12a1.8,1.8,0,0,1,.94.7,1.92,1.92,0,0,1,.36,1.14,2.07,2.07,0,0,1-.72,1.7,3,3,0,0,1-2,.59h-3.05v-8h2.8a3.15,3.15,0,0,1,2,.56,1.92,1.92,0,0,1,.71,1.61,2,2,0,0,1-.29,1.08A1.42,1.42,0,0,1,262.94,184.12Zm-3.15-.51h1.47q1.42,0,1.42-1.1t-1.42-1.08H259.8v2.18Zm0,1.12v2.34h1.72a1.55,1.55,0,0,0,1-.31,1.19,1.19,0,0,0,0-1.71,1.55,1.55,0,0,0-1-.31H259.8Z"/><path class="cls-3" d="M268.61,180.26h1.3l3.07,8H271.6l-.82-2.21h-3.06l-.82,2.21h-1.36Zm.64,1.65-1.09,3h2.18Z"/><path class="cls-3" d="M274.64,188.24v-8H276V187h3.83v1.21Z"/><path class="cls-3" d="M281.73,188.24v-8h1.35V187h3.83v1.21Z"/><path class="cls-3" d="M288.81,180.26H294v1.2h-3.89v2.1h3.52v1.18h-3.52V187H294v1.21h-5.21Z"/><path class="cls-3" d="M298.33,185h-1v3.24H296v-8h3.08a3,3,0,0,1,2,.62,2.53,2.53,0,0,1,.19,3.34,2.52,2.52,0,0,1-1.5.73l2.31,3.29h-1.53Zm-1-3.57v2.44h1.7a1.5,1.5,0,0,0,1-.33,1.26,1.26,0,0,0,0-1.78,1.5,1.5,0,0,0-1-.33h-1.7Z"/><path class="cls-3" d="M305.1,180.26v8h-1.35v-8Z"/><path class="cls-3" d="M313.81,180.26v8h-1l-4.08-5.81v5.81h-1.3v-8h1.27l3.85,5.54v-5.54Z"/><path class="cls-3" d="M318.54,180.26h1.3l3.07,8h-1.38l-.82-2.21h-3.06l-.82,2.21h-1.36Zm.64,1.65-1.09,3h2.18Z"/><path class="cls-3" d="M331.65,188.24h-1.29l-3-8h1.42l2.26,6.23,2.26-6.23h1.38Z"/><path class="cls-3" d="M340.77,188.24h-1l-2.2-5.55v5.55h-1.29v-8h1.55l2.43,6.14,2.4-6.14h1.51v8h-1.3v-5.55Z"/><path class="cls-3" d="M299,44.17a.93.93,0,0,1,0-1.27.89.89,0,0,1,1.26,0,.93.93,0,0,1,0,1.27.89.89,0,0,1-1.26,0Z"/><path class="cls-3" d="M306.78,40.21a1.8,1.8,0,0,1,.94.7,1.92,1.92,0,0,1,.36,1.14,2.07,2.07,0,0,1-.72,1.7,3,3,0,0,1-2,.59h-3.05v-8h2.8a3.16,3.16,0,0,1,2,.56,1.93,1.93,0,0,1,.71,1.61,2,2,0,0,1-.29,1.08A1.43,1.43,0,0,1,306.78,40.21Zm-3.15-.51h1.47q1.42,0,1.42-1.1t-1.42-1.08h-1.47Zm0,1.12v2.34h1.72a1.55,1.55,0,0,0,1-.31,1.19,1.19,0,0,0,0-1.72,1.55,1.55,0,0,0-1-.31Z"/><path class="cls-3" d="M312.45,36.35h1.3l3.07,8h-1.38l-.82-2.21h-3.06l-.82,2.21h-1.36Zm.64,1.65L312,41h2.18Z"/><path class="cls-3" d="M318.48,44.33v-8h1.35v6.77h3.83v1.21Z"/><path class="cls-3" d="M295,112.17a.93.93,0,0,1,0-1.27.89.89,0,0,1,1.26,0,.93.93,0,0,1,0,1.27.89.89,0,0,1-1.26,0Z"/><path class="cls-3" d="M302.8,108.21a1.8,1.8,0,0,1,.94.7,1.92,1.92,0,0,1,.36,1.14,2.07,2.07,0,0,1-.72,1.7,3,3,0,0,1-2,.59h-3.05v-8h2.8a3.16,3.16,0,0,1,2,.56,1.93,1.93,0,0,1,.71,1.61,2,2,0,0,1-.29,1.08A1.43,1.43,0,0,1,302.8,108.21Zm-3.15-.51h1.47q1.42,0,1.42-1.11t-1.42-1.08h-1.47Zm0,1.12v2.34h1.72a1.55,1.55,0,0,0,1-.31,1.19,1.19,0,0,0,0-1.72,1.55,1.55,0,0,0-1-.31Z"/><path class="cls-3" d="M308.46,104.35h1.3l3.07,8h-1.38l-.82-2.21h-3.06l-.82,2.21H305.4Zm.64,1.65L308,109h2.18Z"/><path class="cls-3" d="M314.5,112.33v-8h1.35v6.77h3.83v1.21Z"/><path class="cls-3" d="M327.89,104.35l-2.7,3.89,2.83,4.1h-1.55l-2.07-3-2.07,3h-1.51l2.82-4.07L321,104.35h1.55l1.92,2.82,2-2.82Z"/><line class="cls-4" x1="311.5" y1="199.54" x2="311.5" y2="214.54"/><polygon class="cls-5" points="309.01 212.35 311.5 216.67 313.99 212.35 309.01 212.35"/><line class="cls-4" x1="311.5" y1="130.54" x2="311.5" y2="145.54"/><polygon class="cls-5" points="309.01 144.18 311.5 148.5 313.99 144.18 309.01 144.18"/><line class="cls-4" x1="311.5" y1="62.54" x2="311.5" y2="77.54"/><polygon class="cls-5" points="309.01 75.35 311.5 79.67 313.99 75.35 309.01 75.35"/><line class="cls-6" x1="415" y1="70.01" x2="68" y2="70.01"/><line class="cls-6" x1="415" y1="138.36" x2="68" y2="138.36"/><line class="cls-6" x1="415" y1="207.01" x2="68" y2="207.01"/><path class="cls-3" d="M68.26,42.13h1.38a1.68,1.68,0,0,0,1.81,1.2A1.83,1.83,0,0,0,72.57,43a1,1,0,0,0,.42-.86.9.9,0,0,0-.27-.68,1.92,1.92,0,0,0-.89-.4l-1.35-.33q-2-.47-2-2.15a2.16,2.16,0,0,1,.76-1.7,2.85,2.85,0,0,1,2-.67,3.26,3.26,0,0,1,2,.59,2.67,2.67,0,0,1,1,1.62H72.89a1.58,1.58,0,0,0-1.66-1.07,1.67,1.67,0,0,0-1,.31,1,1,0,0,0-.4.8q0,.79,1.05,1l1.39.33a3,3,0,0,1,1.52.78A2,2,0,0,1,74.29,42a2.17,2.17,0,0,1-.79,1.76,3.11,3.11,0,0,1-2.05.66,3.53,3.53,0,0,1-2.12-.62A2.65,2.65,0,0,1,68.26,42.13Z"/><path class="cls-3" d="M82.05,37.39a4.73,4.73,0,0,1,0,5.92,3.6,3.6,0,0,1-5.3,0,4.75,4.75,0,0,1,0-5.92,3.6,3.6,0,0,1,5.3,0Zm-1,5.05a3.72,3.72,0,0,0,0-4.19,2.14,2.14,0,0,0-3.36,0,3.78,3.78,0,0,0,0,4.2,2.14,2.14,0,0,0,3.36,0Z"/><path class="cls-3" d="M90.35,43.61a3.62,3.62,0,0,1-4.67,0,3.3,3.3,0,0,1-.86-2.46v-4.8h1.35V41q0,2.25,1.85,2.25T89.87,41V36.35h1.35v4.81A3.29,3.29,0,0,1,90.35,43.61Z"/><path class="cls-3" d="M95.69,41.1h-1v3.24H93.38v-8h3.08a3,3,0,0,1,2,.62,2.53,2.53,0,0,1,.19,3.34,2.53,2.53,0,0,1-1.5.73l2.31,3.29H97.91Zm-1-3.57V40h1.7a1.49,1.49,0,0,0,1-.33,1.26,1.26,0,0,0,0-1.78,1.49,1.49,0,0,0-1-.33h-1.7Z"/><path class="cls-3" d="M101.71,43.31a4.79,4.79,0,0,1,0-5.94,3.34,3.34,0,0,1,2.59-1.15,3.27,3.27,0,0,1,2.17.71,3.22,3.22,0,0,1,1.08,1.93h-1.33a1.92,1.92,0,0,0-1.92-1.42,2,2,0,0,0-1.65.81,3.87,3.87,0,0,0,0,4.17,2,2,0,0,0,1.65.81,1.92,1.92,0,0,0,1.92-1.43h1.33a3.22,3.22,0,0,1-1.08,1.94,3.26,3.26,0,0,1-2.17.71A3.33,3.33,0,0,1,101.71,43.31Z"/><path class="cls-3" d="M109.39,36.35h5.21v1.2h-3.89v2.11h3.52v1.18h-3.52v2.29h3.89v1.21h-5.21Z"/><path class="cls-3" d="M120.59,43.31a4.79,4.79,0,0,1,0-5.94,3.34,3.34,0,0,1,2.59-1.15,3.27,3.27,0,0,1,2.17.71,3.22,3.22,0,0,1,1.08,1.93h-1.33a1.92,1.92,0,0,0-1.92-1.42,2,2,0,0,0-1.65.81,3.87,3.87,0,0,0,0,4.17,2,2,0,0,0,1.65.81,1.92,1.92,0,0,0,1.92-1.43h1.33a3.22,3.22,0,0,1-1.08,1.94,3.26,3.26,0,0,1-2.17.71A3.33,3.33,0,0,1,120.59,43.31Z"/><path class="cls-3" d="M134.17,37.39a4.73,4.73,0,0,1,0,5.92,3.6,3.6,0,0,1-5.3,0,4.75,4.75,0,0,1,0-5.92,3.6,3.6,0,0,1,5.3,0Zm-1,5.05a3.72,3.72,0,0,0,0-4.19,2.14,2.14,0,0,0-3.36,0,3.78,3.78,0,0,0,0,4.2,2.14,2.14,0,0,0,3.36,0Z"/><path class="cls-3" d="M137.07,44.33v-8h2.69a3.75,3.75,0,0,1,2.82,1.09,4.54,4.54,0,0,1,0,5.81,3.75,3.75,0,0,1-2.82,1.08h-2.69Zm1.35-1.21h1.29a2.44,2.44,0,0,0,1.9-.74,3.46,3.46,0,0,0,0-4.09,2.43,2.43,0,0,0-1.9-.75h-1.29Z"/><path class="cls-3" d="M145.49,36.35h5.21v1.2h-3.89v2.11h3.52v1.18h-3.52v2.29h3.89v1.21h-5.21Z"/><path class="cls-3" d="M68.88,104.35H74.1v1.2H70.21v2.11h3.52v1.18H70.21v2.29H74.1v1.21H68.88Z"/><path class="cls-3" d="M82.39,104.35l-2.7,3.89,2.83,4.1H81l-2.07-3-2.07,3H75.33l2.82-4.07-2.69-3.91H77l1.92,2.82,2-2.82Z"/><path class="cls-3" d="M84.06,104.35h5.21v1.2H85.38v2.11H88.9v1.18H85.38v2.29h3.89v1.21H84.06Z"/><path class="cls-3" d="M91.86,111.31a4.79,4.79,0,0,1,0-5.94,3.34,3.34,0,0,1,2.59-1.15,3.27,3.27,0,0,1,2.17.71,3.22,3.22,0,0,1,1.08,1.93H96.38a1.92,1.92,0,0,0-1.92-1.42,2,2,0,0,0-1.65.81,3.87,3.87,0,0,0,0,4.17,2,2,0,0,0,1.65.81,1.92,1.92,0,0,0,1.92-1.43h1.33a3.22,3.22,0,0,1-1.08,1.94,3.26,3.26,0,0,1-2.17.71A3.33,3.33,0,0,1,91.86,111.31Z"/><path class="cls-3" d="M104.94,111.61a3.62,3.62,0,0,1-4.67,0,3.3,3.3,0,0,1-.86-2.46v-4.8h1.35V109q0,2.25,1.85,2.25t1.85-2.25v-4.65h1.35v4.81A3.28,3.28,0,0,1,104.94,111.61Z"/><path class="cls-3" d="M107.47,105.55v-1.2h6.66v1.2h-2.65v6.79h-1.35v-6.79Z"/><path class="cls-3" d="M117.58,104.35h1.3l3.07,8h-1.38l-.82-2.21H116.7l-.82,2.21h-1.36Zm.64,1.65-1.09,3h2.18Z"/><path class="cls-3" d="M128.07,108.21a1.8,1.8,0,0,1,.94.7,1.92,1.92,0,0,1,.36,1.14,2.07,2.07,0,0,1-.72,1.7,3,3,0,0,1-2,.59h-3.06v-8h2.79a3.16,3.16,0,0,1,2,.56,1.92,1.92,0,0,1,.71,1.61,2,2,0,0,1-.29,1.08A1.43,1.43,0,0,1,128.07,108.21Zm-3.15-.51h1.47q1.42,0,1.42-1.11t-1.42-1.08h-1.47Zm0,1.12v2.34h1.72a1.55,1.55,0,0,0,1-.31,1.19,1.19,0,0,0,0-1.72,1.55,1.55,0,0,0-1-.31Z"/><path class="cls-3" d="M131.3,112.33v-8h1.35v6.77h3.84v1.21Z"/><path class="cls-3" d="M138.38,104.35h5.21v1.2h-3.89v2.11h3.52v1.18h-3.52v2.29h3.89v1.21h-5.21Z"/><path class="cls-3" d="M72,178.36H70.24v3H68.88v-8H72a2.91,2.91,0,0,1,2,.65,2.7,2.7,0,0,1,0,3.71A2.9,2.9,0,0,1,72,178.36Zm1.39-2.5a1.32,1.32,0,0,0-.36-1,1.43,1.43,0,0,0-1.05-.36h-1.7v2.66h1.7a1.43,1.43,0,0,0,1-.36A1.29,1.29,0,0,0,73.36,175.86Z"/><path class="cls-3" d="M78.35,173.35h1.3l3.07,8H81.34l-.82-2.21H77.46l-.82,2.21H75.28ZM79,175l-1.09,3h2.18Z"/><path class="cls-3" d="M84.66,180.31a4.79,4.79,0,0,1,0-5.94,3.34,3.34,0,0,1,2.59-1.15,3.26,3.26,0,0,1,2.17.71,3.21,3.21,0,0,1,1.08,1.93H89.18a1.92,1.92,0,0,0-1.92-1.42,2,2,0,0,0-1.65.81,3.87,3.87,0,0,0,0,4.17,2,2,0,0,0,1.65.81,1.92,1.92,0,0,0,1.92-1.43H90.5a3.22,3.22,0,0,1-1.08,1.94,3.26,3.26,0,0,1-2.17.71A3.33,3.33,0,0,1,84.66,180.31Z"/><path class="cls-3" d="M93.69,173.35v3.82L97,173.35h1.7L95.48,177l3.34,4.35H97.13l-2.63-3.42-.82.94v2.48H92.34v-8Z"/><path class="cls-3" d="M102.87,173.35h1.3l3.07,8h-1.38l-.82-2.21H102l-.82,2.21H99.8Zm.64,1.65-1.09,3h2.18Z"/><path class="cls-3" d="M114.33,178.37h-1.74v-1.16h3v.62a3.64,3.64,0,0,1-1,2.63,3.24,3.24,0,0,1-2.44,1,3.51,3.51,0,0,1-2.69-1.15,4.68,4.68,0,0,1,0-5.94,3.45,3.45,0,0,1,2.65-1.15,3.33,3.33,0,0,1,2.19.7,3.18,3.18,0,0,1,1.08,1.93H114.1a2.37,2.37,0,0,0-.71-1,1.9,1.9,0,0,0-1.21-.36,2.06,2.06,0,0,0-1.7.81,3.72,3.72,0,0,0,0,4.19,2.11,2.11,0,0,0,1.74.82,2,2,0,0,0,1.43-.51A2.3,2.3,0,0,0,114.33,178.37Z"/><path class="cls-3" d="M118.83,173.35v8h-1.35v-8Z"/><path class="cls-3" d="M127.54,173.35v8h-1l-4.08-5.81v5.81h-1.3v-8h1.27l3.85,5.54v-5.54Z"/><path class="cls-3" d="M135.26,178.37h-1.74v-1.16h3v.62a3.64,3.64,0,0,1-1,2.63,3.24,3.24,0,0,1-2.44,1,3.51,3.51,0,0,1-2.69-1.15,4.68,4.68,0,0,1,0-5.94,3.45,3.45,0,0,1,2.65-1.15,3.33,3.33,0,0,1,2.19.7,3.18,3.18,0,0,1,1.09,1.93H135a2.37,2.37,0,0,0-.71-1,1.9,1.9,0,0,0-1.21-.36,2.06,2.06,0,0,0-1.7.81,3.72,3.72,0,0,0,0,4.19,2.11,2.11,0,0,0,1.74.82,2,2,0,0,0,1.43-.51A2.29,2.29,0,0,0,135.26,178.37Z"/><path class="cls-3" d="M68.88,249.34v-8h2.69a3.75,3.75,0,0,1,2.82,1.09,4.54,4.54,0,0,1,0,5.81,3.75,3.75,0,0,1-2.82,1.09H68.88Zm1.35-1.21h1.29a2.44,2.44,0,0,0,1.9-.74,3.46,3.46,0,0,0,0-4.09,2.43,2.43,0,0,0-1.9-.75H70.24Z"/><path class="cls-3" d="M77.31,241.35h5.21v1.2H78.63v2.1h3.52v1.18H78.63v2.29h3.89v1.21H77.31Z"/><path class="cls-3" d="M87.59,246.36H85.86v3H84.51v-8h3.08a2.91,2.91,0,0,1,2,.65,2.7,2.7,0,0,1,0,3.71A2.9,2.9,0,0,1,87.59,246.36Zm1.39-2.5a1.32,1.32,0,0,0-.36-1,1.43,1.43,0,0,0-1.05-.36h-1.7v2.66h1.7a1.43,1.43,0,0,0,1-.36A1.29,1.29,0,0,0,89,243.86Z"/><path class="cls-3" d="M92.11,249.34v-8h1.35v6.77H97.3v1.21Z"/><path class="cls-3" d="M105.1,242.39a4.72,4.72,0,0,1,0,5.91,3.6,3.6,0,0,1-5.3,0,4.75,4.75,0,0,1,0-5.91,3.6,3.6,0,0,1,5.3,0Zm-1,5.05a3.72,3.72,0,0,0,0-4.19,2.14,2.14,0,0,0-3.36,0,3.78,3.78,0,0,0,0,4.2,2.14,2.14,0,0,0,3.36,0Z"/><path class="cls-3" d="M110.9,244.93l2.11-3.57h1.43l-2.9,4.8v3.18H110.2v-3.18l-2.89-4.8h1.47Z"/><path class="cls-3" d="M120.48,249.34h-1l-2.2-5.55v5.55H116v-8h1.55l2.43,6.13,2.4-6.13h1.51v8h-1.3v-5.55Z"/><path class="cls-3" d="M126.21,241.35h5.21v1.2h-3.89v2.1h3.52v1.18h-3.52v2.29h3.89v1.21h-5.21Z"/><path class="cls-3" d="M139.84,241.35v8h-1l-4.08-5.81v5.81h-1.3v-8h1.27l3.85,5.54v-5.54Z"/><path class="cls-3" d="M141.63,242.55v-1.2h6.66v1.2h-2.65v6.79h-1.35v-6.79Z"/></svg>