<?xml version="1.0" encoding="utf-8"?>
<!-- Generator: Adobe Illustrator 16.0.4, SVG Export Plug-In . SVG Version: 6.00 Build 0)  -->
<!DOCTYPE svg PUBLIC "-//W3C//DTD SVG 1.0//EN" "http://www.w3.org/TR/2001/REC-SVG-20010904/DTD/svg10.dtd">
<svg version="1.0" id="Layer_1" xmlns="http://www.w3.org/2000/svg" xmlns:xlink="http://www.w3.org/1999/xlink" x="0px" y="0px"
	 width="405px" height="75px" viewBox="0 0 405 75" enable-background="new 0 0 405 75" xml:space="preserve">
<rect fill="#585A5E" width="405" height="75"/>
<g>
	<g>
		<g>
			<g>
				<g>
					<path fill="#FFFFFF" d="M41.461,60.709H20V15.03h20.301c11.528,0,16.46,4.93,16.46,12.398c0,5.147-3.481,8.772-8.411,9.57
						c5.511,1.016,9.788,4.641,9.788,11.166C58.138,56.068,52.119,60.709,41.461,60.709z M28.846,34.026h10.875
						c5.438,0,7.759-2.392,7.759-5.8s-2.32-5.873-7.759-5.873H28.846V34.026z M28.846,40.915v12.471h11.601
						c5.655,0,8.411-2.393,8.411-6.163c0-3.843-2.756-6.308-8.411-6.308H28.846z"/>
					<path fill="#FFFFFF" d="M90.636,52.95c0,1.668,0.87,2.466,2.248,2.466c0.869,0,1.74-0.218,2.683-0.653v4.641
						c-1.378,1.088-3.118,2.03-6.019,2.03c-3.625,0-6.38-2.319-7.032-6.163c-1.812,3.771-5.873,6.235-11.167,6.235
						c-6.09,0-10.151-3.263-10.151-8.772c0-6.091,4.787-8.628,12.182-10.006l8.773-1.668v-0.942c0-3.553-1.885-5.729-5.583-5.729
						c-3.625,0-5.583,2.176-6.308,5.293l-7.904-0.725c1.089-6.525,6.092-11.093,14.574-11.093c8.266,0,13.704,3.915,13.704,12.325
						V52.95z M82.152,45.773l-6.018,1.232c-3.988,0.797-6.453,1.812-6.453,4.784c0,2.248,1.595,3.916,4.423,3.916
						c4.567,0,8.048-3.408,8.048-8.846V45.773z"/>
					<path fill="#FFFFFF" d="M161.911,50.05c-1.595,7.251-7.25,11.529-15.443,11.529c-9.862,0-16.967-6.309-16.967-16.386
						c0-10.079,7.179-17.329,16.749-17.329c10.44,0,15.806,7.25,15.806,15.951v2.755h-23.999c0.29,5.22,3.988,8.41,8.701,8.41
						c4.277,0,6.888-1.885,8.12-5.655L161.911,50.05z M153.573,42.002c-0.146-4.133-2.538-7.758-7.396-7.758
						c-4.785,0-7.469,3.48-7.977,7.758H153.573z"/>
					<path fill="#FFFFFF" d="M189.19,37.289c-1.668-0.942-3.118-1.377-5.221-1.377c-4.496,0-7.541,3.189-7.541,8.99v15.807h-8.7
						V28.734h8.7v6.09c1.16-3.625,4.495-6.96,8.919-6.96c1.957,0,3.553,0.508,4.495,1.305L189.19,37.289z"/>
					<path fill="#FFFFFF" d="M193.505,15.03h8.918v8.483h-8.918V15.03z M202.351,28.734v31.975h-8.7V28.734H202.351z"/>
					<path fill="#FFFFFF" d="M218.216,60.709h-8.701V28.734h8.701v5.22c1.595-3.625,5.655-6.09,10.441-6.09
						c8.555,0,11.673,5.8,11.673,12.905v19.939h-8.7V42.51c0-4.931-1.958-7.758-6.236-7.758c-4.423,0-7.178,3.48-7.178,8.846V60.709
						z"/>
					<path fill="#FFFFFF" d="M274.909,52.95c0,1.668,0.87,2.466,2.248,2.466c0.87,0,1.74-0.218,2.683-0.653v4.641
						c-1.378,1.088-3.118,2.03-6.018,2.03c-3.625,0-6.381-2.319-7.033-6.163c-1.812,3.771-5.873,6.235-11.165,6.235
						c-6.091,0-10.151-3.263-10.151-8.772c0-6.091,4.785-8.628,12.181-10.006l8.773-1.668v-0.942c0-3.553-1.886-5.729-5.583-5.729
						c-3.625,0-5.583,2.176-6.308,5.293l-7.903-0.725c1.087-6.525,6.091-11.093,14.573-11.093c8.267,0,13.703,3.915,13.703,12.325
						V52.95z M266.427,45.773l-6.019,1.232c-3.987,0.797-6.452,1.812-6.452,4.784c0,2.248,1.596,3.916,4.422,3.916
						c4.568,0,8.049-3.408,8.049-8.846V45.773z"/>
				</g>
				<g>
					<polygon fill="#FFFFFF" points="99.354,26.906 99.354,13.718 110.397,13.718 110.397,31.13 					"/>
					<polygon fill="#FFFFFF" points="99.354,31.035 106.913,33.926 99.354,36.817 					"/>
					<polygon fill="#FFFFFF" points="110.397,36.722 110.397,43.11 105.029,60.709 99.354,60.709 99.354,40.945 					"/>
				</g>
				<g>
					<polygon fill="#FFFFFF" points="125.269,26.906 125.269,13.718 114.226,13.718 114.226,31.13 					"/>
					<polygon fill="#FFFFFF" points="125.269,31.035 117.71,33.926 125.269,36.817 					"/>
					<polygon fill="#FFFFFF" points="114.226,36.722 114.226,43.11 119.594,60.709 125.269,60.709 125.269,40.945 					"/>
				</g>
			</g>
		</g>
	</g>
	<path fill="#41C4BF" d="M311.042,47.453c-0.545,5.962-4.28,10.383-10.874,10.383c-6.706,0-11.274-5.232-11.274-13.118
		S293.462,31.6,300.168,31.6c6.54,0,10.268,4.21,10.858,10.091l4.124-0.3c-0.748-7.525-5.732-13.549-14.835-13.549
		c-9.507,0-16.139,6.706-16.139,16.876c0,10.169,6.632,16.875,16.139,16.875c9.158,0,14.15-6.097,14.851-13.688L311.042,47.453z"/>
	<g>
		<path fill="#41C4BF" d="M336.717,61.594c-9.063,0-15.991-6.928-15.991-16.876s6.928-16.876,15.991-16.876
			c9.139,0,16.066,6.928,16.066,16.876S345.855,61.594,336.717,61.594z M336.717,58.057c7.223,0,11.35-5.527,11.35-13.339
			s-4.127-13.339-11.35-13.339c-7.147,0-11.274,5.527-11.274,13.339S329.569,58.057,336.717,58.057z"/>
		<path fill="#41C4BF" d="M364.719,60.709h-4.495V28.727h4.495v5.896c1.548-3.906,5.969-6.78,10.76-6.78
			c8.254,0,11.717,5.38,11.717,13.044v19.823H382.7V40.738c0-5.674-2.948-9.359-8.401-9.359c-5.084,0-9.58,3.979-9.58,10.17V60.709z
			"/>
	</g>
</g>
</svg>
