<?xml version="1.0" encoding="utf-8"?>
<!-- Generator: Adobe Illustrator 16.0.4, SVG Export Plug-In . SVG Version: 6.00 Build 0)  -->
<!DOCTYPE svg PUBLIC "-//W3C//DTD SVG 1.0//EN" "http://www.w3.org/TR/2001/REC-SVG-20010904/DTD/svg10.dtd">
<svg version="1.0" id="Layer_1" xmlns="http://www.w3.org/2000/svg" xmlns:xlink="http://www.w3.org/1999/xlink" x="0px" y="0px"
	 width="367.195px" height="47.876px" viewBox="0 0 367.195 47.876" enable-background="new 0 0 367.195 47.876"
	 xml:space="preserve">
<g>
	<g>
		<g>
			<g>
				<g>
					<path fill="#464646" d="M21.461,46.991H0V1.312h20.301c11.528,0,16.46,4.93,16.46,12.398c0,5.147-3.481,8.772-8.411,9.57
						c5.511,1.016,9.788,4.641,9.788,11.166C38.138,42.351,32.119,46.991,21.461,46.991z M8.846,20.309h10.875
						c5.438,0,7.759-2.392,7.759-5.8s-2.32-5.873-7.759-5.873H8.846V20.309z M8.846,27.197v12.471h11.601
						c5.655,0,8.411-2.393,8.411-6.163c0-3.843-2.756-6.308-8.411-6.308H8.846z"/>
					<path fill="#464646" d="M70.636,39.232c0,1.668,0.87,2.466,2.248,2.466c0.869,0,1.74-0.218,2.683-0.653v4.641
						c-1.378,1.088-3.118,2.03-6.019,2.03c-3.625,0-6.38-2.319-7.032-6.163c-1.812,3.771-5.873,6.235-11.167,6.235
						c-6.09,0-10.151-3.263-10.151-8.772c0-6.091,4.787-8.628,12.182-10.006l8.773-1.668v-0.942c0-3.553-1.885-5.729-5.583-5.729
						c-3.625,0-5.583,2.176-6.308,5.293l-7.904-0.725c1.089-6.525,6.092-11.093,14.574-11.093c8.266,0,13.704,3.915,13.704,12.325
						V39.232z M62.152,32.056l-6.018,1.232c-3.988,0.797-6.453,1.812-6.453,4.784c0,2.248,1.595,3.916,4.423,3.916
						c4.567,0,8.048-3.408,8.048-8.846V32.056z"/>
					<path fill="#464646" d="M141.911,36.332c-1.595,7.251-7.25,11.529-15.443,11.529c-9.862,0-16.967-6.309-16.967-16.386
						c0-10.079,7.179-17.329,16.749-17.329c10.44,0,15.806,7.25,15.806,15.951v2.755h-23.999c0.29,5.22,3.988,8.41,8.701,8.41
						c4.277,0,6.888-1.885,8.12-5.655L141.911,36.332z M133.573,28.284c-0.146-4.133-2.538-7.758-7.396-7.758
						c-4.785,0-7.469,3.48-7.977,7.758H133.573z"/>
					<path fill="#464646" d="M169.19,23.571c-1.668-0.942-3.118-1.377-5.221-1.377c-4.496,0-7.541,3.189-7.541,8.99v15.807h-8.7
						V15.017h8.7v6.09c1.16-3.625,4.495-6.96,8.919-6.96c1.957,0,3.553,0.508,4.495,1.305L169.19,23.571z"/>
					<path fill="#464646" d="M173.505,1.312h8.918v8.483h-8.918V1.312z M182.351,15.017v31.975h-8.7V15.017H182.351z"/>
					<path fill="#464646" d="M198.216,46.991h-8.701V15.017h8.701v5.22c1.595-3.625,5.655-6.09,10.441-6.09
						c8.555,0,11.673,5.8,11.673,12.905v19.939h-8.7V28.792c0-4.931-1.958-7.758-6.236-7.758c-4.423,0-7.178,3.48-7.178,8.846
						V46.991z"/>
					<path fill="#464646" d="M254.909,39.232c0,1.668,0.87,2.466,2.248,2.466c0.87,0,1.74-0.218,2.683-0.653v4.641
						c-1.378,1.088-3.118,2.03-6.018,2.03c-3.625,0-6.381-2.319-7.033-6.163c-1.812,3.771-5.873,6.235-11.165,6.235
						c-6.091,0-10.151-3.263-10.151-8.772c0-6.091,4.785-8.628,12.181-10.006l8.773-1.668v-0.942c0-3.553-1.886-5.729-5.583-5.729
						c-3.625,0-5.583,2.176-6.308,5.293l-7.903-0.725c1.087-6.525,6.091-11.093,14.573-11.093c8.267,0,13.703,3.915,13.703,12.325
						V39.232z M246.427,32.056l-6.019,1.232c-3.987,0.797-6.452,1.812-6.452,4.784c0,2.248,1.596,3.916,4.422,3.916
						c4.568,0,8.049-3.408,8.049-8.846V32.056z"/>
				</g>
				<g>
					<polygon fill="#464646" points="79.354,13.188 79.354,0 90.397,0 90.397,17.412 					"/>
					<polygon fill="#464646" points="79.354,17.317 86.913,20.208 79.354,23.1 					"/>
					<polygon fill="#464646" points="90.397,23.004 90.397,29.393 85.029,46.991 79.354,46.991 79.354,27.228 					"/>
				</g>
				<g>
					<polygon fill="#464646" points="105.269,13.188 105.269,0 94.226,0 94.226,17.412 					"/>
					<polygon fill="#464646" points="105.269,17.317 97.71,20.208 105.269,23.1 					"/>
					<polygon fill="#464646" points="94.226,23.004 94.226,29.393 99.594,46.991 105.269,46.991 105.269,27.228 					"/>
				</g>
			</g>
		</g>
	</g>
	<path fill="#41C4BF" d="M291.042,33.735c-0.545,5.962-4.28,10.383-10.874,10.383c-6.706,0-11.274-5.232-11.274-13.118
		s4.568-13.118,11.274-13.118c6.54,0,10.268,4.21,10.858,10.091l4.124-0.3c-0.748-7.525-5.732-13.549-14.835-13.549
		c-9.507,0-16.139,6.706-16.139,16.876c0,10.169,6.632,16.875,16.139,16.875c9.158,0,14.15-6.097,14.851-13.688L291.042,33.735z"/>
	<g>
		<path fill="#41C4BF" d="M316.717,47.876c-9.063,0-15.991-6.928-15.991-16.876s6.928-16.876,15.991-16.876
			c9.139,0,16.066,6.928,16.066,16.876S325.855,47.876,316.717,47.876z M316.717,44.339c7.223,0,11.35-5.527,11.35-13.339
			s-4.127-13.339-11.35-13.339c-7.147,0-11.274,5.527-11.274,13.339S309.569,44.339,316.717,44.339z"/>
		<path fill="#41C4BF" d="M344.719,46.991h-4.495V15.009h4.495v5.896c1.548-3.906,5.969-6.78,10.76-6.78
			c8.254,0,11.717,5.38,11.717,13.044v19.823H362.7V27.021c0-5.674-2.948-9.359-8.401-9.359c-5.084,0-9.58,3.979-9.58,10.17V46.991z
			"/>
	</g>
</g>
</svg>
