<?xml version="1.0" encoding="utf-8"?>
<!-- Generator: Adobe Illustrator 16.0.4, SVG Export Plug-In . SVG Version: 6.00 Build 0)  -->
<!DOCTYPE svg PUBLIC "-//W3C//DTD SVG 1.0//EN" "http://www.w3.org/TR/2001/REC-SVG-20010904/DTD/svg10.dtd">
<svg version="1.0" id="Layer_1" xmlns="http://www.w3.org/2000/svg" xmlns:xlink="http://www.w3.org/1999/xlink" x="0px" y="0px"
	 width="124px" height="41px" viewBox="0 0 124 41" enable-background="new 0 0 124 41" xml:space="preserve">
<g>
	<g>
		<g>
			<path fill="#585556" d="M34.217,23.622c-0.764-0.852-1.146-1.949-1.146-3.296c0-1.346,0.382-2.444,1.146-3.296
				c0.764-0.851,1.722-1.276,2.875-1.276c0.98,0,1.782,0.263,2.407,0.786c0.625,0.524,1.023,1.238,1.196,2.142h-1.47
				c-0.384-1.048-1.095-1.571-2.133-1.571c-0.769,0-1.378,0.301-1.83,0.901s-0.677,1.372-0.677,2.314s0.226,1.714,0.677,2.314
				c0.452,0.602,1.062,0.901,1.83,0.901c1.038,0,1.749-0.528,2.133-1.586h1.47c-0.173,0.913-0.572,1.632-1.196,2.156
				s-1.427,0.786-2.407,0.786C35.939,24.898,34.981,24.473,34.217,23.622z"/>
			<path fill="#585556" d="M47.021,15.898h1.441l3.401,8.855h-1.527l-0.908-2.452h-3.386l-0.908,2.452H43.62L47.021,15.898z
				 M47.727,17.73l-1.21,3.273h2.421L47.727,17.73z"/>
			<path fill="#585556" d="M55.293,24.754v-8.855h1.499v7.515h4.251v1.341H55.293z"/>
			<path fill="#585556" d="M64.732,24.754v-8.855h1.499v7.515h4.251v1.341H64.732z"/>
			<path fill="#585556" d="M74.171,15.898h5.779v1.327h-4.309v2.336h3.906v1.312h-3.906v2.539h4.309v1.341h-5.779V15.898z"/>
			<path fill="#585556" d="M86.305,21.163h-1.066v3.591H83.74v-8.855h3.416c0.932,0,1.667,0.229,2.205,0.686
				c0.538,0.456,0.807,1.112,0.807,1.969c0,0.73-0.199,1.31-0.598,1.737c-0.398,0.428-0.954,0.699-1.664,0.815l2.565,3.648H88.77
				L86.305,21.163z M85.239,17.196v2.712h1.888c0.49,0,0.872-0.123,1.146-0.368s0.411-0.574,0.411-0.987
				c0-0.414-0.137-0.743-0.411-0.988s-0.656-0.368-1.146-0.368H85.239z"/>
		</g>
	</g>
	<path fill="none" stroke="#585A5E" stroke-miterlimit="10" d="M103.726,1.263c-5.409,0-10.287,2.243-13.782,5.843
		c-3.494-3.6-8.373-5.843-13.782-5.843c-0.125,0-0.248,0.017-0.375,0.019c-0.128-0.002-0.252-0.019-0.384-0.019
		c-5.223,0-9.936,2.103-13.402,5.488c-3.464-3.386-8.18-5.488-13.405-5.488c-0.129,0-0.254,0.017-0.383,0.019
		c-0.125-0.002-0.246-0.019-0.371-0.019c-5.412,0-10.293,2.243-13.785,5.843c-3.494-3.6-8.373-5.843-13.782-5.843
		c-10.62,0-19.224,8.61-19.224,19.235c0,10.626,8.604,19.239,19.224,19.239c5.409,0,10.288-2.242,13.782-5.844
		c3.491,3.602,8.373,5.844,13.785,5.844c0.125,0,0.246-0.017,0.371-0.02c0.128,0.003,0.254,0.02,0.383,0.02
		c5.225,0,9.941-2.106,13.405-5.488c3.466,3.382,8.18,5.488,13.402,5.488c0.132,0,0.256-0.017,0.384-0.02
		c0.126,0.003,0.249,0.02,0.375,0.02c5.41,0,10.288-2.242,13.782-5.844c3.495,3.602,8.373,5.844,13.782,5.844
		c10.617,0,19.224-8.613,19.224-19.239C122.949,9.873,114.342,1.263,103.726,1.263z"/>
</g>
</svg>
