<?xml version="1.0" encoding="utf-8"?>
<!-- Generator: Adobe Illustrator 16.0.4, SVG Export Plug-In . SVG Version: 6.00 Build 0)  -->
<!DOCTYPE svg PUBLIC "-//W3C//DTD SVG 1.0//EN" "http://www.w3.org/TR/2001/REC-SVG-20010904/DTD/svg10.dtd">
<svg version="1.0" id="Layer_1" xmlns="http://www.w3.org/2000/svg" xmlns:xlink="http://www.w3.org/1999/xlink" x="0px" y="0px"
	 width="47.7px" height="48.3px" viewBox="0 0 47.7 48.3" enable-background="new 0 0 47.7 48.3" xml:space="preserve">
<g>
	<ellipse fill="none" stroke="#595B5F" stroke-miterlimit="10" cx="23.808" cy="23.915" rx="22" ry="21.994"/>
	<g>
		<path fill="#595757" d="M14.544,9.314v6.679h-1.099v-5.319l-1.566,0.794v-1.142l2.002-1.012H14.544z"/>
		<path fill="#595757" d="M21.649,15.145c-0.464,0.638-1.073,0.958-1.828,0.958c-0.754,0-1.363-0.319-1.828-0.958
			c-0.464-0.638-0.696-1.468-0.696-2.491c0-1.023,0.232-1.853,0.696-2.491c0.465-0.638,1.074-0.958,1.828-0.958
			c0.755,0,1.364,0.319,1.828,0.958s0.696,1.468,0.696,2.491C22.346,13.677,22.113,14.507,21.649,15.145z M19.821,10.229
			c-0.479,0-0.836,0.219-1.071,0.658c-0.236,0.439-0.354,1.028-0.354,1.768s0.117,1.329,0.354,1.768
			c0.235,0.439,0.593,0.658,1.071,0.658c0.472,0,0.825-0.219,1.062-0.658c0.235-0.439,0.354-1.028,0.354-1.768
			s-0.118-1.329-0.354-1.768C20.646,10.448,20.293,10.229,19.821,10.229z"/>
		<path fill="#595757" d="M27.265,9.314v6.679h-1.099v-5.319L24.6,11.468v-1.142l2.002-1.012H27.265z"/>
		<path fill="#595757" d="M34.37,15.145c-0.464,0.638-1.073,0.958-1.828,0.958c-0.754,0-1.363-0.319-1.828-0.958
			c-0.464-0.638-0.696-1.468-0.696-2.491c0-1.023,0.232-1.853,0.696-2.491c0.465-0.638,1.074-0.958,1.828-0.958
			c0.755,0,1.364,0.319,1.828,0.958s0.696,1.468,0.696,2.491C35.066,13.677,34.834,14.507,34.37,15.145z M32.542,10.229
			c-0.479,0-0.836,0.219-1.071,0.658c-0.236,0.439-0.354,1.028-0.354,1.768s0.117,1.329,0.354,1.768
			c0.235,0.439,0.593,0.658,1.071,0.658c0.472,0,0.825-0.219,1.062-0.658c0.235-0.439,0.354-1.028,0.354-1.768
			s-0.118-1.329-0.354-1.768C33.367,10.448,33.014,10.229,32.542,10.229z"/>
		<path fill="#595757" d="M13.831,26.023c-0.464,0.638-1.073,0.958-1.828,0.958c-0.754,0-1.363-0.319-1.828-0.958
			c-0.464-0.638-0.696-1.468-0.696-2.491c0-1.023,0.232-1.853,0.696-2.491c0.465-0.638,1.074-0.958,1.828-0.958
			c0.755,0,1.364,0.319,1.828,0.958s0.696,1.468,0.696,2.491C14.527,24.555,14.295,25.385,13.831,26.023z M12.003,21.106
			c-0.479,0-0.836,0.219-1.071,0.658c-0.236,0.439-0.354,1.028-0.354,1.768s0.117,1.329,0.354,1.768
			c0.235,0.439,0.593,0.658,1.071,0.658c0.472,0,0.825-0.219,1.062-0.658c0.235-0.439,0.354-1.028,0.354-1.768
			s-0.118-1.329-0.354-1.768C12.828,21.326,12.475,21.106,12.003,21.106z"/>
		<path fill="#595757" d="M19.445,20.192v6.679h-1.099v-5.319l-1.566,0.794v-1.142l2.002-1.012H19.445z"/>
		<path fill="#595757" d="M26.552,26.023c-0.464,0.638-1.073,0.958-1.828,0.958c-0.754,0-1.363-0.319-1.828-0.958
			c-0.464-0.638-0.696-1.468-0.696-2.491c0-1.023,0.232-1.853,0.696-2.491c0.465-0.638,1.074-0.958,1.828-0.958
			c0.755,0,1.364,0.319,1.828,0.958s0.696,1.468,0.696,2.491C27.248,24.555,27.016,25.385,26.552,26.023z M24.724,21.106
			c-0.479,0-0.836,0.219-1.071,0.658c-0.236,0.439-0.354,1.028-0.354,1.768s0.117,1.329,0.354,1.768
			c0.235,0.439,0.593,0.658,1.071,0.658c0.472,0,0.825-0.219,1.062-0.658c0.235-0.439,0.354-1.028,0.354-1.768
			s-0.118-1.329-0.354-1.768C25.549,21.326,25.195,21.106,24.724,21.106z"/>
		<path fill="#595757" d="M32.166,20.192v6.679h-1.099v-5.319l-1.566,0.794v-1.142l2.002-1.012H32.166z"/>
		<path fill="#595757" d="M37.378,20.192v6.679h-1.099v-5.319l-1.566,0.794v-1.142l2.002-1.012H37.378z"/>
		<path fill="#595757" d="M16.438,36.901c-0.464,0.638-1.073,0.958-1.828,0.958c-0.754,0-1.363-0.319-1.828-0.958
			c-0.464-0.638-0.696-1.468-0.696-2.491c0-1.023,0.232-1.853,0.696-2.491c0.465-0.638,1.074-0.958,1.828-0.958
			c0.755,0,1.364,0.319,1.828,0.958s0.696,1.468,0.696,2.491C17.134,35.433,16.901,36.263,16.438,36.901z M14.609,31.984
			c-0.479,0-0.836,0.219-1.071,0.658c-0.236,0.439-0.354,1.028-0.354,1.768s0.117,1.329,0.354,1.768
			c0.235,0.439,0.593,0.658,1.071,0.658c0.472,0,0.825-0.219,1.062-0.658c0.235-0.439,0.354-1.028,0.354-1.768
			s-0.118-1.329-0.354-1.768C15.435,32.204,15.081,31.984,14.609,31.984z"/>
		<path fill="#595757" d="M22.052,31.07v6.679h-1.099V32.43l-1.566,0.794v-1.142l2.002-1.012H22.052z"/>
		<path fill="#595757" d="M29.158,36.901c-0.464,0.638-1.073,0.958-1.828,0.958c-0.754,0-1.363-0.319-1.828-0.958
			c-0.464-0.638-0.696-1.468-0.696-2.491c0-1.023,0.232-1.853,0.696-2.491c0.465-0.638,1.074-0.958,1.828-0.958
			c0.755,0,1.364,0.319,1.828,0.958s0.696,1.468,0.696,2.491C29.854,35.433,29.622,36.263,29.158,36.901z M27.33,31.984
			c-0.479,0-0.836,0.219-1.071,0.658c-0.236,0.439-0.354,1.028-0.354,1.768s0.117,1.329,0.354,1.768
			c0.235,0.439,0.593,0.658,1.071,0.658c0.472,0,0.825-0.219,1.062-0.658c0.235-0.439,0.354-1.028,0.354-1.768
			s-0.118-1.329-0.354-1.768C28.155,32.204,27.802,31.984,27.33,31.984z"/>
		<path fill="#595757" d="M34.772,31.07v6.679h-1.099V32.43l-1.566,0.794v-1.142l2.002-1.012H34.772z"/>
	</g>
</g>
</svg>
