<?xml version="1.0" encoding="utf-8"?>
<!-- Generator: Adobe Illustrator 16.0.4, SVG Export Plug-In . SVG Version: 6.00 Build 0)  -->
<!DOCTYPE svg PUBLIC "-//W3C//DTD SVG 1.0//EN" "http://www.w3.org/TR/2001/REC-SVG-20010904/DTD/svg10.dtd">
<svg version="1.0" id="Layer_1" xmlns="http://www.w3.org/2000/svg" xmlns:xlink="http://www.w3.org/1999/xlink" x="0px" y="0px"
	 width="64px" height="45px" viewBox="0 0 64 45" enable-background="new 0 0 64 45" xml:space="preserve">
<path fill-rule="evenodd" clip-rule="evenodd" fill="#B3B3B3" d="M61.74,17.354c-1.399-0.937-4.617-1.278-7.091-0.811
	c-0.318-2.331-1.618-4.354-3.98-6.181l-1.361-0.906l-0.906,1.36c-1.162,1.75-1.742,4.175-1.547,6.5
	c0.082,0.819,0.352,2.285,1.191,3.569c-0.84,0.454-2.5,1.076-4.691,1.033H1.203l-0.08,0.484c-0.397,2.337-0.389,9.628,4.344,15.233
	c3.6,4.26,8.998,6.422,16.036,6.422c15.269,0,26.567-7.029,31.85-19.801c2.083,0.042,6.56,0.013,8.861-4.383
	c0.062-0.103,0.2-0.363,0.598-1.198l0.222-0.458L61.74,17.354z M28.495,6.77h6.413V0.942h-6.413V6.77z M28.495,13.761h6.413V7.934
	h-6.413V13.761z M20.921,13.761h6.413V7.934h-6.413V13.761z M13.346,13.761h6.413V7.934h-6.413V13.761z M5.775,20.752h6.408v-5.827
	H5.775V20.752z M13.346,20.752h6.413v-5.827h-6.413V20.752z M20.921,20.752h6.413v-5.827h-6.413V20.752z M28.495,20.752h6.413
	v-5.827h-6.413V20.752z M36.07,20.752h6.408v-5.827H36.07V20.752z"/>
</svg>
