<?xml version="1.0" encoding="utf-8"?>
<!-- Generator: Adobe Illustrator 16.0.4, SVG Export Plug-In . SVG Version: 6.00 Build 0)  -->
<!DOCTYPE svg PUBLIC "-//W3C//DTD SVG 1.0//EN" "http://www.w3.org/TR/2001/REC-SVG-20010904/DTD/svg10.dtd">
<svg version="1.0" id="Layer_1" xmlns="http://www.w3.org/2000/svg" xmlns:xlink="http://www.w3.org/1999/xlink" x="0px" y="0px"
	 width="122.995px" height="41px" viewBox="0 0 122.995 41" enable-background="new 0 0 122.995 41" xml:space="preserve">
<g>
	<path fill="none" stroke="#585A5E" stroke-miterlimit="10" d="M103.255,1.251c-5.412,0-10.295,2.245-13.792,5.847
		c-3.497-3.603-8.379-5.847-13.793-5.847c-0.125,0-0.249,0.017-0.374,0.02c-0.128-0.003-0.255-0.02-0.385-0.02
		c-5.227,0-9.944,2.104-13.414,5.492c-3.466-3.388-8.186-5.492-13.416-5.492c-0.128,0-0.254,0.017-0.382,0.02
		c-0.125-0.003-0.246-0.02-0.372-0.02c-5.416,0-10.301,2.245-13.795,5.847c-3.498-3.603-8.38-5.847-13.793-5.847
		C9.111,1.251,0.5,9.867,0.5,20.499c0,10.632,8.611,19.25,19.239,19.25c5.414,0,10.296-2.244,13.793-5.847
		c3.494,3.603,8.379,5.847,13.795,5.847c0.126,0,0.246-0.017,0.372-0.02c0.128,0.002,0.254,0.02,0.382,0.02
		c5.229,0,9.95-2.107,13.416-5.492c3.469,3.385,8.187,5.492,13.414,5.492c0.13,0,0.257-0.017,0.385-0.02
		c0.125,0.002,0.249,0.02,0.374,0.02c5.414,0,10.296-2.244,13.793-5.847c3.497,3.603,8.38,5.847,13.792,5.847
		c10.625,0,19.24-8.619,19.24-19.25C122.495,9.867,113.88,1.251,103.255,1.251z"/>
	<text transform="matrix(0.9994 0 0 1 26.2363 24.7222)"><tspan x="0" y="0" fill="#585A5E" font-family="'Calibre-Medium'" font-size="14.3093" letter-spacing="1.001">ENDPO</tspan><tspan x="46.991" y="0" fill="#585A5E" font-family="'Calibre-Medium'" font-size="14.3093">I</tspan><tspan x="51.413" y="0" fill="#585A5E" font-family="'Calibre-Medium'" font-size="14.3093" letter-spacing="1.001">N</tspan><tspan x="61.429" y="0" fill="#585A5E" font-family="'Calibre-Medium'" font-size="14.3093">T</tspan></text>
</g>
</svg>
