<?xml version="1.0" encoding="utf-8"?>
<!-- Generator: Adobe Illustrator 16.0.4, SVG Export Plug-In . SVG Version: 6.00 Build 0)  -->
<!DOCTYPE svg PUBLIC "-//W3C//DTD SVG 1.0//EN" "http://www.w3.org/TR/2001/REC-SVG-20010904/DTD/svg10.dtd">
<svg version="1.0" id="Layer_1" xmlns="http://www.w3.org/2000/svg" xmlns:xlink="http://www.w3.org/1999/xlink" x="0px" y="0px"
	 width="56px" height="51px" viewBox="0 0 56 51" enable-background="new 0 0 56 51" xml:space="preserve">
<g>
	<path fill-rule="evenodd" clip-rule="evenodd" fill="#B3B3B3" d="M28.025,12.47c2.33,0,4.665,0.007,6.995-0.007
		c0.37-0.002,0.582,0.099,0.775,0.43c2.344,4.069,4.693,8.132,7.058,12.189c0.178,0.303,0.183,0.524,0.005,0.83
		c-2.364,4.058-4.719,8.12-7.063,12.182c-0.188,0.331-0.401,0.439-0.775,0.439c-4.68-0.015-9.359-0.015-14.038,0
		c-0.351,0-0.553-0.108-0.73-0.414c-2.315-4.082-4.646-8.159-6.985-12.227c-0.163-0.286-0.163-0.5,0-0.789
		c2.334-4.07,4.665-8.144,6.985-12.224c0.173-0.308,0.375-0.417,0.725-0.417C23.331,12.477,25.68,12.47,28.025,12.47z
		 M28.064,31.401c3.317,0.005,5.898-2.562,5.913-5.869c0.015-3.35-2.567-5.939-5.903-5.942c-3.317,0-5.904,2.567-5.914,5.874
		C22.146,28.81,24.728,31.401,28.064,31.401z"/>
	<path fill-rule="evenodd" clip-rule="evenodd" fill="#B3B3B3" d="M47.334,10.115c-0.326,0-0.552,0-0.785,0
		c-8.86,0-17.721,0.005-26.581-0.013c-0.558,0-0.873,0.139-1.169,0.657c-2.222,3.937-4.482,7.851-6.732,11.772
		c-0.104,0.18-0.218,0.351-0.355,0.575c-0.948-1.663-1.861-3.263-2.774-4.867c-0.721-1.273-1.437-2.547-2.171-3.811
		c-0.168-0.281-0.183-0.488-0.015-0.785c1.915-3.403,3.796-6.821,5.726-10.223c1.032-1.814,2.611-2.776,4.729-2.776
		c7.26,0,14.526-0.002,21.788,0.002c2.019,0,3.568,0.908,4.575,2.628c1.255,2.14,2.419,4.334,3.624,6.503
		C47.236,9.861,47.266,9.95,47.334,10.115z"/>
	<path fill-rule="evenodd" clip-rule="evenodd" fill="#B3B3B3" d="M5.122,16.544c1.649,2.833,3.253,5.595,4.847,8.359
		c2.997,5.18,5.987,10.358,8.969,15.545c0.188,0.331,0.39,0.439,0.765,0.439c4.586-0.02,9.167-0.011,13.752-0.011
		c0.208,0,0.419,0,0.706,0c-0.099,0.202-0.158,0.356-0.237,0.499c-1.673,2.853-3.352,5.701-5.016,8.564
		c-0.177,0.306-0.374,0.414-0.725,0.414c-3.752-0.015-7.508,0.006-11.259-0.015c-1.955-0.005-3.47-0.858-4.433-2.552
		C8.774,41.253,5.078,34.703,1.4,28.143c-0.918-1.644-0.947-3.375-0.05-5.031c1.165-2.147,2.41-4.25,3.624-6.37
		C5.003,16.692,5.043,16.65,5.122,16.544z"/>
	<path fill-rule="evenodd" clip-rule="evenodd" fill="#B3B3B3" d="M31.529,50.345c0.114-0.207,0.174-0.326,0.243-0.439
		c4.61-8.021,9.221-16.047,13.846-24.058c0.202-0.349,0.088-0.564-0.074-0.838c-2.271-3.949-4.542-7.905-6.807-11.861
		c-0.108-0.193-0.208-0.39-0.345-0.647c0.251-0.017,0.419-0.03,0.586-0.03c3.08-0.002,6.161,0.008,9.245-0.012
		c0.425-0.003,0.642,0.148,0.844,0.511c1.812,3.285,3.633,6.562,5.469,9.838c1.046,1.858,1.012,3.71-0.02,5.546
		c-2.769,4.927-5.558,9.853-8.337,14.773c-0.824,1.462-1.639,2.923-2.473,4.374c-1.076,1.876-2.675,2.858-4.867,2.847
		C36.436,50.34,34.032,50.345,31.529,50.345z"/>
</g>
</svg>
