<?xml version="1.0" encoding="utf-8"?>
<!-- Generator: Adobe Illustrator 16.0.4, SVG Export Plug-In . SVG Version: 6.00 Build 0)  -->
<!DOCTYPE svg PUBLIC "-//W3C//DTD SVG 1.0//EN" "http://www.w3.org/TR/2001/REC-SVG-20010904/DTD/svg10.dtd">
<svg version="1.0" id="Layer_1" xmlns="http://www.w3.org/2000/svg" xmlns:xlink="http://www.w3.org/1999/xlink" x="0px" y="0px"
	 width="46px" height="46px" viewBox="0 0 46 46" enable-background="new 0 0 46 46" xml:space="preserve">
<g>
	<g>
		<path fill-rule="evenodd" clip-rule="evenodd" fill="#B3B3B3" d="M45.252,0.752c0,14.836,0,29.657,0,44.495
			c-14.836,0-29.667,0-44.504,0c0-14.829,0-29.656,0-44.495C15.58,0.752,30.405,0.752,45.252,0.752z M13.549,21.606
			c0-4.001,0-7.975,0-11.966c0.93,0,1.849,0,2.757,0c0-1.209,0-2.405,0-3.597c-3.149,0-6.289,0-9.434,0c0,1.205,0,2.399,0,3.608
			c0.922,0,1.843,0,2.761,0c0,3.992,0,7.967,0,11.959c-0.928,0-1.843,0-2.761,0c0,1.212,0,2.407,0,3.608c3.154,0,6.289,0,9.434,0
			c0-1.205,0-2.402,0-3.613C15.384,21.606,14.474,21.606,13.549,21.606z M19.388,22.672c0.009,0.023,0.02,0.038,0.028,0.049
			c0.871,1.044,1.918,1.85,3.201,2.326c1.448,0.541,2.942,0.575,4.446,0.29c2.173-0.416,3.652-1.651,4.363-3.759
			c0.365-1.075,0.473-2.189,0.473-3.317c0.005-4.013,0.005-8.023,0.005-12.035c0-0.06,0-0.12,0-0.185c-1.405,0-2.781,0-4.181,0
			c0,0.085,0,0.162,0,0.239c0,3.996,0.003,7.991,0,11.984c0,0.41-0.035,0.822-0.095,1.228c-0.078,0.535-0.27,1.036-0.649,1.438
			c-0.589,0.629-1.355,0.746-2.166,0.649c-0.836-0.1-1.519-0.528-2.132-1.085c-0.256-0.234-0.497-0.481-0.758-0.729
			C21.079,20.731,20.232,21.699,19.388,22.672z M5.2,39.126c5.563,0,11.121,0,16.669,0c0-0.928,0-1.844,0-2.756
			c-5.563,0-11.117,0-16.669,0C5.2,37.294,5.2,38.203,5.2,39.126z"/>
	</g>
</g>
</svg>
