<?xml version="1.0" encoding="utf-8"?>
<!-- Generator: Adobe Illustrator 16.0.4, SVG Export Plug-In . SVG Version: 6.00 Build 0)  -->
<!DOCTYPE svg PUBLIC "-//W3C//DTD SVG 1.0//EN" "http://www.w3.org/TR/2001/REC-SVG-20010904/DTD/svg10.dtd">
<svg version="1.0" id="Layer_1" xmlns="http://www.w3.org/2000/svg" xmlns:xlink="http://www.w3.org/1999/xlink" x="0px" y="0px"
	 width="55px" height="54px" viewBox="0 0 55 54" enable-background="new 0 0 55 54" xml:space="preserve">
<g>
	<path fill-rule="evenodd" clip-rule="evenodd" fill="#B3B3B3" d="M54.55,32.244c-1.519-6.593-3.034-13.186-4.552-19.778
		c-0.277-1.202-0.975-2.064-2.092-2.597c-6.109-2.912-12.217-5.828-18.323-8.748c-1.137-0.542-2.258-0.563-3.403-0.014
		c-6.104,2.922-12.212,5.836-18.321,8.75C6.7,10.407,6.011,11.3,5.726,12.55c-1.499,6.558-3.009,13.113-4.524,19.667
		c-0.275,1.188-0.023,2.236,0.731,3.175c4.24,5.269,8.483,10.537,12.721,15.808c0.792,0.986,1.792,1.474,3.068,1.467
		c3.351-0.019,6.703-0.006,10.055-0.006c3.428,0,6.856,0.003,10.284-0.001c1.194-0.002,2.204-0.429,2.964-1.375
		c4.257-5.288,8.513-10.578,12.767-15.87C54.543,34.481,54.822,33.428,54.55,32.244z M46.438,32.922
		c-0.483,0.027-0.921-0.146-1.357-0.324c-0.704-0.288-1.416-0.547-2.166-0.698c-0.216-0.044-0.399-0.015-0.583,0.086
		c-0.088,0.048-0.173,0.138-0.278,0.096c-0.416-0.17-0.435,0.145-0.53,0.403c-1.15,3.131-3.12,5.607-5.937,7.402
		c-0.216,0.138-0.378,0.253-0.207,0.528c0.031,0.049,0.06,0.132,0.038,0.175c-0.221,0.465,0.036,0.836,0.234,1.214
		c0.301,0.574,0.662,1.11,1.034,1.641c0.262,0.374,0.509,0.761,0.522,1.243c0.014,0.477-0.186,0.837-0.61,1.055
		c-0.394,0.201-0.877,0.11-1.23-0.22c-0.327-0.306-0.477-0.711-0.603-1.126c-0.237-0.776-0.474-1.551-0.84-2.279
		c-0.114-0.227-0.262-0.402-0.509-0.481c-0.071-0.024-0.159-0.032-0.187-0.115c-0.133-0.407-0.388-0.29-0.681-0.193
		c-3.152,1.045-6.301,1.031-9.438-0.065c-0.24-0.083-0.431-0.142-0.529,0.17c-0.026,0.085-0.082,0.159-0.179,0.182
		c-0.396,0.094-0.56,0.415-0.7,0.744c-0.282,0.666-0.512,1.35-0.714,2.043c-0.104,0.355-0.232,0.699-0.468,0.99
		c-0.386,0.475-0.946,0.607-1.424,0.343c-0.476-0.263-0.683-0.864-0.485-1.425c0.128-0.362,0.328-0.684,0.551-0.995
		c0.426-0.6,0.815-1.224,1.135-1.889c0.116-0.24,0.167-0.475,0.069-0.731c-0.026-0.068-0.077-0.145-0.026-0.216
		c0.292-0.417-0.032-0.542-0.314-0.728c-2.728-1.794-4.673-4.213-5.786-7.29c-0.092-0.256-0.169-0.487-0.514-0.367
		c-0.024,0.008-0.055,0.015-0.075,0.006c-1.075-0.476-1.958,0.201-2.9,0.491c-0.41,0.126-0.803,0.32-1.238,0.353
		c-0.791,0.058-1.371-0.513-1.263-1.246c0.067-0.457,0.366-0.739,0.781-0.906c0.381-0.154,0.787-0.194,1.192-0.209
		c0.687-0.028,1.364-0.118,2.036-0.254c0.282-0.057,0.535-0.161,0.693-0.42c0.071-0.116,0.171-0.189,0.304-0.204
		c0.269-0.029,0.267-0.196,0.241-0.408c-0.388-3.125,0.231-6.051,1.747-8.798c0.08-0.144,0.158-0.29,0.248-0.428
		c0.177-0.271,0.433-0.538-0.017-0.792c-0.278-1.151-1.375-1.398-2.182-1.96c-0.331-0.231-0.7-0.408-0.994-0.694
		c-0.445-0.433-0.528-1.077-0.198-1.519c0.354-0.472,0.979-0.576,1.536-0.25c0.389,0.228,0.687,0.56,0.98,0.894
		c0.454,0.516,0.95,0.986,1.488,1.412c0.198,0.157,0.407,0.255,0.665,0.223c0.087-0.01,0.188-0.032,0.255,0.039
		c0.267,0.287,0.431,0.105,0.637-0.099c2.414-2.39,5.321-3.751,8.693-4.12c0.208-0.023,0.292-0.081,0.28-0.291
		c-0.005-0.083,0.019-0.195,0.074-0.248c0.357-0.344,0.317-0.778,0.297-1.234c0.016-0.779-0.203-1.559-0.254-2.355
		C26.739,8.8,26.734,8.52,26.842,8.252c0.204-0.505,0.685-0.82,1.154-0.756c0.503,0.071,0.922,0.534,0.983,1.07
		c0.083,0.733-0.154,1.434-0.198,2.152c-0.024,0.392-0.036,0.785-0.056,1.176c-0.013,0.279,0.045,0.528,0.268,0.722
		c0.044,0.039,0.096,0.109,0.089,0.158c-0.046,0.423,0.244,0.429,0.538,0.469c3.321,0.439,6.167,1.848,8.534,4.217
		c0.143,0.143,0.253,0.184,0.41,0.042c0.084-0.075,0.178-0.158,0.303-0.14c0.475,0.069,0.789-0.219,1.103-0.498
		c0.475-0.421,0.92-0.875,1.343-1.35c0.246-0.276,0.515-0.529,0.838-0.711c0.507-0.284,1.116-0.178,1.45,0.241
		c0.33,0.413,0.311,0.991-0.058,1.436c-0.272,0.329-0.628,0.548-0.998,0.75c-0.658,0.359-1.292,0.756-1.875,1.229
		c-0.193,0.157-0.34,0.338-0.354,0.604c-0.003,0.071-0.025,0.178-0.074,0.205c-0.452,0.255-0.201,0.515-0.032,0.797
		c1.721,2.854,2.431,5.934,2.044,9.254c-0.022,0.188-0.017,0.323,0.214,0.354c0.081,0.011,0.188,0.055,0.229,0.119
		c0.331,0.526,0.886,0.549,1.407,0.62c0.727,0.1,1.463,0.137,2.19,0.24c0.574,0.081,1.046,0.353,1.187,0.969
		C47.634,32.274,47.135,32.881,46.438,32.922z"/>
	<g>
		<path fill-rule="evenodd" clip-rule="evenodd" fill="#B3B3B3" d="M32.957,30.554c0.894,0.147,1.906,0.312,2.917,0.482
			c0.849,0.143,1.697,0.302,2.547,0.432c0.248,0.038,0.33,0.085,0.224,0.348c-0.89,2.216-2.301,4.01-4.275,5.361
			c-0.197,0.134-0.271,0.124-0.366-0.11c-0.677-1.666-1.375-3.324-2.057-4.989C31.603,31.236,32.018,30.538,32.957,30.554z"/>
		<path fill-rule="evenodd" clip-rule="evenodd" fill="#B3B3B3" d="M26.437,16.589c-0.093,1.688-0.186,3.385-0.282,5.082
			c-0.027,0.467-0.104,0.914-0.584,1.155c-0.401,0.201-0.763,0.1-1.105-0.142c-1.294-0.916-2.588-1.833-3.882-2.75
			c-0.186-0.132-0.363-0.28-0.561-0.392c-0.222-0.128-0.208-0.222-0.029-0.388c1.144-1.053,2.442-1.851,3.907-2.377
			c0.704-0.253,1.428-0.429,2.166-0.562C26.441,16.147,26.531,16.239,26.437,16.589z"/>
		<path fill-rule="evenodd" clip-rule="evenodd" fill="#B3B3B3" d="M18.048,21.586c1.277,1.143,2.554,2.283,3.828,3.425
			c0.206,0.186,0.416,0.373,0.593,0.585c0.452,0.541,0.282,1.271-0.382,1.527c-0.529,0.206-1.086,0.34-1.633,0.499
			c-1.241,0.361-2.486,0.708-3.722,1.083c-0.278,0.083-0.326,0.022-0.359-0.247C16.111,26.374,16.905,23.063,18.048,21.586z"/>
		<path fill-rule="evenodd" clip-rule="evenodd" fill="#B3B3B3" d="M37.697,21.583c0.916,1.5,1.452,3.106,1.647,4.83
			c0.077,0.669,0.09,1.34,0.051,2.014c-0.015,0.257-0.077,0.345-0.366,0.26c-1.688-0.502-3.381-0.981-5.074-1.466
			c-0.436-0.125-0.806-0.335-0.912-0.817c-0.103-0.466,0.13-0.8,0.461-1.095c1.296-1.156,2.59-2.316,3.886-3.474
			C37.484,21.75,37.585,21.675,37.697,21.583z"/>
		<path fill-rule="evenodd" clip-rule="evenodd" fill="#B3B3B3" d="M24.191,38.538c0.737-1.333,1.46-2.64,2.182-3.946
			c0.195-0.355,0.387-0.711,0.589-1.062c0.46-0.802,1.334-0.83,1.812-0.022c0.644,1.09,1.237,2.209,1.851,3.316
			c0.313,0.563,0.622,1.13,0.949,1.723C29.102,39.342,26.664,39.356,24.191,38.538z"/>
		<path fill-rule="evenodd" clip-rule="evenodd" fill="#B3B3B3" d="M23.938,31.603c-0.041,0.143-0.079,0.356-0.16,0.554
			c-0.664,1.615-1.339,3.225-1.998,4.842c-0.101,0.247-0.162,0.31-0.411,0.137c-1.917-1.331-3.309-3.077-4.203-5.228
			c-0.124-0.297-0.062-0.386,0.25-0.437c1.735-0.28,3.468-0.579,5.201-0.876C23.34,30.471,23.947,30.896,23.938,31.603z"/>
		<path fill-rule="evenodd" clip-rule="evenodd" fill="#B3B3B3" d="M30.627,22.899c-0.528-0.005-0.905-0.291-0.976-0.779
			c-0.073-0.513-0.094-1.034-0.125-1.552c-0.083-1.366-0.157-2.732-0.238-4.098c-0.012-0.207-0.007-0.322,0.278-0.276
			c2.343,0.375,4.386,1.362,6.143,2.954c0.17,0.154,0.207,0.238-0.01,0.391c-1.464,1.025-2.919,2.063-4.378,3.095
			C31.101,22.788,30.866,22.912,30.627,22.899z"/>
		<path fill-rule="evenodd" clip-rule="evenodd" fill="#B3B3B3" d="M29.852,27.227c-0.124,0.546-0.234,1.053-0.356,1.556
			c-0.016,0.062-0.09,0.117-0.147,0.162c-0.049,0.038-0.113,0.056-0.169,0.083c-0.434,0.206-0.873,0.581-1.302,0.571
			c-0.461-0.012-0.914-0.389-1.374-0.599c-0.162-0.073-0.285-0.163-0.286-0.357c0-0.013-0.006-0.025-0.008-0.038
			c-0.374-1.458-0.371-1.456,0.586-2.609c0.133-0.161,0.268-0.229,0.481-0.231c1.521-0.012,1.521-0.016,2.439,1.206
			C29.782,27.058,29.886,27.131,29.852,27.227z"/>
	</g>
</g>
<g>
	<path fill="#B3B3B3" d="M22.218,27.179c0.322-0.396,0.292-1.005-0.104-1.329l-4.282-3.81c-1.298,2.121-1.834,4.602-1.622,7.047
		l5.574-1.622C21.967,27.435,22.113,27.325,22.218,27.179z"/>
	<path fill="#B3B3B3" d="M22.577,30.814l-5.715,0.969c0.86,2.372,2.477,4.354,4.494,5.652l2.191-5.292
		c0.078-0.178,0.078-0.36,0.036-0.574C23.479,31.1,23.045,30.776,22.577,30.814z"/>
	<path fill="#B3B3B3" d="M24.772,23.406c0.542,0,0.937-0.433,0.975-0.939l0.322-5.751c-0.401,0.068-0.755,0.146-1.153,0.214
		c-2.049,0.469-3.884,1.475-5.359,2.951l4.78,3.421C24.448,23.368,24.631,23.406,24.772,23.406z"/>
	<path fill="#B3B3B3" d="M29.381,23.01c0.318,0.396,0.86,0.469,1.257,0.213l4.708-3.342c-1.726-1.725-3.995-2.842-6.472-3.128
		l0.324,5.86C29.229,22.759,29.271,22.9,29.381,23.01z"/>
	<polygon fill="#B3B3B3" points="25.888,29.198 27.467,29.947 29.052,29.198 29.413,27.482 28.333,26.097 26.571,26.097 
		25.492,27.482 	"/>
	<path fill="#B3B3B3" d="M54.413,32.289l-4.5-19.53c-0.288-1.294-1.147-2.341-2.336-2.915L29.376,1.173
		c-0.574-0.287-1.221-0.427-1.869-0.427c-0.65,0-1.296,0.141-1.87,0.427L7.435,9.881c-1.183,0.573-2.048,1.616-2.335,2.914
		L0.605,32.326c-0.33,1.293,0,2.627,0.824,3.665l12.591,15.653c0.824,1.038,2.049,1.611,3.343,1.611l20.288-0.031
		c1.292,0,2.517-0.615,3.341-1.622L53.584,35.96C54.413,34.911,54.7,33.582,54.413,32.289z M45.595,32.973
		c-0.103,0-0.176,0-0.286-0.037c-0.037-0.037-0.073-0.037-0.105-0.037c-0.072,0-0.146-0.031-0.218-0.031
		c-0.25-0.079-0.433-0.335-0.647-0.44c-0.11-0.036-0.219-0.33-0.322-0.33H43.98c-0.683,0-1.298,0-1.872-1h-0.073
		c-0.212,0-0.322,0.521-0.465,0.593c-0.036,0-0.036,0.245-0.072,0.245l-0.433,0.032c-0.359,1.115-0.861,2.283-1.506,3.295
		c-1.226,1.939-2.847,3.545-4.75,4.661l0.177,0.446c0,0.037-0.031,0.043-0.031,0.079c-0.042,0.177-0.273,0.327-0.205,0.577
		c0.182,0.538,0.774,1.083,0.774,1.693v0.036c0,0.11,0.31,0.182,0.377,0.286c0.146,0.182,0.369,0.36,0.478,0.579
		c0.037,0.037,0.114,0.105,0.151,0.177c0,0.037,0.056,0.037,0.056,0.073c0.142,0.287,0.151,0.611,0.079,0.903
		c-0.068,0.286-0.276,0.501-0.532,0.646c-0.141,0.067-0.285,0.104-0.43,0.104c-0.427,0-0.858-0.25-1.078-0.682
		c0,0-0.035-0.038-0.035-0.068c-0.036-0.073-0.068-0.11-0.104-0.182c-0.11-0.214-0.465-0.434-0.532-0.647
		c-0.042-0.11,0.571-0.219-0.429-0.324v-0.036c0-0.683-0.151-1.297-0.437-1.798c-0.147-0.219-0.132-0.287-0.311-0.323
		c-0.036-0.037,0.043-0.037,0.008-0.037l-0.175-0.396c-0.61,0.214-1.206,0.396-1.853,0.538c-1.005,0.255-2.074,0.359-3.118,0.359
		c-1.726,0-3.445-0.323-5.031-0.928L22.36,41.46c-0.037,0.036-0.035,0.036-0.071,0.036c-0.142,0.068-0.323,0.105-0.463,0.323
		c-0.324,0.506-0.505,1.079-0.756,1.798c-0.037,0.105-0.073,0.214-0.109,0.324c-0.073,0.213-0.11,0.396-0.214,0.647
		c-0.036,0.036-0.074,0.109-0.11,0.182c0,0-0.036,0.03-0.036,0.068c-0.214,0.395-0.647,0.682-1.079,0.682
		c-0.142,0-0.289-0.037-0.434-0.104c-0.536-0.256-0.755-0.938-0.463-1.549c0,0,0.031-0.036,0.031-0.073
		c0.036-0.072,0.074-0.141,0.11-0.177c0.146-0.218-0.178-0.396-0.031-0.579c0.071-0.104-0.21-0.176-0.21-0.286v-0.036
		c1-0.611,1.143-1.152,1.361-1.69c0.073-0.25,0.214-0.432,0.142-0.573c0-0.036,0.07-0.036,0.07-0.074l0.272-0.468
		c-0.542-0.323-1.016-0.647-1.521-1.038c-2.195-1.731-3.834-4.103-4.701-6.768L13.65,32.18c-0.033,0-0.029-0.47-0.066-0.47
		c-0.109-0.073-0.251-0.612-0.465-0.612h-0.073c-0.574,1-1.184,1-1.867,1h-0.037c-0.109,0-0.219,0.312-0.323,0.349
		c-0.219,0.109-0.396,0.28-0.646,0.352c-0.079,0-0.147,0.087-0.219,0.087c0,0.036-0.037,0.062-0.073,0.062
		c-0.11,0.036-0.178,0.049-0.288,0.049c-0.573,0-1.042-0.316-1.151-0.823c-0.11-0.573,0.292-1.179,0.938-1.326
		c0.037-0.036,0.067-0.035,0.104-0.035c0.073,0,0.147-0.036,0.219-0.036c0.25-0.036,0.47-0.357,0.683-0.357
		c0.11-0.036,0.25-0.321,0.36-0.321h0.036c0.751,0,1.403,0.144,1.94-0.038c0.219-0.109,0.323-0.107,0.396-0.254
		c0-0.036,0.036,0.035,0.036,0.004l0.47-0.111c-0.47-3.305,0.213-6.634,2.013-9.476c0.036-0.11,0.144-0.173,0.216-0.283
		l-0.329-0.309v-0.073c0-0.182-0.035-0.36-0.213-0.542c-0.432-0.396-0.986-0.714-1.638-1.116c-0.104-0.073-0.222-0.14-0.333-0.176
		c-0.213-0.11-0.395-0.22-0.614-0.36c-0.073-0.036-0.105-0.11-0.18-0.146c-0.036,0-0.037-0.032-0.074-0.032
		c-0.506-0.432-0.611-1.152-0.256-1.621c0.182-0.25,0.505-0.396,0.829-0.396c0.287,0,0.579,0.108,0.792,0.287
		c0,0.036,0.038,0.036,0.074,0.072c0.067,0.074,0.146,0.111,0.176,0.147c0.184,0.183,0.33,0.324,0.47,0.505
		c0.11,0.069,0.182,0.178,0.256,0.245c0.5,0.542,0.964,1.011,1.438,1.335c0.105,0.067,0.209,0.244,0.319,0.244
		c0.072,0,0.146,0.094,0.219,0.094h0.073l0.354,0.12c1.909-2.013,4.354-3.487,7.122-4.099c0.652-0.14,1.299-0.248,1.945-0.32
		l0.037-0.48c0.036-0.043,0.036-0.051,0.073-0.087c0.104-0.104,0.227-0.219,0.263-0.468c0.074-0.574-0.132-1.229-0.132-1.95v-0.036
		c0-0.142,0.051-0.25,0.015-0.36c-0.067-0.214-0.015-0.429-0.015-0.678V9.521V9.447c0-0.322,0.038-0.609,0.258-0.823
		c0.213-0.213,0.42-0.365,0.711-0.365c0.611,0,1.031,0.543,1.031,1.188v0.11v0.215c0,0.25,0.015,0.468-0.017,0.683
		c-0.036,0.11,0.017,0.256,0.017,0.359v0.042c0,0.714-0.187,1.36-0.151,1.939c0.036,0.25,0.162,0.36,0.267,0.464
		c0.037,0.042,0.026,0.042,0.063,0.073l0.031,0.469c2.731,0.25,5.357,1.293,7.516,2.983c0.501,0.433,1.006,0.98,1.474,1.485
		l0.427-0.172h0.073c0.073,0,0.146-0.083,0.22-0.083c0.103,0,0.214-0.089,0.323-0.161c0.463-0.328,0.934-0.786,1.438-1.328
		c0.105-0.073,0.178-0.192,0.25-0.265c0.142-0.178,0.287-0.331,0.465-0.507c0.072-0.042,0.11-0.113,0.182-0.151
		c0.037-0.036,0.037-0.037,0.074-0.074c0.25-0.182,0.5-0.288,0.792-0.288c0.323,0,0.646,0.14,0.823,0.396
		c0.36,0.463,0.251,1.184-0.25,1.616c0,0.036-0.036,0.035-0.074,0.073c-0.067,0.072-0.141,0.108-0.177,0.141
		c-0.219,0.146-0.396,0.256-0.615,0.359c-0.105,0.073-0.213,0.109-0.323,0.183c-0.646,0.396-1.201,0.719-1.633,1.115
		c-0.146,0.182-0.194,0.36-0.194,0.537v0.078l-0.343,0.318c0.934,1.439,1.625,3.024,2.021,4.714
		c0.396,1.688,0.468,3.419,0.253,5.071l0.473,0.147c0,0.031,0.037,0.031,0.037,0.067c0.068,0.147,0.142-0.053,0.392,0.057
		c0.579,0.178,1.189-0.017,1.946-0.017h0.036c0.141,0,0.25,0.377,0.36,0.377c0.213,0,0.433,0.205,0.682,0.243
		c0.073,0,0.147-0.314,0.213-0.314c0,0.038,0.038-0.306,0.074-0.306h0.009c0,0,0.009,0,0.027,0c0.647,1,1.043,1.185,1.043,1.617
		C46.603,32.184,46.139,32.973,45.595,32.973z"/>
	<path fill="#B3B3B3" d="M27.832,33.259c-0.396-0.214-0.865-0.074-1.152,0.25l-2.842,5.146c1.153,0.358,2.374,0.573,3.63,0.573
		c0.866,0,1.695-0.11,2.523-0.286c0.355-0.11,0.714-0.179,1.038-0.287l-2.764-5.001C28.156,33.509,28.01,33.369,27.832,33.259z"/>
	<path fill="#B3B3B3" d="M37.077,22.041l-4.354,3.921c-0.108,0.103-0.182,0.25-0.218,0.389c-0.104,0.505,0.182,1.011,0.688,1.151
		l5.5,1.585c0.104-1.189,0.036-2.415-0.25-3.632C38.151,24.198,37.687,23.046,37.077,22.041z"/>
	<path fill="#B3B3B3" d="M31.784,30.886c-0.432,0.214-0.609,0.684-0.5,1.111l2.268,5.438c1.361-0.902,2.551-2.053,3.453-3.493
		c0.464-0.683,0.829-1.404,1.042-2.19l-5.756-0.976C32.108,30.776,31.931,30.814,31.784,30.886z"/>
</g>
</svg>
