<?xml version="1.0" encoding="utf-8"?>
<!-- Generator: Adobe Illustrator 16.0.4, SVG Export Plug-In . SVG Version: 6.00 Build 0)  -->
<!DOCTYPE svg PUBLIC "-//W3C//DTD SVG 1.0//EN" "http://www.w3.org/TR/2001/REC-SVG-20010904/DTD/svg10.dtd">
<svg version="1.0" id="Layer_1" xmlns="http://www.w3.org/2000/svg" xmlns:xlink="http://www.w3.org/1999/xlink" x="0px" y="0px"
	 width="125px" height="33px" viewBox="0 0 125 33" enable-background="new 0 0 125 33" xml:space="preserve">
<g>
	<rect x="1.551" y="1.411" fill="none" stroke="#585A5E" stroke-miterlimit="10" width="121.898" height="30.177"/>
	<g>
		<g>
			<path fill="#585A5E" d="M33.956,18.604h1.516c0.276,0.878,0.939,1.316,1.988,1.316c0.515,0,0.927-0.117,1.236-0.351
				c0.311-0.233,0.465-0.551,0.465-0.952c0-0.314-0.098-0.565-0.293-0.751s-0.521-0.332-0.979-0.437l-1.487-0.358
				c-1.459-0.343-2.188-1.13-2.188-2.361c0-0.753,0.279-1.376,0.837-1.867s1.275-0.737,2.152-0.737c0.925,0,1.671,0.217,2.238,0.651
				s0.932,1.028,1.094,1.781h-1.487c-0.276-0.782-0.887-1.173-1.83-1.173c-0.478,0-0.86,0.112-1.151,0.336s-0.437,0.518-0.437,0.88
				c0,0.582,0.387,0.964,1.158,1.145l1.53,0.357c0.716,0.163,1.273,0.449,1.674,0.859s0.601,0.935,0.601,1.574
				c0,0.811-0.291,1.458-0.872,1.939c-0.582,0.482-1.335,0.723-2.26,0.723c-0.935,0-1.714-0.227-2.339-0.68
				C34.497,20.046,34.108,19.415,33.956,18.604z"/>
			<path fill="#585A5E" d="M43.065,12.25H48.8v1.317h-4.275v2.318h3.875v1.302h-3.875v2.519H48.8v1.331h-5.734V12.25z"/>
			<path fill="#585A5E" d="M53.962,17.473h-1.058v3.563h-1.487V12.25h3.39c0.924,0,1.653,0.227,2.188,0.68
				c0.534,0.454,0.801,1.104,0.801,1.954c0,0.725-0.198,1.3-0.594,1.724s-0.946,0.694-1.651,0.809l2.546,3.62h-1.688L53.962,17.473z
				 M52.904,13.538v2.69h1.873c0.486,0,0.865-0.122,1.137-0.365c0.272-0.243,0.408-0.57,0.408-0.98s-0.136-0.737-0.408-0.98
				c-0.271-0.243-0.65-0.365-1.137-0.365H52.904z"/>
			<path fill="#585A5E" d="M64.401,21.036h-1.416l-3.317-8.786h1.559l2.488,6.854l2.488-6.854h1.517L64.401,21.036z"/>
			<path fill="#585A5E" d="M71.466,12.25v8.786h-1.487V12.25H71.466z"/>
			<path fill="#585A5E" d="M75.076,19.913c-0.758-0.845-1.137-1.934-1.137-3.27c0-1.335,0.379-2.425,1.137-3.27
				s1.709-1.267,2.853-1.267c0.973,0,1.769,0.26,2.389,0.78c0.619,0.52,1.016,1.228,1.187,2.125h-1.458
				c-0.382-1.04-1.087-1.56-2.117-1.56c-0.763,0-1.368,0.298-1.816,0.895s-0.672,1.362-0.672,2.296c0,0.935,0.224,1.701,0.672,2.297
				s1.054,0.894,1.816,0.894c1.03,0,1.735-0.524,2.117-1.574h1.458c-0.171,0.906-0.567,1.619-1.187,2.139
				c-0.62,0.52-1.416,0.78-2.389,0.78C76.785,21.179,75.834,20.757,75.076,19.913z"/>
			<path fill="#585A5E" d="M83.95,12.25h5.734v1.317h-4.275v2.318h3.875v1.302h-3.875v2.519h4.275v1.331H83.95V12.25z"/>
		</g>
	</g>
</g>
</svg>
