<svg id="Layer_1" data-name="Layer 1" xmlns="http://www.w3.org/2000/svg" viewBox="0 0 30 100"><defs><style>.cls-1{fill:#585556;}</style></defs><title>btn-binary</title><path class="cls-1" d="M18.38,92.81H11V90.22a3.55,3.55,0,0,1,1-2.65,3.66,3.66,0,0,1,2.69-1,3.65,3.65,0,0,1,2.69,1,3.55,3.55,0,0,1,1,2.65ZM17,91.3v-1a2.06,2.06,0,0,0-.63-1.61,2.45,2.45,0,0,0-1.71-.57,2.46,2.46,0,0,0-1.72.57,2.07,2.07,0,0,0-.62,1.61v1Z"/><path class="cls-1" d="M18.38,83.7H11v-5h1.34v3.49H14V79h1.29v3.17H17V78.7h1.34Z"/><path class="cls-1" d="M18.38,75.72H11v-3a2.73,2.73,0,0,1,.63-1.89,2.27,2.27,0,0,1,1.78-.7,2.25,2.25,0,0,1,1.77.7,2.74,2.74,0,0,1,.63,1.89V74.2h2.57ZM14.52,74.2V72.82a1.19,1.19,0,0,0-.3-.88,1.08,1.08,0,0,0-.8-.3,1.09,1.09,0,0,0-.81.3,1.2,1.2,0,0,0-.3.88V74.2Z"/><path class="cls-1" d="M18.38,67.29H11V65.76h6V62.33h1.34Z"/><path class="cls-1" d="M14.69,60.09a4.27,4.27,0,0,1-2-.44,3.29,3.29,0,0,1-1.35-1.23,3.6,3.6,0,0,1,0-3.61,3.29,3.29,0,0,1,1.36-1.23,4.57,4.57,0,0,1,3.91,0A3.31,3.31,0,0,1,18,54.8a3.57,3.57,0,0,1,0,3.61,3.32,3.32,0,0,1-1.36,1.24A4.27,4.27,0,0,1,14.69,60.09ZM12.93,58a2.77,2.77,0,0,0,1.76.52A2.79,2.79,0,0,0,16.45,58a1.68,1.68,0,0,0,.67-1.39,1.71,1.71,0,0,0-.67-1.41,2.75,2.75,0,0,0-1.76-.53,2.75,2.75,0,0,0-1.76.53,1.71,1.71,0,0,0-.67,1.41A1.68,1.68,0,0,0,12.93,58Z"/><path class="cls-1" d="M11,51.35V49.68l3.12-1.78L11,46.13V44.51l4.57,2.68h2.79V48.7H15.58Z"/><path class="cls-1" d="M18.38,41.86H11V40l5.19-2-5.19-2V34.33h7.36v1.44H13.57l4.81,1.79v1l-4.81,1.82h4.81Z"/><path class="cls-1" d="M18.38,31.1H11v-5h1.34v3.49H14V26.42h1.29v3.17H17V26.1h1.34Z"/><path class="cls-1" d="M18.38,23.11H11V21.66l4.65-3.25H11V16.93h7.36v1.22l-4.91,3.48h4.91Z"/><path class="cls-1" d="M12.36,14.14H11V7.84h1.34v2.38h6v1.54h-6Z"/></svg>