<svg id="Layer_1" data-name="Layer 1" xmlns="http://www.w3.org/2000/svg" viewBox="0 0 30 100"><defs><style>.cls-1{fill:#585556;}</style></defs><title>btn-source</title><path class="cls-1" d="M16.28,74.5V72.92a1.36,1.36,0,0,0,1-1.47,1.5,1.5,0,0,0-.24-.9.8.8,0,0,0-.68-.33.69.69,0,0,0-.53.21,1.52,1.52,0,0,0-.31.69l-.3,1.32q-.43,1.87-2,1.87a2.05,2.05,0,0,1-1.63-.74,2.81,2.81,0,0,1-.64-1.9,3.1,3.1,0,0,1,.58-2A2.51,2.51,0,0,1,13,68.76v1.52a1.26,1.26,0,0,0-.64.48,1.5,1.5,0,0,0-.24.89,1.37,1.37,0,0,0,.24.84.75.75,0,0,0,.63.32q.6,0,.8-.84l.31-1.34a2.78,2.78,0,0,1,.74-1.43,1.86,1.86,0,0,1,1.34-.5,2,2,0,0,1,1.66.77,3,3,0,0,1,.62,2,3.45,3.45,0,0,1-.58,2.06A2.45,2.45,0,0,1,16.28,74.5Z"/><path class="cls-1" d="M14.69,66.19a4.27,4.27,0,0,1-2-.44,3.29,3.29,0,0,1-1.35-1.23,3.6,3.6,0,0,1,0-3.61,3.3,3.3,0,0,1,1.36-1.23,4.57,4.57,0,0,1,3.91,0A3.32,3.32,0,0,1,18,60.91a3.57,3.57,0,0,1,0,3.61,3.32,3.32,0,0,1-1.36,1.24A4.27,4.27,0,0,1,14.69,66.19ZM12.93,64.1a2.77,2.77,0,0,0,1.76.52,2.79,2.79,0,0,0,1.76-.52,1.68,1.68,0,0,0,.67-1.39,1.71,1.71,0,0,0-.67-1.41,2.75,2.75,0,0,0-1.76-.53,2.75,2.75,0,0,0-1.76.53,1.71,1.71,0,0,0-.67,1.41A1.68,1.68,0,0,0,12.93,64.1Z"/><path class="cls-1" d="M15.42,56.46H11V54.93h4.25a2.11,2.11,0,0,0,1.4-.39,1.62,1.62,0,0,0,0-2.27,2.11,2.11,0,0,0-1.4-.39H11V50.34h4.4a3,3,0,0,1,2.28.82,3.54,3.54,0,0,1,0,4.48A3,3,0,0,1,15.42,56.46Z"/><path class="cls-1" d="M18.38,47.23H11v-3a2.75,2.75,0,0,1,.61-1.88,2.17,2.17,0,0,1,1.72-.7,2.23,2.23,0,0,1,1.43.44,2.18,2.18,0,0,1,.75,1.23l2.85-1.94v1.73l-2.75,1.83v.8h2.75Zm-4-1.51V44.3a1.22,1.22,0,0,0-.28-.86,1,1,0,0,0-.75-.3,1,1,0,0,0-.76.3,1.22,1.22,0,0,0-.28.86v1.42Z"/><path class="cls-1" d="M17.43,38.07a3.9,3.9,0,0,1-2.74,1,3.89,3.89,0,0,1-2.74-1,3.19,3.19,0,0,1-1.06-2.46,3.1,3.1,0,0,1,.68-2.07,3,3,0,0,1,1.82-1V34a1.55,1.55,0,0,0-1.12,1.56A1.61,1.61,0,0,0,12.94,37a2.87,2.87,0,0,0,1.75.5,2.88,2.88,0,0,0,1.75-.5,1.61,1.61,0,0,0,.68-1.37A1.56,1.56,0,0,0,16,34V32.52a3,3,0,0,1,1.83,1,3.09,3.09,0,0,1,.68,2.07A3.19,3.19,0,0,1,17.43,38.07Z"/><path class="cls-1" d="M18.38,29.69H11v-5h1.34v3.49H14V25h1.29v3.17H17V24.69h1.34Z"/></svg>