<svg id="Layer_1" data-name="Layer 1" xmlns="http://www.w3.org/2000/svg" viewBox="0 0 30 100"><defs><style>.cls-1{fill:#585556;}</style></defs><title>btn-composer</title><path class="cls-1" d="M18.38,93.81H11V92.27h7.36Z"/><path class="cls-1" d="M18.38,89.07H11V87.62l4.65-3.25H11V82.89h7.36v1.22l-4.91,3.48h4.91Z"/><path class="cls-1" d="M12.36,80.1H11V73.8h1.34v2.38h6v1.54h-6Z"/><path class="cls-1" d="M18.38,71H11V66h1.34v3.49H14V66.31h1.29v3.17H17V66h1.34Z"/><path class="cls-1" d="M18.38,63H11V60a2.75,2.75,0,0,1,.61-1.88,2.17,2.17,0,0,1,1.72-.7,2.23,2.23,0,0,1,1.43.44,2.18,2.18,0,0,1,.75,1.23l2.85-1.94v1.73l-2.75,1.83v.8h2.75Zm-4-1.51V60.08a1.22,1.22,0,0,0-.28-.86,1,1,0,0,0-.75-.3,1,1,0,0,0-.76.3,1.22,1.22,0,0,0-.28.86V61.5Z"/><path class="cls-1" d="M18.38,55,11,52.16V50.64l7.36-2.82v1.56L16.6,50V52.8l1.78.64Zm-3.07-2.66v-1.8l-2.45.9Z"/><path class="cls-1" d="M17.43,44.87a3.9,3.9,0,0,1-2.74,1,3.89,3.89,0,0,1-2.74-1,3.19,3.19,0,0,1-1.06-2.46,3.1,3.1,0,0,1,.68-2.07,3,3,0,0,1,1.82-1v1.52a1.55,1.55,0,0,0-1.12,1.56,1.61,1.61,0,0,0,.68,1.37,2.87,2.87,0,0,0,1.75.5,2.88,2.88,0,0,0,1.75-.5,1.61,1.61,0,0,0,.68-1.37A1.56,1.56,0,0,0,16,40.85V39.32a3,3,0,0,1,1.83,1,3.09,3.09,0,0,1,.68,2.07A3.19,3.19,0,0,1,17.43,44.87Z"/><path class="cls-1" d="M12.36,37.09H11V30.8h1.34v2.38h6v1.54h-6Z"/><path class="cls-1" d="M18.38,28H11V26.45h7.36Z"/><path class="cls-1" d="M14.69,23.62a4.27,4.27,0,0,1-2-.44,3.29,3.29,0,0,1-1.35-1.23,3.6,3.6,0,0,1,0-3.61,3.29,3.29,0,0,1,1.36-1.23,4.57,4.57,0,0,1,3.91,0A3.31,3.31,0,0,1,18,18.33a3.57,3.57,0,0,1,0,3.61,3.32,3.32,0,0,1-1.36,1.24A4.27,4.27,0,0,1,14.69,23.62Zm-1.76-2.09a2.77,2.77,0,0,0,1.76.52,2.79,2.79,0,0,0,1.76-.52,1.68,1.68,0,0,0,.67-1.39,1.71,1.71,0,0,0-.67-1.41,2.75,2.75,0,0,0-1.76-.53,2.75,2.75,0,0,0-1.76.53,1.71,1.71,0,0,0-.67,1.41A1.68,1.68,0,0,0,12.93,21.53Z"/><path class="cls-1" d="M18.38,13.78H11V12.32l4.65-3.25H11V7.59h7.36V8.81l-4.91,3.48h4.91Z"/></svg>