<?xml version="1.0" encoding="utf-8"?>
<!-- Generator: Adobe Illustrator 16.0.4, SVG Export Plug-In . SVG Version: 6.00 Build 0)  -->
<!DOCTYPE svg PUBLIC "-//W3C//DTD SVG 1.0//EN" "http://www.w3.org/TR/2001/REC-SVG-20010904/DTD/svg10.dtd">
<svg version="1.0" id="Layer_1" xmlns="http://www.w3.org/2000/svg" xmlns:xlink="http://www.w3.org/1999/xlink" x="0px" y="0px"
	 width="68px" height="43px" viewBox="0 0 68 43" enable-background="new 0 0 68 43" xml:space="preserve">
<g>
	<path fill="#B3B3B3" d="M0.017,30.089v1.146c0,5.697,6.157,11.456,13.746,11.456h40.474c7.589,0,13.746-5.763,13.746-11.456v-1.146
		c0-5.294-5.326-11.94-12.181-12.526c-0.15-4.733-4.025-8.521-8.792-8.521c-1.849,0-3.565,0.573-4.985,1.546
		c-2.72-6.053-8.784-10.279-15.852-10.279c-9.597,0-17.373,7.775-17.373,17.375c0,0.173,0.017,0.334,0.022,0.504
		C3.674,19.679,0.017,25.706,0.017,30.089z"/>
	<path fill="#FFFFFF" d="M17.049,19.378l-4.538,15.965h2.663L16.2,31.43h4.675l0.986,3.914h2.663l-4.21-15.965H17.049z
		 M16.669,29.395l1.901-7.869h0.04l1.835,7.869H16.669z"/>
	<polygon fill="#FFFFFF" points="35.93,31.854 35.882,31.854 33.737,19.378 31.052,19.378 28.951,31.784 28.907,31.784 
		26.806,19.378 24.232,19.378 27.319,35.344 30.269,35.344 32.308,23.313 32.352,23.313 34.409,35.344 37.359,35.344 40.53,19.378 
		38.009,19.378 	"/>
	<path fill="#FFFFFF" d="M48.739,26.622l-1.721-0.624c-1.698-0.65-2.397-1.344-2.397-2.707c0-1.699,1.057-2.303,2.154-2.303
		c1.583,0,2.233,0.848,2.233,2.303v0.336h2.547v-0.362c0-1.65-0.424-4.199-4.516-4.199c-2.994,0-4.962,1.612-4.962,4.517
		c0,2.282,1.004,3.489,3.331,4.383l1.747,0.606c1.428,0.42,2.278,1.164,2.278,2.835c0,1.186-0.805,2.331-2.416,2.331
		c-1.764,0-2.614-0.982-2.614-2.928v-0.402h-2.552v0.38c0,2.238,0.898,4.874,4.852,4.874c3.22,0,5.281-1.411,5.281-4.808
		C51.985,28.661,50.995,27.427,48.739,26.622z"/>
</g>
</svg>
