<?xml version="1.0" encoding="utf-8"?>
<!-- Generator: Adobe Illustrator 16.0.4, SVG Export Plug-In . SVG Version: 6.00 Build 0)  -->
<!DOCTYPE svg PUBLIC "-//W3C//DTD SVG 1.0//EN" "http://www.w3.org/TR/2001/REC-SVG-20010904/DTD/svg10.dtd">
<svg version="1.0" id="Layer_1" xmlns="http://www.w3.org/2000/svg" xmlns:xlink="http://www.w3.org/1999/xlink" x="0px" y="0px"
	 width="41px" height="62px" viewBox="0 0 41 62" enable-background="new 0 0 41 62" xml:space="preserve">
<g>
	<path fill="#B3B3B3" d="M14.341,36.716c0,0,1.051-3.972-3.504-9.093l-0.155-0.16c-1.917-2.277-2.978-5.162-2.978-8.13
		c0-6.96,5.673-12.629,12.649-12.629h0.295c6.97,0,12.648,5.669,12.648,12.629c0,2.969-1.062,5.854-2.979,8.125
		c-0.025,0.027-0.077,0.083-0.154,0.161c-4.04,4.047-3.51,9.097-3.51,9.097c7.39-2.546,12.376-9.49,12.418-17.28
		C39.129,9.697,31.266,1.393,21.55,0.927c-0.12-0.004-0.238-0.004-0.361-0.004c-0.145,0-0.69,0.01-0.69,0.01
		c-0.016,0-0.541-0.01-0.686-0.01c-0.123,0-0.241,0-0.36,0.004C9.729,1.393,1.872,9.697,1.923,19.436
		C1.969,27.226,6.956,34.17,14.341,36.716"/>
	<path fill="#B3B3B3" d="M38.206,51.375c0.32-0.135,0.696-0.243,1.109-0.325c0.381-0.082,0.809-0.139,1.277-0.153
		c0,0-0.021-0.14-0.047-0.356c-0.016-0.211-0.113-0.495-0.211-0.768c-0.047-0.14-0.093-0.279-0.145-0.402
		c-0.053-0.129-0.128-0.241-0.181-0.345c-0.107-0.195-0.18-0.324-0.18-0.324c-0.459-0.078-0.896-0.181-1.32-0.299
		c-0.427-0.125-0.833-0.264-1.189-0.413c-0.675-0.294-1.309-0.628-1.644-0.999c-0.401-0.351-0.479-0.706-0.463-1.025
		c0.02-0.155,0.092-0.309,0.216-0.454c0.113-0.133,0.263-0.263,0.479-0.37c0,0-0.159-0.088-0.397-0.228
		c-0.124-0.062-0.252-0.14-0.406-0.222c-0.165-0.077-0.336-0.159-0.506-0.237c-0.334-0.159-0.67-0.319-0.947-0.427
		c-0.268-0.108-0.443-0.181-0.443-0.181c-0.329,0.047-0.686,0.066-1.041,0.072c-0.37,0.011-0.752,0-1.118-0.03
		c-0.727-0.057-1.463-0.159-2.097-0.351c-0.329-0.083-0.614-0.187-0.855-0.294c-0.247-0.108-0.463-0.217-0.639-0.34
		c-0.335-0.242-0.567-0.49-0.562-0.741c0,0-0.207-0.031-0.505-0.084c-0.32-0.051-0.99-0.139-1.417-0.195
		c-0.005,0.072-0.052,0.14-0.067,0.257l-0.107,0.521c-0.223,1.04,0.381,2.097,1.406,2.391c2.504,0.732,4.396,1.933,4.941,3.41
		c1.107,2.979-3.535,5.896-10.599,5.896c-7.065,0-11.707-2.917-10.604-5.896c0.535-1.437,2.354-2.622,4.766-3.354
		c1.072-0.324,1.706-1.426,1.475-2.519l-0.149-0.706c-0.277,0.03-0.608,0.077-0.943,0.113c-0.418,0.047-0.819,0.124-1.123,0.17
		c-0.309,0.051-0.516,0.088-0.516,0.088c0.021,0.241-0.149,0.516-0.479,0.746c-0.174,0.12-0.365,0.243-0.598,0.356
		c-0.237,0.113-0.524,0.205-0.824,0.309c-0.313,0.099-0.659,0.171-1.01,0.232c-0.345,0.066-0.711,0.113-1.088,0.149
		c-0.747,0.057-1.499,0.071-2.184-0.015c0,0-0.047,0.02-0.124,0.05c-0.071,0.031-0.195,0.078-0.313,0.135
		c-0.254,0.119-0.588,0.283-0.928,0.443c-0.335,0.17-0.635,0.351-0.877,0.484c-0.123,0.066-0.226,0.123-0.293,0.16
		c-0.062,0.046-0.099,0.072-0.099,0.072c0.47,0.216,0.731,0.509,0.783,0.829c0.12,0.329-0.041,0.675-0.35,1.05
		c-0.175,0.197-0.418,0.372-0.66,0.548c-0.262,0.181-0.587,0.345-0.947,0.504c-0.68,0.325-1.562,0.608-2.51,0.778
		c0,0-0.083,0.135-0.144,0.335c-0.073,0.201-0.17,0.479-0.269,0.758c-0.041,0.278-0.077,0.566-0.108,0.788
		c-0.041,0.222-0.02,0.36-0.02,0.36c0.974,0.011,1.843,0.175,2.493,0.438c0.757,0.248,1.211,0.622,1.565,1.081
		c0.279,0.489,0.387,1.006,0.14,1.604c-0.17,0.576-0.644,1.226-1.422,1.813c0,0,0.046,0.036,0.123,0.103
		c0.084,0.062,0.207,0.15,0.356,0.254c0.31,0.209,0.69,0.514,1.15,0.782c0.478,0.263,0.962,0.525,1.333,0.731
		c0.181,0.104,0.366,0.164,0.484,0.222c0.118,0.052,0.19,0.082,0.19,0.082c1.087-0.469,2.257-0.706,3.433-0.83
		c0.581-0.061,1.157-0.076,1.705-0.041c0.562,0.027,1.128,0.072,1.664,0.197c0.524,0.145,1.041,0.271,1.493,0.474
		c0.459,0.195,0.866,0.458,1.253,0.705c0.768,0.526,1.359,1.272,1.618,2.05c0,0,0.396,0.017,0.993,0.042
		c0.598,0.016,1.392,0.067,2.185,0.025c0.795-0.025,1.593-0.035,2.18-0.077c0.583-0.056,0.975-0.092,0.975-0.092
		c0.082-0.407,0.262-0.789,0.51-1.139c0.118-0.17,0.264-0.336,0.417-0.484c0.149-0.155,0.305-0.319,0.479-0.459
		c0.347-0.283,0.741-0.531,1.186-0.727c0.434-0.2,0.896-0.392,1.432-0.51c0.547-0.107,1.062-0.216,1.617-0.258
		c0.548-0.047,1.146-0.02,1.701,0.005c1.13,0.062,2.386,0.319,3.479,0.732c0,0,0.241-0.135,0.604-0.335
		c0.344-0.206,0.839-0.449,1.221-0.753c0.391-0.288,0.799-0.562,1.046-0.787c0.247-0.228,0.401-0.378,0.401-0.378
		c-0.814-0.562-1.277-1.158-1.577-1.751c-0.139-0.288-0.18-0.557-0.186-0.824c-0.02-0.262,0.036-0.516,0.186-0.747
		C37.052,52.004,37.594,51.653,38.206,51.375"/>
	<path fill="#B3B3B3" d="M11.136,19.375c-0.021,2.318,1.103,4.416,2.916,5.899c2.251,1.829,4.092,5.527,4.2,9.572
		c0.117,4.487-0.187,9.676-0.372,12.319c-2.4,0.34-4.095,1.149-4.095,2.081c0,1.242,2.992,2.681,6.677,2.681
		c3.694,0,6.677-1.438,6.677-2.681c0-0.932-1.684-1.741-4.084-2.081c-0.191-2.644-0.496-7.832-0.383-12.319
		c0.114-4.045,1.953-7.743,4.198-9.572c1.819-1.484,2.943-3.581,2.923-5.899c-0.036-4.426-4.214-7.982-9.331-7.982
		C15.351,11.393,11.171,14.948,11.136,19.375"/>
</g>
</svg>
