<?xml version="1.0" encoding="utf-8"?>
<!-- Generator: Adobe Illustrator 16.0.4, SVG Export Plug-In . SVG Version: 6.00 Build 0)  -->
<!DOCTYPE svg PUBLIC "-//W3C//DTD SVG 1.0//EN" "http://www.w3.org/TR/2001/REC-SVG-20010904/DTD/svg10.dtd">
<svg version="1.0" id="Layer_1" xmlns="http://www.w3.org/2000/svg" xmlns:xlink="http://www.w3.org/1999/xlink" x="0px" y="0px"
	 width="159.667px" height="54.333px" viewBox="0 0 159.667 54.333" enable-background="new 0 0 159.667 54.333"
	 xml:space="preserve">
<path fill="none" stroke="#595B5F" stroke-miterlimit="10" d="M131.48,2.573c-6.809,0-12.953,2.823-17.353,7.354
	c-4.4-4.53-10.543-7.354-17.354-7.354c-0.157,0-0.312,0.019-0.47,0.025c-0.162-0.007-0.32-0.025-0.484-0.025
	c-6.576,0-12.512,2.646-16.876,6.908c-4.361-4.262-10.3-6.908-16.879-6.908c-0.162,0-0.319,0.019-0.481,0.025
	c-0.157-0.007-0.309-0.025-0.467-0.025c-6.815,0-12.96,2.823-17.357,7.354c-4.4-4.53-10.543-7.354-17.355-7.354
	c-13.372,0-24.206,10.841-24.206,24.214c0,13.379,10.833,24.223,24.206,24.223c6.812,0,12.955-2.823,17.355-7.358
	c4.396,4.535,10.542,7.358,17.357,7.358c0.158,0,0.31-0.023,0.467-0.024c0.162,0.001,0.32,0.024,0.481,0.024
	c6.58,0,12.519-2.649,16.879-6.911c4.364,4.262,10.3,6.911,16.876,6.911c0.164,0,0.323-0.023,0.484-0.024
	c0.158,0.001,0.313,0.024,0.47,0.024c6.812,0,12.955-2.823,17.354-7.358c4.4,4.535,10.543,7.358,17.353,7.358
	c13.369,0,24.208-10.844,24.208-24.223C155.688,13.414,144.849,2.573,131.48,2.573z"/>
</svg>
