<?xml version="1.0" encoding="utf-8"?>
<!-- Generator: Adobe Illustrator 16.0.4, SVG Export Plug-In . SVG Version: 6.00 Build 0)  -->
<!DOCTYPE svg PUBLIC "-//W3C//DTD SVG 1.0//EN" "http://www.w3.org/TR/2001/REC-SVG-20010904/DTD/svg10.dtd">
<svg version="1.0" id="Layer_1" xmlns="http://www.w3.org/2000/svg" xmlns:xlink="http://www.w3.org/1999/xlink" x="0px" y="0px"
	 width="122.898px" height="41px" viewBox="0 0 122.898 41" enable-background="new 0 0 122.898 41" xml:space="preserve">
<g>
	<g>
		<path fill="none" stroke="#585A5E" stroke-miterlimit="10" d="M103.174,1.262c-5.409,0-10.288,2.243-13.782,5.843
			c-3.494-3.6-8.373-5.843-13.782-5.843c-0.125,0-0.248,0.017-0.374,0.02c-0.128-0.003-0.253-0.02-0.385-0.02
			c-5.222,0-9.936,2.103-13.402,5.488c-3.464-3.385-8.18-5.488-13.405-5.488c-0.129,0-0.254,0.017-0.383,0.02
			c-0.125-0.003-0.246-0.02-0.371-0.02c-5.412,0-10.293,2.243-13.785,5.843c-3.494-3.6-8.373-5.843-13.782-5.843
			C9.104,1.262,0.5,9.874,0.5,20.499c0,10.625,8.604,19.239,19.224,19.239c5.409,0,10.288-2.243,13.782-5.843
			c3.491,3.601,8.373,5.843,13.785,5.843c0.125,0,0.246-0.017,0.371-0.02c0.128,0.003,0.254,0.02,0.383,0.02
			c5.225,0,9.941-2.106,13.405-5.488c3.466,3.382,8.18,5.488,13.402,5.488c0.131,0,0.257-0.017,0.385-0.02
			c0.126,0.003,0.249,0.02,0.374,0.02c5.409,0,10.288-2.243,13.782-5.843c3.495,3.601,8.373,5.843,13.782,5.843
			c10.617,0,19.224-8.614,19.224-19.239C122.398,9.874,113.791,1.262,103.174,1.262z"/>
		<g>
			<path fill="#585A5E" d="M23.01,15.938h5.73v1.315h-4.271v2.315h3.872v1.302h-3.872v2.517h4.271v1.329h-5.73V15.938z"/>
			<path fill="#585A5E" d="M38.415,15.938v8.779h-1.144l-4.486-6.391v6.391h-1.429v-8.779h1.401l4.23,6.092v-6.092H38.415z"/>
			<path fill="#585A5E" d="M41.358,24.716v-8.779h2.958c1.295,0,2.33,0.396,3.101,1.192c0.772,0.796,1.157,1.863,1.157,3.196
				c0,1.335-0.385,2.402-1.157,3.198c-0.771,0.796-1.806,1.193-3.101,1.193H41.358z M42.844,23.387h1.415
				c0.905,0,1.602-0.271,2.093-0.816c0.49-0.541,0.736-1.29,0.736-2.245c0-0.953-0.246-1.704-0.736-2.251
				c-0.491-0.547-1.188-0.821-2.093-0.821h-1.415V23.387z"/>
			<path fill="#585A5E" d="M54.433,21.442h-1.899v3.274h-1.486v-8.779h3.385c0.925,0,1.657,0.237,2.194,0.715
				c0.539,0.475,0.808,1.157,0.808,2.044c0,0.877-0.27,1.554-0.808,2.031C56.089,21.202,55.358,21.442,54.433,21.442z
				 M55.962,18.697c0-0.449-0.134-0.807-0.401-1.072c-0.266-0.269-0.652-0.403-1.157-0.403h-1.872v2.933h1.872
				c0.496,0,0.879-0.134,1.149-0.399C55.827,19.487,55.962,19.135,55.962,18.697z"/>
			<path fill="#585A5E" d="M66.322,17.074c0.762,0.852,1.143,1.936,1.143,3.251c0,1.315-0.381,2.402-1.143,3.254
				c-0.761,0.855-1.734,1.279-2.915,1.279c-1.181,0-2.15-0.424-2.908-1.279c-0.756-0.852-1.137-1.939-1.137-3.254
				c0-1.316,0.38-2.399,1.137-3.251c0.757-0.855,1.727-1.282,2.908-1.282C64.588,15.792,65.561,16.219,66.322,17.074z M65.257,22.63
				c0.472-0.6,0.708-1.369,0.708-2.304c0-0.933-0.235-1.702-0.708-2.302c-0.471-0.601-1.088-0.899-1.851-0.899
				c-0.762,0-1.376,0.296-1.843,0.894c-0.466,0.595-0.701,1.363-0.701,2.308c0,0.944,0.234,1.714,0.701,2.31
				c0.467,0.598,1.082,0.893,1.843,0.893C64.169,23.529,64.786,23.23,65.257,22.63z"/>
			<path fill="#585A5E" d="M71.424,15.938v8.779h-1.487v-8.779H71.424z"/>
			<path fill="#585A5E" d="M81.413,15.938v8.779h-1.144l-4.487-6.391v6.391h-1.429v-8.779h1.401l4.229,6.092v-6.092H81.413z"/>
			<path fill="#585A5E" d="M83.812,17.253v-1.315h7.316v1.315h-2.916v7.463h-1.486v-7.463H83.812z"/>
			<path fill="#585A5E" d="M92.786,22.286H94.3c0.276,0.877,0.939,1.315,1.987,1.315c0.514,0,0.927-0.117,1.237-0.352
				c0.308-0.231,0.463-0.55,0.463-0.949c0-0.315-0.098-0.564-0.293-0.751c-0.195-0.184-0.521-0.33-0.979-0.436l-1.486-0.357
				c-1.457-0.343-2.187-1.128-2.187-2.36c0-0.751,0.279-1.374,0.836-1.866c0.558-0.491,1.274-0.737,2.152-0.737
				c0.924,0,1.669,0.218,2.235,0.651c0.567,0.436,0.931,1.028,1.093,1.782h-1.486c-0.276-0.782-0.885-1.173-1.829-1.173
				c-0.477,0-0.859,0.112-1.151,0.335c-0.291,0.224-0.436,0.517-0.436,0.879c0,0.582,0.387,0.964,1.159,1.146l1.528,0.357
				c0.714,0.162,1.272,0.447,1.671,0.858c0.401,0.41,0.6,0.932,0.6,1.572c0,0.81-0.29,1.458-0.871,1.938
				c-0.582,0.481-1.334,0.721-2.258,0.721c-0.933,0-1.712-0.226-2.336-0.679C93.326,23.728,92.938,23.096,92.786,22.286z"/>
		</g>
	</g>
</g>
</svg>
