<?xml version="1.0" encoding="utf-8"?>
<!-- Generator: Adobe Illustrator 16.0.4, SVG Export Plug-In . SVG Version: 6.00 Build 0)  -->
<!DOCTYPE svg PUBLIC "-//W3C//DTD SVG 1.0//EN" "http://www.w3.org/TR/2001/REC-SVG-20010904/DTD/svg10.dtd">
<svg version="1.0" id="Layer_1" xmlns="http://www.w3.org/2000/svg" xmlns:xlink="http://www.w3.org/1999/xlink" x="0px" y="0px"
	 width="52px" height="48px" viewBox="0 0 52 48" enable-background="new 0 0 52 48" xml:space="preserve">
<g>
	<path fill="#B3B3B3" d="M16.256,33.522c-0.013-1.715-0.08-3.43-0.005-5.141c0.017-0.434,0.368-0.977,0.73-1.239
		c0.814-0.592,1.736-1.038,2.612-1.544c0.872-0.509,1.749-1.013,2.821-1.63c-1.377-0.788-2.628-1.537-3.914-2.216
		c-0.196-0.106-0.584,0.03-0.826,0.165c-1.698,0.954-3.4,1.903-5.048,2.935c-0.334,0.213-0.592,0.763-0.63,1.185
		c-0.1,1.239-0.067,2.487-0.088,3.734c-1.121,0-2.244,0-3.367-0.004c-0.013-1.986-0.058-3.969-0.008-5.949
		c0.008-0.362,0.338-0.851,0.664-1.049c1.751-1.077,3.55-2.077,5.536-3.223c-1.389-0.8-2.632-1.542-3.909-2.221
		c-0.196-0.1-0.588,0.029-0.826,0.165c-1.694,0.949-3.393,1.904-5.044,2.929c-0.313,0.194-0.596,0.683-0.623,1.058
		c-0.092,1.2-0.054,2.413-0.071,3.617C3.105,25.09,1.945,25.09,0.789,25.09v-6.317c1.166-0.718,2.337-1.433,3.501-2.15
		c0.875-0.462,1.744-0.925,2.804-1.488c-1.001-0.571-1.82-1.036-2.855-1.629v2.236c-1.151-0.001-2.298-0.007-3.451-0.01v-4.446
		c0.823-0.419,1.69-0.764,2.446-1.274c0.721-0.49,1.267-0.432,1.998-0.013c9.379,5.435,18.746,10.892,28.196,16.198
		c1.728,0.968,2.516,1.969,2.266,3.938c-0.18,1.42-0.058,2.871-0.075,4.311c-0.81,0-1.624,0.021-2.433-0.008
		c-0.593-0.021-0.823,0.209-0.823,0.81c0.009,1.155-0.045,2.314-0.075,3.471c-0.291-0.242-0.559-0.53-0.883-0.718
		c-3.647-2.115-7.302-4.218-10.957-6.316c-0.217-0.126-0.464-0.201-0.798-0.343c-0.041,0.81-0.079,1.494-0.113,2.183
		C18.446,33.522,17.349,33.522,16.256,33.522 M32.277,34.457c0-1.665,0.028-3.055-0.03-4.436c-0.013-0.25-0.347-0.566-0.609-0.726
		c-1.699-1.014-3.413-1.999-5.14-2.967c-0.238-0.133-0.629-0.255-0.826-0.149c-1.256,0.667-2.475,1.396-3.901,2.219
		C25.318,30.443,28.66,32.371,32.277,34.457"/>
	<path fill="#B3B3B3" d="M51.052,18.532v6.792c-1.147-0.004-2.294-0.004-3.438-0.013c-0.017-1.165-0.092-2.336-0.017-3.497
		c0.054-0.829-0.289-1.237-0.959-1.624C37.155,14.755,27.692,9.298,18.221,3.842c-0.333-0.194-0.676-0.378-1.01-0.579
		c-0.638-0.397-0.684-0.812-0.017-1.229c0.693-0.428,1.381-0.851,2.079-1.272h0.701c1.777,1.037,3.542,2.103,5.348,3.09
		c0.322,0.177,0.91,0.18,1.235,0.002c1.807-0.987,3.567-2.055,5.344-3.092h0.707c0.654,0.401,1.314,0.813,1.978,1.208
		c0.763,0.457,0.784,0.899-0.005,1.352c-1.648,0.947-3.3,1.9-5.114,2.946c1.343,0.773,2.549,1.512,3.805,2.156
		c0.253,0.13,0.742-0.013,1.046-0.178c1.431-0.781,2.887-1.538,4.24-2.448c0.997-0.67,1.835-0.696,2.733,0.046
		c0.517,0.424,1.035,0.851,1.552,1.279c-0.513,0.388-0.997,0.825-1.541,1.157c-1.327,0.807-2.674,1.568-4.135,2.413
		c1.29,0.751,2.437,1.478,3.647,2.076c0.32,0.16,0.901,0.05,1.252-0.14c1.605-0.866,3.187-1.788,4.756-2.729
		c0.555-0.335,0.984-0.266,1.593-0.039c2.203,0.815,3.134,2.262,2.688,4.597c-0.104,0.564-0.037,1.165-0.05,1.747h-3.417v-2.697
		c-1.031,0.586-1.848,1.056-2.845,1.623c1.052,0.565,1.919,1.033,2.787,1.498C48.737,17.262,49.892,17.898,51.052,18.532"/>
	<path fill="#B3B3B3" d="M0.789,25.09c1.156,0,2.316,0,3.472,0.005c0,2.415,0,4.835-0.004,7.252c-1.155,0-2.312,0-3.468-0.006V25.09
		z"/>
	<path fill="#B3B3B3" d="M0.789,32.341c1.156,0,2.312,0,3.468,0.006c0.004,1.322,0.009,2.645,0.013,3.967
		c-1.035,0.092-2.07,0.188-3.108,0.284c-0.122-0.092-0.247-0.188-0.373-0.28V32.341z"/>
	<path fill="#B3B3B3" d="M4.29,16.622c-1.164,0.718-2.332,1.433-3.501,2.15v-3.041c1.152,0.003,2.304,0.009,3.455,0.01
		C4.256,16.038,4.273,16.327,4.29,16.622"/>
	<path fill="#B3B3B3" d="M39.967,30.23c-0.021-1.322-0.1-2.646-0.042-3.964c0.042-0.822-0.268-1.243-0.956-1.637
		c-9.455-5.415-18.893-10.857-28.326-16.312c-0.581-0.335-1.076-0.823-1.61-1.241c0.529-0.418,1.068-0.83,1.586-1.26
		c0.92-0.762,1.726-0.584,2.736,0.003c9.654,5.615,19.343,11.182,29.034,16.724c0.738,0.425,1.034,0.872,1.001,1.728
		c-0.079,1.987-0.042,3.973-0.059,5.959C42.21,30.23,41.089,30.23,39.967,30.23"/>
	<path fill="#B3B3B3" d="M32.123,47.111c-1.76-0.964-3.547-1.891-5.273-2.903c-0.654-0.385-1.13-0.422-1.79-0.021
		c-1.76,1.064-3.571,2.04-5.357,3.054c0-1.331-0.004-2.666-0.004-3.997c0.851-0.487,1.702-0.972,2.724-1.556
		c-1.018-0.589-1.86-1.081-2.707-1.573c-0.004-1.335-0.009-2.67-0.009-4.006c4.155,2.374,8.315,4.752,12.471,7.131
		C32.16,44.529,32.139,45.822,32.123,47.111"/>
	<path fill="#B3B3B3" d="M19.702,36.105c0.004,1.334,0.009,2.674,0.013,4.009l-0.188,1.119c-1.085,0-2.178,0.003-3.267,0.003
		c0-2.574-0.004-5.145-0.004-7.714c1.093,0,2.19-0.004,3.282-0.004C19.593,34.382,19.647,35.246,19.702,36.105"/>
	<path fill="#B3B3B3" d="M47.615,25.312c1.143,0.004,2.291,0.009,3.438,0.013c0,2.341-0.004,4.681-0.004,7.022h-3.414
		C47.627,30.001,47.619,27.66,47.615,25.312"/>
	<path fill="#B3B3B3" d="M8.541,29.768c1.123,0,2.246,0,3.367,0c-0.004,2.187-0.008,4.368-0.012,6.555c-1.119,0-2.232,0-3.351,0
		C8.545,34.14,8.541,31.954,8.541,29.768"/>
	<path fill="#B3B3B3" d="M32.289,38.717c0.03-1.156,0.084-2.315,0.08-3.471c-0.005-0.601,0.225-0.83,0.818-0.81
		c0.809,0.028,1.623,0.008,2.437,0.008c-0.004,2.346-0.004,4.682-0.009,7.025c-1.093-0.004-2.176-0.004-3.271-0.004
		C32.327,40.549,32.306,39.635,32.289,38.717"/>
	<path fill="#B3B3B3" d="M39.967,30.23c1.123,0,2.244,0,3.366,0c0,2.032-0.004,4.06-0.004,6.096c-1.119,0-2.236,0-3.35-0.004
		C39.974,34.29,39.971,32.263,39.967,30.23"/>
	<path fill="#B3B3B3" d="M8.545,36.322c1.119,0,2.236,0,3.351,0c0.004,1.864,0.008,3.729,0.012,5.595
		c-0.358,0.087-0.712,0.179-1.072,0.271c-1.793-0.576-2.703-1.69-2.349-3.676C8.616,37.803,8.533,37.053,8.545,36.322"/>
	<path fill="#B3B3B3" d="M16.26,41.236c1.089,0,2.182-0.003,3.267-0.003c0.058,0.671,0.116,1.339,0.171,2.01
		c0,1.331,0,2.666,0,3.997c-1.048-0.567-2.107-1.109-3.129-1.723c-0.201-0.122-0.33-0.509-0.339-0.777
		C16.209,43.573,16.247,42.405,16.26,41.236"/>
	<path fill="#B3B3B3" d="M39.979,36.322c1.114,0,2.231,0,3.35,0c0.013,1.151,0.03,2.307,0.038,3.459
		c0.013,0.843-0.276,1.484-1.161,1.73c-0.542-1.038-1.519-0.263-2.249-0.529C39.967,39.431,39.971,37.878,39.979,36.322"/>
	<path fill="#B3B3B3" d="M32.343,41.466c1.089,0,2.182,0,3.271,0.004c0.013,0.118,0.034,0.227,0.034,0.342
		c0.091,3.719,0.088,3.719-3.354,5.3c-0.06-0.021-0.122-0.029-0.184-0.021l0.012,0.021c0.021-1.289,0.037-2.578,0.054-3.872
		C32.235,42.65,32.289,42.059,32.343,41.466"/>
	<path fill="#B3B3B3" d="M47.639,32.347h3.409c0.012,0.762-0.071,1.546,0.058,2.29c0.242,1.389-0.316,2.215-1.585,2.662
		c-0.63-0.097-1.264-0.192-1.898-0.285C47.627,35.453,47.635,33.901,47.639,32.347"/>
	<path fill="#B3B3B3" d="M47.635,16.204h3.417v2.328c-1.16-0.634-2.315-1.271-3.476-1.904
		C47.594,16.486,47.615,16.347,47.635,16.204"/>
	<path fill="#B3B3B3" d="M1.165,36.598c1.031-0.097,2.07-0.192,3.104-0.284c0.013,0.312,0.041,0.622,0.037,0.935
		c0,0.801-0.446,0.959-1.068,0.63C2.521,37.494,1.853,37.026,1.165,36.598"/>
	<path fill="#B3B3B3" d="M39.958,40.982c0.73,0.263,1.703-0.509,2.249,0.529c-0.246,0.171-0.479,0.396-0.755,0.506
		c-0.405,0.162-0.838,0.25-1.264,0.363C40.113,41.917,40.038,41.45,39.958,40.982"/>
	<path fill="#B3B3B3" d="M47.623,37.011c0.634,0.096,1.265,0.191,1.898,0.288c-0.246,0.166-0.476,0.362-0.739,0.496
		C47.894,38.253,47.665,38.091,47.623,37.011"/>
	<path fill="#B3B3B3" d="M10.835,42.188c0.36-0.093,0.714-0.185,1.072-0.271C11.737,42.73,11.308,42.547,10.835,42.188"/>
	<path fill="#B3B3B3" d="M32.115,47.091c0.058-0.009,0.12,0,0.18,0.021C32.235,47.103,32.173,47.1,32.115,47.091"/>
</g>
</svg>
