<?xml version="1.0" encoding="utf-8"?>
<!-- Generator: Adobe Illustrator 16.0.4, SVG Export Plug-In . SVG Version: 6.00 Build 0)  -->
<!DOCTYPE svg PUBLIC "-//W3C//DTD SVG 1.0//EN" "http://www.w3.org/TR/2001/REC-SVG-20010904/DTD/svg10.dtd">
<svg version="1.0" id="Layer_1" xmlns="http://www.w3.org/2000/svg" xmlns:xlink="http://www.w3.org/1999/xlink" x="0px" y="0px"
	 width="19.945px" height="132.603px" viewBox="0 0 19.945 132.603" enable-background="new 0 0 19.945 132.603"
	 xml:space="preserve">
<g>
	<g>
		<g>
			<path fill="none" stroke="#646464" stroke-width="1.4" stroke-miterlimit="10" d="M6.055,14.955c0,3.46,2.875,5.464,4.85,5.464
				s2.986-0.898,2.986-2.007s-1.046-2.007-2.986-2.007s-4.85,2.01-4.85,5.471"/>
		</g>
		<g>
			<path fill="none" stroke="#646464" stroke-width="1.4" stroke-miterlimit="10" d="M6.055,21.876c0,3.46,2.875,5.463,4.85,5.463
				s2.986-0.897,2.986-2.006s-1.046-2.007-2.986-2.007s-4.85,2.01-4.85,5.47"/>
		</g>
		<g>
			<path fill="none" stroke="#646464" stroke-width="1.4" stroke-miterlimit="10" d="M6.055,28.796c0,3.46,2.875,5.464,4.85,5.464
				s2.986-0.898,2.986-2.007s-1.046-2.007-2.986-2.007s-4.85,2.01-4.85,5.471"/>
		</g>
		<g>
			<path fill="none" stroke="#646464" stroke-width="1.4" stroke-miterlimit="10" d="M6.055,35.717c0,3.46,2.875,5.463,4.85,5.463
				s2.986-0.897,2.986-2.006s-1.046-2.007-2.986-2.007s-4.85,2.01-4.85,5.47"/>
		</g>
		<g>
			<path fill="none" stroke="#646464" stroke-width="1.4" stroke-miterlimit="10" d="M6.055,42.637c0,3.46,2.875,5.464,4.85,5.464
				s2.986-0.898,2.986-2.006c0-1.108-1.046-2.008-2.986-2.008s-4.85,2.01-4.85,5.471"/>
		</g>
		<g>
			<path fill="none" stroke="#646464" stroke-width="1.4" stroke-miterlimit="10" d="M6.055,49.558c0,3.46,2.875,5.463,4.85,5.463
				s2.986-0.897,2.986-2.006s-1.046-2.007-2.986-2.007s-4.85,2.01-4.85,5.47"/>
		</g>
		<g>
			<path fill="none" stroke="#646464" stroke-width="1.4" stroke-miterlimit="10" d="M6.055,56.478c0,3.46,2.875,5.464,4.85,5.464
				s2.986-0.898,2.986-2.006c0-1.108-1.046-2.008-2.986-2.008s-4.85,2.01-4.85,5.471"/>
		</g>
		<g>
			<path fill="none" stroke="#646464" stroke-width="1.4" stroke-miterlimit="10" d="M6.055,63.398c0,3.46,2.875,5.464,4.85,5.464
				s2.986-0.898,2.986-2.007s-1.046-2.007-2.986-2.007s-4.85,2.01-4.85,5.47"/>
		</g>
		<g>
			<path fill="none" stroke="#646464" stroke-width="1.4" stroke-miterlimit="10" d="M6.055,70.318c0,3.461,2.875,5.464,4.85,5.464
				s2.986-0.898,2.986-2.006c0-1.108-1.046-2.007-2.986-2.007s-4.85,2.01-4.85,5.47"/>
		</g>
		<g>
			<path fill="none" stroke="#646464" stroke-width="1.4" stroke-miterlimit="10" d="M6.055,77.239c0,3.46,2.875,5.464,4.85,5.464
				s2.986-0.898,2.986-2.007s-1.046-2.007-2.986-2.007s-4.85,2.01-4.85,5.47"/>
		</g>
		<g>
			<path fill="none" stroke="#646464" stroke-width="1.4" stroke-miterlimit="10" d="M6.055,84.159c0,3.461,2.875,5.464,4.85,5.464
				s2.986-0.898,2.986-2.006c0-1.108-1.046-2.007-2.986-2.007s-4.85,2.01-4.85,5.47"/>
		</g>
		<g>
			<path fill="none" stroke="#646464" stroke-width="1.4" stroke-miterlimit="10" d="M6.055,91.08c0,3.46,2.875,5.464,4.85,5.464
				s2.986-0.898,2.986-2.007s-1.046-2.007-2.986-2.007s-4.85,2.01-4.85,5.47"/>
		</g>
		<g>
			<path fill="none" stroke="#646464" stroke-width="1.4" stroke-miterlimit="10" d="M6.055,98c0,3.461,2.875,5.464,4.85,5.464
				s2.986-0.898,2.986-2.006c0-1.108-1.046-2.007-2.986-2.007s-4.85,2.01-4.85,5.47"/>
		</g>
		<g>
			<path fill="none" stroke="#646464" stroke-width="1.4" stroke-miterlimit="10" d="M6.055,104.921c0,3.46,2.875,5.464,4.85,5.464
				s2.986-0.898,2.986-2.007s-1.046-2.007-2.986-2.007s-4.85,2.01-4.85,5.47"/>
		</g>
		<g>
			<path fill="none" stroke="#646464" stroke-width="1.4" stroke-miterlimit="10" d="M6.055,111.841c0,3.461,2.875,5.464,4.85,5.464
				s2.986-0.898,2.986-2.006c0-1.108-1.046-2.007-2.986-2.007s-4.85,2.01-4.85,5.47"/>
		</g>
		<g>
			<path fill="none" stroke="#646464" stroke-width="1.4" stroke-miterlimit="10" d="M6.055,118.762c0,3.46,2.875,5.464,4.85,5.464
				s2.986-0.898,2.986-2.007s-1.046-2.007-2.986-2.007s-4.85,2.01-4.85,5.47"/>
		</g>
		<g>
			<path fill="none" stroke="#646464" stroke-width="1.4" stroke-miterlimit="10" d="M6.055,125.682c0,3.461,2.875,5.464,4.85,5.464
				s2.986-0.897,2.986-2.006s-1.046-2.007-2.986-2.007s-4.85,2.01-4.85,5.47"/>
		</g>
		<g>
			<polygon fill="#4D4D4D" points="0,17.873 9.973,0.603 19.945,17.873 			"/>
		</g>
	</g>
</g>
</svg>
