<?xml version="1.0" encoding="utf-8"?>
<!-- Generator: Adobe Illustrator 16.0.4, SVG Export Plug-In . SVG Version: 6.00 Build 0)  -->
<!DOCTYPE svg PUBLIC "-//W3C//DTD SVG 1.0//EN" "http://www.w3.org/TR/2001/REC-SVG-20010904/DTD/svg10.dtd">
<svg version="1.0" id="Layer_1" xmlns="http://www.w3.org/2000/svg" xmlns:xlink="http://www.w3.org/1999/xlink" x="0px" y="0px"
	 width="47px" height="46px" viewBox="0 0 47 46" enable-background="new 0 0 47 46" xml:space="preserve">
<g>
	<g>
		<path fill-rule="evenodd" clip-rule="evenodd" fill="#B3B3B3" d="M46.066,22.955c0,5.895-0.005,11.784,0.005,17.675
			c0,0.273-0.083,0.403-0.342,0.506c-3.524,1.425-7.044,2.857-10.563,4.299c-0.265,0.107-0.416,0.076-0.616-0.127
			c-5.807-5.816-11.624-11.625-17.437-17.437c-0.259-0.254-0.259-0.254-0.538-0.039c-3.172,2.471-6.339,4.942-9.512,7.416
			c-0.494,0.384-0.992,0.762-1.481,1.15C5.455,36.5,5.357,36.5,5.215,36.431c-1.354-0.684-2.708-1.359-4.062-2.033
			c-0.159-0.079-0.224-0.171-0.224-0.352c0.005-7.367,0.005-14.729,0-22.094c0-0.178,0.054-0.276,0.22-0.357
			c1.35-0.67,2.702-1.345,4.053-2.023c0.146-0.074,0.244-0.08,0.386,0.03c2.562,2.027,5.134,4.049,7.699,6.07
			c1.084,0.852,2.17,1.7,3.241,2.563c0.21,0.168,0.322,0.167,0.519-0.028C22.872,12.369,28.708,6.539,34.53,0.703
			c0.21-0.211,0.371-0.249,0.655-0.136c3.516,1.416,7.029,2.817,10.549,4.208c0.269,0.104,0.332,0.239,0.332,0.505
			C46.062,11.172,46.066,17.065,46.066,22.955z M34.755,32.19c0.02-0.012,0.044-0.027,0.063-0.042c0-6.102,0-12.204,0-18.393
			c-4.003,3.099-7.948,6.157-11.937,9.243C26.865,26.084,30.81,29.138,34.755,32.19z M5.406,30.018
			c0.117-0.113,0.185-0.171,0.249-0.235c0.836-0.867,1.677-1.735,2.518-2.603c1.291-1.332,2.586-2.664,3.886-3.99
			c0.152-0.155,0.147-0.244-0.004-0.391c-2.137-2.133-4.276-4.273-6.414-6.408c-0.063-0.06-0.137-0.107-0.234-0.187
			C5.406,20.824,5.406,25.383,5.406,30.018z"/>
	</g>
</g>
</svg>
