<?xml version="1.0" encoding="utf-8"?>
<!-- Generator: Adobe Illustrator 21.0.0, SVG Export Plug-In . SVG Version: 6.00 Build 0)  -->
<svg version="1.1" id="Layer_1" xmlns="http://www.w3.org/2000/svg" xmlns:xlink="http://www.w3.org/1999/xlink" x="0px" y="0px"
	 viewBox="0 0 32 32" style="enable-background:new 0 0 32 32;" xml:space="preserve">
<style type="text/css">
	.st0{fill:#585556;}
</style>
<path class="st0" d="M16,0.7c-8.7,0-15.7,7-15.7,15.7c0,6.9,4.5,12.8,10.7,14.9c0.8,0.1,1.1-0.3,1.1-0.8c0-0.4,0-1.4,0-2.7
	c-4.4,0.9-5.3-2.1-5.3-2.1c-0.7-1.8-1.7-2.3-1.7-2.3c-1.4-1,0.1-1,0.1-1C6.8,22.5,7.6,24,7.6,24c1.4,2.4,3.7,1.7,4.6,1.3
	c0.1-1,0.5-1.7,1-2.1C9.7,22.9,6,21.6,6,15.6c0-1.7,0.6-3.1,1.6-4.2c-0.2-0.4-0.7-2,0.2-4.1c0,0,1.3-0.4,4.3,1.6
	c1.2-0.3,2.6-0.5,3.9-0.5s2.7,0.2,3.9,0.5c3-2,4.3-1.6,4.3-1.6c0.9,2.2,0.3,3.7,0.2,4.1c1,1.1,1.6,2.5,1.6,4.2c0,6-3.7,7.3-7.2,7.7
	c0.6,0.5,1.1,1.4,1.1,2.9c0,2.1,0,3.8,0,4.3c0,0.4,0.3,0.9,1.1,0.8c6.2-2.1,10.7-7.9,10.7-14.9C31.7,7.7,24.7,0.7,16,0.7z"/>
</svg>
