<?xml version="1.0" encoding="utf-8"?>
<!-- Generator: Adobe Illustrator 16.0.4, SVG Export Plug-In . SVG Version: 6.00 Build 0)  -->
<!DOCTYPE svg PUBLIC "-//W3C//DTD SVG 1.0//EN" "http://www.w3.org/TR/2001/REC-SVG-20010904/DTD/svg10.dtd">
<svg version="1.0" id="Layer_1" xmlns="http://www.w3.org/2000/svg" xmlns:xlink="http://www.w3.org/1999/xlink" x="0px" y="0px"
	 width="500px" height="273px" viewBox="0 0 500 273" enable-background="new 0 0 500 273" xml:space="preserve">
<g>
	<g>
		<path fill="#585A5E" d="M96.756,181.286c-0.22,1.692-1.201,4.283-5.011,4.283c-3.521,0-5.637-2.286-5.637-6.077
			c0-6.298,4.588-6.483,5.586-6.483c3.775,0,4.724,2.2,4.909,4.012h-1.591c-0.085-0.864-0.61-2.675-3.318-2.675
			c-2.962,0-3.894,2.506-3.894,5.078c0,2.759,1.507,4.809,4.013,4.809c1.896,0,3.267-1.254,3.352-2.946H96.756z"/>
		<path fill="#585A5E" d="M100.105,173.363v11.85h-1.489v-11.85H100.105z"/>
		<path fill="#585A5E" d="M106.283,176.275c3.132,0,4.232,2.354,4.232,4.639s-1.101,4.638-4.232,4.638s-4.232-2.353-4.232-4.638
			S103.151,176.275,106.283,176.275z M106.283,184.502c0.66,0,2.658-0.152,2.658-3.605s-1.998-3.605-2.658-3.605
			s-2.657,0.152-2.657,3.605S105.623,184.502,106.283,184.502z"/>
		<path fill="#585A5E" d="M118.232,185.213v-1.218h-0.033c-0.863,1.489-2.607,1.557-2.912,1.557c-2.539,0-2.826-1.946-2.826-3.233
			v-5.704h1.489v5.265c0,2.166,0.745,2.623,1.812,2.623c2.505,0,2.471-2.59,2.471-3.199v-4.688h1.49v8.599H118.232z"/>
		<path fill="#585A5E" d="M129.86,173.363v11.85h-1.388v-1.185h-0.051c-0.288,0.559-1.033,1.523-2.844,1.523
			c-2.506,0-3.911-1.896-3.911-4.655c0-1.811,0.56-4.621,3.877-4.621c1.151,0,2.133,0.287,2.827,1.456v-4.368H129.86z
			 M125.899,184.502c1.304,0,2.573-0.981,2.573-3.639c0-2.488-1.236-3.537-2.658-3.537s-2.572,1.049-2.572,3.57
			C123.242,184.147,125.036,184.502,125.899,184.502z"/>
		<path fill="#585A5E" d="M138.051,185.213h-1.591v-11.85h1.76l6.298,9.396v-9.396h1.591v11.85h-1.743l-6.314-9.395V185.213z"/>
		<path fill="#585A5E" d="M148.477,179.153c0-1.151,0.609-2.878,3.656-2.878c1.388,0,3.471,0.39,3.419,2.896l-0.084,3.977
			c0,0.661-0.018,1.067,0.897,1.017v1.049c-0.204,0.052-0.355,0.068-0.678,0.068c-0.846,0-1.354-0.136-1.54-1.253
			c-0.593,1.084-1.778,1.523-2.946,1.523c-1.811,0-3.029-0.778-3.029-2.59c0-1.489,0.762-2.403,4.215-2.726
			c1.27-0.084,1.676-0.067,1.676-1.186c0-0.406-0.034-1.725-1.93-1.725c-0.542,0-2.285,0.032-2.234,1.827H148.477z M154.062,180.812
			c-0.44,0.355-0.947,0.288-1.896,0.423c-1.319,0.22-2.454,0.288-2.454,1.675c0,1.017,0.694,1.592,1.659,1.592
			c1.168,0,2.521-0.575,2.657-2.962L154.062,180.812z"/>
		<path fill="#585A5E" d="M158.665,176.614v-2.573h1.49v2.573h1.828v1.05h-1.828v5.467c0,0.627-0.052,1.186,0.896,1.186
			c0.322,0,0.644-0.068,0.932-0.152v1.049c-0.475,0.203-1.033,0.339-1.558,0.339c-1.777,0-1.761-1.219-1.761-2.115v-5.772h-1.54
			v-1.05H158.665z"/>
		<path fill="#585A5E" d="M163.505,173.363h1.489v1.559h-1.489V173.363z M164.994,176.614v8.599h-1.489v-8.599H164.994z"/>
		<path fill="#585A5E" d="M172.595,176.614h1.608l-3.183,8.599h-1.727l-3.183-8.599h1.608l2.438,7.109L172.595,176.614z"/>
		<path fill="#585A5E" d="M182.97,182.725c-0.22,1.219-1.117,2.827-3.758,2.827c-4.266,0-4.351-3.825-4.351-4.604
			c0-1.186,0.22-4.673,4.198-4.673c3.437,0,3.894,2.691,3.979,4.553c0,0.137,0.017,0.289,0.017,0.425h-6.619
			c0,1.472,0.762,3.249,2.726,3.249c1.438,0,2.2-0.828,2.387-1.777H182.97z M181.48,180.203c-0.051-1.152-0.44-2.877-2.387-2.877
			c-2.201,0-2.658,1.793-2.658,2.877H181.48z"/>
		<path fill="#585A5E" d="M193.987,173.363c2.421,0,4.012,0.948,4.012,3.403c0,2.218-1.101,3.724-4.164,3.724h-3.081v4.723h-1.591
			v-11.85H193.987z M190.754,179.153h2.912c1.896,0,2.708-0.796,2.708-2.354c0-1.472-0.88-2.099-2.708-2.099h-2.912V179.153z"/>
		<path fill="#585A5E" d="M204.007,177.326c-1.997,0.084-3.165,0.845-3.301,3.012c-0.017,0.152-0.017,0.305-0.017,0.457v0.458v3.96
			h-1.49v-8.599h1.49v1.659h0.033c0.406-1.27,1.643-1.93,2.844-1.98l0.44-0.018V177.326z"/>
		<path fill="#585A5E" d="M208.763,176.275c3.132,0,4.231,2.354,4.231,4.639s-1.1,4.638-4.231,4.638s-4.232-2.353-4.232-4.638
			S205.631,176.275,208.763,176.275z M208.763,184.502c0.66,0,2.657-0.152,2.657-3.605s-1.997-3.605-2.657-3.605
			s-2.657,0.152-2.657,3.605S208.103,184.502,208.763,184.502z"/>
		<path fill="#585A5E" d="M216.531,186.178c0.271,0.999,1.354,1.236,2.268,1.236c2.337,0,2.37-2.217,2.37-2.675v-0.931
			c-0.795,1.286-1.507,1.743-2.776,1.743c-2.031,0-3.876-1.388-3.876-4.706c0-0.795,0-4.57,3.724-4.57
			c1.422,0,2.438,0.524,2.979,1.523h0.051v-1.185h1.388v8.379c0,3.302-3.029,3.488-3.859,3.488c-0.829,0-3.148,0.032-3.689-2.304
			H216.531z M221.271,180.812c0-2.168-0.914-3.486-2.675-3.486c-2.505,0-2.505,2.774-2.505,3.469c0,3.471,1.946,3.707,2.641,3.707
			C219.273,184.502,221.271,184.13,221.271,180.812z"/>
		<path fill="#585A5E" d="M229.901,177.326c-1.997,0.084-3.165,0.845-3.3,3.012c-0.018,0.152-0.018,0.305-0.018,0.457v0.458v3.96
			h-1.489v-8.599h1.489v1.659h0.034c0.406-1.27,1.642-1.93,2.844-1.98l0.439-0.018V177.326z"/>
		<path fill="#585A5E" d="M230.459,179.153c0-1.151,0.61-2.878,3.657-2.878c1.388,0,3.47,0.39,3.419,2.896l-0.084,3.977
			c0,0.661-0.018,1.067,0.896,1.017v1.049c-0.203,0.052-0.355,0.068-0.677,0.068c-0.847,0-1.354-0.136-1.54-1.253
			c-0.593,1.084-1.778,1.523-2.945,1.523c-1.812,0-3.03-0.778-3.03-2.59c0-1.489,0.762-2.403,4.215-2.726
			c1.27-0.084,1.676-0.067,1.676-1.186c0-0.406-0.034-1.725-1.93-1.725c-0.542,0-2.285,0.032-2.234,1.827H230.459z M236.046,180.812
			c-0.44,0.355-0.948,0.288-1.896,0.423c-1.319,0.22-2.454,0.288-2.454,1.675c0,1.017,0.694,1.592,1.659,1.592
			c1.168,0,2.521-0.575,2.657-2.962L236.046,180.812z"/>
		<path fill="#585A5E" d="M241.597,176.614v1.168l-0.018,0.103c0.458-1,1.592-1.609,2.658-1.609c1.489,0,2.234,0.948,2.454,1.846
			c0.305-0.66,1.202-1.846,2.979-1.846c2.642,0,2.76,2.438,2.76,3.386v5.552h-1.489v-5.45c0-0.897-0.118-2.437-1.659-2.437
			c-1.016,0-2.268,0.541-2.268,2.758v5.129h-1.49v-5.434c0-1.252-0.305-2.453-1.658-2.453c-1.236,0-2.269,1.065-2.269,2.758v5.129
			h-1.489v-8.599H241.597z"/>
		<path fill="#585A5E" d="M256.354,176.614v1.168l-0.017,0.103c0.457-1,1.591-1.609,2.657-1.609c1.489,0,2.235,0.948,2.454,1.846
			c0.306-0.66,1.202-1.846,2.979-1.846c2.641,0,2.76,2.438,2.76,3.386v5.552h-1.49v-5.45c0-0.897-0.118-2.437-1.658-2.437
			c-1.017,0-2.269,0.541-2.269,2.758v5.129h-1.49v-5.434c0-1.252-0.304-2.453-1.658-2.453c-1.235,0-2.269,1.065-2.269,2.758v5.129
			h-1.489v-8.599H256.354z"/>
		<path fill="#585A5E" d="M269.589,173.363h1.49v1.559h-1.49V173.363z M271.079,176.614v8.599h-1.49v-8.599H271.079z"/>
		<path fill="#585A5E" d="M274.973,176.614v1.202c0.592-0.864,1.59-1.541,2.944-1.541c2.251,0,2.827,1.507,2.827,3.217v5.721h-1.49
			v-5.264c0-0.914,0.034-2.623-1.811-2.623c-0.812,0-2.471,0.354-2.471,3.198v4.688h-1.49v-8.599H274.973z"/>
		<path fill="#585A5E" d="M284.771,186.178c0.271,0.999,1.354,1.236,2.269,1.236c2.336,0,2.37-2.217,2.37-2.675v-0.931
			c-0.796,1.286-1.508,1.743-2.776,1.743c-2.031,0-3.877-1.388-3.877-4.706c0-0.795,0-4.57,3.725-4.57
			c1.421,0,2.438,0.524,2.979,1.523h0.051v-1.185h1.389v8.379c0,3.302-3.03,3.488-3.859,3.488c-0.83,0-3.149,0.032-3.69-2.304
			H284.771z M289.511,180.812c0-2.168-0.913-3.486-2.674-3.486c-2.506,0-2.506,2.774-2.506,3.469c0,3.471,1.947,3.707,2.641,3.707
			C287.514,184.502,289.511,184.13,289.511,180.812z"/>
		<path fill="#585A5E" d="M305.115,185.213h-7.616v-11.85h1.591v10.512h6.025V185.213z"/>
		<path fill="#585A5E" d="M305.943,179.153c0-1.151,0.609-2.878,3.656-2.878c1.389,0,3.471,0.39,3.42,2.896l-0.085,3.977
			c0,0.661-0.017,1.067,0.897,1.017v1.049c-0.204,0.052-0.355,0.068-0.677,0.068c-0.847,0-1.354-0.136-1.541-1.253
			c-0.592,1.084-1.777,1.523-2.945,1.523c-1.812,0-3.03-0.778-3.03-2.59c0-1.489,0.762-2.403,4.215-2.726
			c1.27-0.084,1.676-0.067,1.676-1.186c0-0.406-0.034-1.725-1.93-1.725c-0.541,0-2.285,0.032-2.234,1.827H305.943z M311.529,180.812
			c-0.44,0.355-0.947,0.288-1.896,0.423c-1.32,0.22-2.454,0.288-2.454,1.675c0,1.017,0.693,1.592,1.658,1.592
			c1.168,0,2.522-0.575,2.657-2.962L311.529,180.812z"/>
		<path fill="#585A5E" d="M317.08,176.614v1.202c0.593-0.864,1.591-1.541,2.945-1.541c2.252,0,2.828,1.507,2.828,3.217v5.721h-1.491
			v-5.264c0-0.914,0.034-2.623-1.811-2.623c-0.812,0-2.472,0.354-2.472,3.198v4.688h-1.489v-8.599H317.08z"/>
		<path fill="#585A5E" d="M326.88,186.178c0.271,0.999,1.354,1.236,2.269,1.236c2.336,0,2.37-2.217,2.37-2.675v-0.931
			c-0.796,1.286-1.508,1.743-2.776,1.743c-2.031,0-3.877-1.388-3.877-4.706c0-0.795,0-4.57,3.725-4.57
			c1.421,0,2.438,0.524,2.979,1.523h0.051v-1.185h1.389v8.379c0,3.302-3.03,3.488-3.859,3.488c-0.83,0-3.149,0.032-3.69-2.304
			H326.88z M331.619,180.812c0-2.168-0.913-3.486-2.674-3.486c-2.506,0-2.506,2.774-2.506,3.469c0,3.471,1.947,3.707,2.641,3.707
			C329.622,184.502,331.619,184.13,331.619,180.812z"/>
		<path fill="#585A5E" d="M341.216,185.213v-1.218h-0.034c-0.862,1.489-2.606,1.557-2.91,1.557c-2.54,0-2.828-1.946-2.828-3.233
			v-5.704h1.49v5.265c0,2.166,0.745,2.623,1.811,2.623c2.506,0,2.472-2.59,2.472-3.199v-4.688h1.49v8.599H341.216z"/>
		<path fill="#585A5E" d="M344.854,179.153c0-1.151,0.609-2.878,3.657-2.878c1.387,0,3.47,0.39,3.419,2.896l-0.085,3.977
			c0,0.661-0.018,1.067,0.897,1.017v1.049c-0.203,0.052-0.355,0.068-0.678,0.068c-0.846,0-1.354-0.136-1.54-1.253
			c-0.593,1.084-1.778,1.523-2.946,1.523c-1.811,0-3.029-0.778-3.029-2.59c0-1.489,0.762-2.403,4.215-2.726
			c1.271-0.084,1.677-0.067,1.677-1.186c0-0.406-0.034-1.725-1.93-1.725c-0.543,0-2.286,0.032-2.235,1.827H344.854z M350.44,180.812
			c-0.44,0.355-0.948,0.288-1.897,0.423c-1.319,0.22-2.454,0.288-2.454,1.675c0,1.017,0.695,1.592,1.659,1.592
			c1.168,0,2.521-0.575,2.658-2.962L350.44,180.812z"/>
		<path fill="#585A5E" d="M356.092,186.178c0.271,0.999,1.354,1.236,2.269,1.236c2.337,0,2.369-2.217,2.369-2.675v-0.931
			c-0.794,1.286-1.506,1.743-2.775,1.743c-2.031,0-3.876-1.388-3.876-4.706c0-0.795,0-4.57,3.723-4.57
			c1.423,0,2.438,0.524,2.98,1.523h0.051v-1.185h1.389v8.379c0,3.302-3.031,3.488-3.86,3.488s-3.148,0.032-3.69-2.304H356.092z
			 M360.832,180.812c0-2.168-0.914-3.486-2.675-3.486c-2.505,0-2.505,2.774-2.505,3.469c0,3.471,1.945,3.707,2.641,3.707
			C358.834,184.502,360.832,184.13,360.832,180.812z"/>
		<path fill="#585A5E" d="M372.273,182.725c-0.22,1.219-1.117,2.827-3.758,2.827c-4.266,0-4.351-3.825-4.351-4.604
			c0-1.186,0.22-4.673,4.198-4.673c3.437,0,3.894,2.691,3.978,4.553c0,0.137,0.018,0.289,0.018,0.425h-6.619
			c0,1.472,0.762,3.249,2.726,3.249c1.438,0,2.2-0.828,2.387-1.777H372.273z M370.783,180.203c-0.051-1.152-0.439-2.877-2.386-2.877
			c-2.201,0-2.658,1.793-2.658,2.877H370.783z"/>
	</g>
	<g>
		<g>
			<g>
				<path fill="#464646" d="M114.601,156.969H86.778V97.753h26.318c14.945,0,21.337,6.391,21.337,16.072
					c0,6.674-4.512,11.373-10.903,12.407c7.144,1.316,12.689,6.016,12.689,14.476C136.22,150.953,128.418,156.969,114.601,156.969z
					 M98.246,122.379h14.099c7.05,0,10.058-3.102,10.058-7.52s-3.008-7.613-10.058-7.613H98.246V122.379z M98.246,131.309v16.167
					h15.039c7.331,0,10.903-3.102,10.903-7.99c0-4.981-3.572-8.177-10.903-8.177H98.246z"/>
				<path fill="#464646" d="M178.35,146.911c0,2.162,1.128,3.196,2.914,3.196c1.127,0,2.256-0.282,3.478-0.846v6.015
					c-1.786,1.411-4.042,2.633-7.802,2.633c-4.699,0-8.271-3.008-9.117-7.99c-2.35,4.888-7.613,8.085-14.477,8.085
					c-7.896,0-13.159-4.231-13.159-11.374c0-7.896,6.204-11.186,15.792-12.972l11.373-2.162v-1.222c0-4.605-2.443-7.426-7.238-7.426
					c-4.699,0-7.237,2.82-8.177,6.861l-10.246-0.939c1.41-8.459,7.896-14.381,18.894-14.381c10.715,0,17.766,5.075,17.766,15.979
					V146.911z M167.352,137.606l-7.801,1.598c-5.171,1.033-8.365,2.35-8.365,6.203c0,2.914,2.066,5.076,5.732,5.076
					c5.922,0,10.434-4.418,10.434-11.468V137.606z"/>
				<path fill="#464646" d="M270.749,143.151c-2.067,9.399-9.398,14.946-20.021,14.946c-12.784,0-21.995-8.179-21.995-21.243
					c0-13.065,9.306-22.465,21.712-22.465c13.536,0,20.492,9.399,20.492,20.679v3.571h-31.113
					c0.376,6.768,5.17,10.903,11.279,10.903c5.547,0,8.93-2.443,10.527-7.331L270.749,143.151z M259.939,132.718
					c-0.188-5.357-3.289-10.057-9.588-10.057c-6.203,0-9.682,4.512-10.339,10.057H259.939z"/>
				<path fill="#464646" d="M306.113,126.608c-2.162-1.222-4.042-1.785-6.768-1.785c-5.828,0-9.775,4.135-9.775,11.654v20.491
					h-11.279v-41.451h11.279v7.896c1.504-4.7,5.827-9.023,11.562-9.023c2.537,0,4.605,0.658,5.827,1.691L306.113,126.608z"/>
				<path fill="#464646" d="M311.707,97.753h11.562v10.997h-11.562V97.753z M323.175,115.518v41.451h-11.279v-41.451H323.175z"/>
				<path fill="#464646" d="M343.741,156.969h-11.279v-41.451h11.279v6.768c2.067-4.7,7.331-7.896,13.536-7.896
					c11.091,0,15.133,7.52,15.133,16.73v25.849h-11.279v-23.593c0-6.392-2.539-10.057-8.084-10.057
					c-5.734,0-9.306,4.512-9.306,11.467V156.969z"/>
				<path fill="#464646" d="M417.238,146.911c0,2.162,1.128,3.196,2.914,3.196c1.128,0,2.256-0.282,3.478-0.846v6.015
					c-1.786,1.411-4.042,2.633-7.802,2.633c-4.699,0-8.271-3.008-9.117-7.99c-2.35,4.888-7.613,8.085-14.475,8.085
					c-7.896,0-13.159-4.231-13.159-11.374c0-7.896,6.203-11.186,15.791-12.972l11.373-2.162v-1.222c0-4.605-2.444-7.426-7.237-7.426
					c-4.7,0-7.238,2.82-8.178,6.861l-10.245-0.939c1.409-8.459,7.896-14.381,18.893-14.381c10.716,0,17.765,5.075,17.765,15.979
					V146.911z M406.241,137.606l-7.802,1.598c-5.17,1.033-8.365,2.35-8.365,6.203c0,2.914,2.068,5.076,5.733,5.076
					c5.922,0,10.434-4.418,10.434-11.468V137.606z"/>
			</g>
			<g>
				<polygon fill="#464646" points="189.652,113.148 189.652,96.051 203.969,96.051 203.969,118.624 				"/>
				<polygon fill="#464646" points="189.652,118.502 199.451,122.249 189.652,125.996 				"/>
				<polygon fill="#464646" points="203.969,125.874 203.969,134.155 197.009,156.969 189.652,156.969 189.652,131.349 				"/>
			</g>
			<g>
				<polygon fill="#464646" points="223.246,113.148 223.246,96.051 208.93,96.051 208.93,118.624 				"/>
				<polygon fill="#464646" points="223.246,118.502 213.447,122.249 223.246,125.996 				"/>
				<polygon fill="#464646" points="208.93,125.874 208.93,134.155 215.89,156.969 223.246,156.969 223.246,131.349 				"/>
			</g>
		</g>
	</g>
</g>
</svg>
