<?xml version="1.0" encoding="utf-8"?>
<!-- Generator: Adobe Illustrator 16.0.4, SVG Export Plug-In . SVG Version: 6.00 Build 0)  -->
<!DOCTYPE svg PUBLIC "-//W3C//DTD SVG 1.0//EN" "http://www.w3.org/TR/2001/REC-SVG-20010904/DTD/svg10.dtd">
<svg version="1.0" id="Layer_1" xmlns="http://www.w3.org/2000/svg" xmlns:xlink="http://www.w3.org/1999/xlink" x="0px" y="0px"
	 width="792px" height="612px" viewBox="0 0 792 612" enable-background="new 0 0 792 612" xml:space="preserve">
<g>
	<g>
		<g>
			<g>
				<path fill="#464646" d="M123.147,329.012H95.324v-59.217h26.319c14.945,0,21.337,6.392,21.337,16.073
					c0,6.674-4.512,11.373-10.903,12.407c7.144,1.316,12.689,6.016,12.689,14.476C144.766,322.996,136.964,329.012,123.147,329.012z
					 M106.792,294.422h14.099c7.05,0,10.058-3.102,10.058-7.52s-3.008-7.613-10.058-7.613h-14.099V294.422z M106.792,303.352v16.167
					h15.039c7.332,0,10.904-3.102,10.904-7.99c0-4.981-3.572-8.177-10.904-8.177H106.792z"/>
				<path fill="#464646" d="M186.896,318.954c0,2.162,1.128,3.196,2.914,3.196c1.127,0,2.256-0.282,3.478-0.847v6.016
					c-1.786,1.41-4.042,2.633-7.802,2.633c-4.699,0-8.271-3.008-9.117-7.99c-2.35,4.888-7.614,8.084-14.476,8.084
					c-7.896,0-13.159-4.23-13.159-11.373c0-7.896,6.204-11.186,15.791-12.972l11.374-2.162v-1.222c0-4.605-2.443-7.426-7.238-7.426
					c-4.699,0-7.237,2.82-8.177,6.861l-10.246-0.939c1.41-8.459,7.896-14.381,18.893-14.381c10.716,0,17.766,5.075,17.766,15.979
					V318.954z M175.897,309.649l-7.801,1.598c-5.17,1.033-8.365,2.35-8.365,6.203c0,2.914,2.067,5.076,5.734,5.076
					c5.921,0,10.433-4.418,10.433-11.468V309.649z"/>
				<path fill="#464646" d="M279.295,315.194c-2.067,9.399-9.398,14.945-20.021,14.945c-12.783,0-21.994-8.178-21.994-21.242
					c0-13.065,9.306-22.465,21.712-22.465c13.536,0,20.492,9.399,20.492,20.679v3.571h-31.113
					c0.376,6.768,5.17,10.903,11.279,10.903c5.546,0,8.93-2.443,10.528-7.331L279.295,315.194z M268.486,304.761
					c-0.188-5.357-3.291-10.057-9.588-10.057c-6.203,0-9.682,4.512-10.339,10.057H268.486z"/>
				<path fill="#464646" d="M314.659,298.651c-2.162-1.222-4.042-1.785-6.768-1.785c-5.828,0-9.775,4.135-9.775,11.654v20.491
					h-11.279v-41.451h11.279v7.896c1.504-4.7,5.827-9.023,11.562-9.023c2.537,0,4.605,0.658,5.827,1.691L314.659,298.651z"/>
				<path fill="#464646" d="M320.253,269.795h11.562v10.998h-11.562V269.795z M331.721,287.561v41.451h-11.279v-41.451H331.721z"/>
				<path fill="#464646" d="M352.288,329.012h-11.279v-41.451h11.279v6.768c2.067-4.7,7.332-7.896,13.536-7.896
					c11.091,0,15.133,7.52,15.133,16.73v25.849h-11.279v-23.593c0-6.392-2.538-10.057-8.084-10.057
					c-5.734,0-9.305,4.512-9.305,11.467V329.012z"/>
				<path fill="#464646" d="M425.784,318.954c0,2.162,1.128,3.196,2.914,3.196c1.128,0,2.256-0.282,3.478-0.847v6.016
					c-1.786,1.41-4.042,2.633-7.802,2.633c-4.699,0-8.271-3.008-9.117-7.99c-2.35,4.888-7.613,8.084-14.475,8.084
					c-7.896,0-13.159-4.23-13.159-11.373c0-7.896,6.203-11.186,15.791-12.972l11.373-2.162v-1.222c0-4.605-2.444-7.426-7.237-7.426
					c-4.7,0-7.238,2.82-8.178,6.861l-10.245-0.939c1.409-8.459,7.896-14.381,18.893-14.381c10.716,0,17.765,5.075,17.765,15.979
					V318.954z M414.787,309.649l-7.802,1.598c-5.17,1.033-8.365,2.35-8.365,6.203c0,2.914,2.068,5.076,5.733,5.076
					c5.922,0,10.434-4.418,10.434-11.468V309.649z"/>
			</g>
			<g>
				<polygon fill="#464646" points="198.198,285.191 198.198,268.094 212.515,268.094 212.515,290.666 				"/>
				<polygon fill="#464646" points="198.198,290.544 207.997,294.291 198.198,298.039 				"/>
				<polygon fill="#464646" points="212.515,297.916 212.515,306.197 205.555,329.012 198.198,329.012 198.198,303.392 				"/>
			</g>
			<g>
				<polygon fill="#464646" points="231.792,285.191 231.792,268.094 217.476,268.094 217.476,290.666 				"/>
				<polygon fill="#464646" points="231.792,290.544 221.994,294.291 231.792,298.039 				"/>
				<polygon fill="#464646" points="217.476,297.916 217.476,306.197 224.436,329.012 231.792,329.012 231.792,303.392 				"/>
			</g>
		</g>
	</g>
	<g>
		<path fill="#41C4BF" d="M525.209,314.873c-2.007,9.457-8.885,15.285-19.012,15.285c-12.037,0-21.018-8.502-21.018-21.305
			c0-13.088,8.885-22.449,20.636-22.449c12.992,0,19.488,9.361,19.488,20.635v2.676h-34.105c0.382,9.17,6.783,15.668,14.999,15.668
			c7.643,0,12.324-3.822,14.044-11.178L525.209,314.873z M519.095,305.605c-0.191-7.643-4.49-14.617-13.279-14.617
			c-8.217,0-13.566,6.879-14.521,14.617H519.095z"/>
		<path fill="#41C4BF" d="M540.777,329.012h-5.827v-41.461h5.827v7.643c2.007-5.064,7.738-8.789,13.948-8.789
			c10.7,0,15.19,6.973,15.19,16.908v25.699h-5.828v-25.889c0-7.357-3.821-12.135-10.891-12.135c-6.592,0-12.42,5.16-12.42,13.186
			V329.012z"/>
		<path fill="#41C4BF" d="M583.288,291.85h-6.4v-2.867l2.483-0.477c3.821-0.766,4.586-2.58,5.445-6.592l1.242-5.924h2.962v11.561
			h12.037v4.299h-12.037v28.086c0,3.727,1.528,5.541,5.35,5.541c2.866,0,5.732-1.432,8.121-2.865v4.107
			c-2.962,2.293-5.924,3.439-10.127,3.439c-5.541,0-9.076-2.77-9.076-10.316V291.85z"/>
		<path fill="#41C4BF" d="M633.632,293.377c-2.388-1.242-3.821-1.623-6.305-1.623c-6.02,0-10.892,6.209-10.892,14.521v22.736h-5.827
			v-41.461h5.827v8.693c1.624-4.777,5.828-9.84,11.942-9.84c2.579,0,4.395,0.572,5.923,1.91L633.632,293.377z"/>
		<path fill="#41C4BF" d="M672.896,322.039c0,2.197,1.338,3.248,3.439,3.248c0.955,0,2.579-0.383,3.726-1.051v3.152
			c-1.241,1.432-2.579,2.482-5.445,2.482c-4.107,0-7.069-3.533-7.261-8.789c-2.197,4.873-8.312,9.076-15.381,9.076
			c-7.738,0-12.897-4.299-12.897-11.463c0-7.834,6.879-10.988,17.196-13.09l11.082-2.293v-2.102c0-6.305-3.726-10.223-10.222-10.223
			c-6.688,0-10.414,3.918-11.847,9.268l-4.968-0.955c1.624-7.451,7.738-12.896,16.719-12.896c10.317,0,15.858,5.445,15.858,15.666
			V322.039z M667.354,307.613l-10.127,2.197c-7.547,1.623-12.229,3.152-12.229,8.693c0,3.916,2.58,7.164,8.025,7.164
			c8.12,0,14.33-6.209,14.33-15.477V307.613z"/>
		<path fill="#41C4BF" d="M693.434,268.824v60.188h-5.827v-60.188H693.434z"/>
	</g>
</g>
<path fill="#41C4BF" d="M472.625,311.828c-0.706,7.729-5.549,13.459-14.097,13.459c-8.693,0-14.616-6.783-14.616-17.006
	s5.923-17.006,14.616-17.006c8.479,0,13.311,5.458,14.077,13.082l5.346-0.389c-0.97-9.757-7.432-17.564-19.231-17.564
	c-12.324,0-20.922,8.693-20.922,21.877s8.598,21.877,20.922,21.877c11.873,0,18.345-7.904,19.252-17.746L472.625,311.828z"/>
</svg>
