<?xml version="1.0" encoding="utf-8"?>
<!-- Generator: Adobe Illustrator 16.0.4, SVG Export Plug-In . SVG Version: 6.00 Build 0)  -->
<!DOCTYPE svg PUBLIC "-//W3C//DTD SVG 1.0//EN" "http://www.w3.org/TR/2001/REC-SVG-20010904/DTD/svg10.dtd">
<svg version="1.0" xmlns="http://www.w3.org/2000/svg" xmlns:xlink="http://www.w3.org/1999/xlink" x="0px" y="0px"
	 viewBox="0 0 512 64" enable-background="new 0 0 512 64" xml:space="preserve">
<g id="background_color">
</g>
<g id="playground">
	<rect fill="#20B6AF" width="512" height="64"/>
	<g>
		<g>
			<g>
				<line fill="none" stroke="#FFFFFF" stroke-miterlimit="10" x1="331.246" y1="30.592" x2="294.564" y2="30.592"/>
				<g>
					<polygon fill="#FFFFFF" points="327.932,26.502 327.25,27.234 330.861,30.591 327.25,33.948 327.932,34.681 332.33,30.591 
											"/>
				</g>
			</g>
		</g>
		<g>
			<rect x="210.564" y="20.702" fill="none" stroke="#FFFFFF" stroke-miterlimit="10" width="84" height="19.779"/>
			<g>
				<g>
					<path fill="#FFFFFF" d="M232.457,29.691c0.28-0.456,0.613-0.799,1.001-1.031c0.388-0.231,0.744-0.347,1.069-0.347
						c0.456,0,0.866,0.197,1.23,0.591s0.547,0.991,0.547,1.792c0,0.631-0.121,1.195-0.364,1.692
						c-0.242,0.497-0.565,0.889-0.969,1.177s-0.903,0.432-1.499,0.432c-0.169,0-0.43-0.018-0.781-0.054
						c-0.052-0.006-0.13-0.015-0.234-0.024v2.119h-0.908v-7.573h0.908V29.691z M232.457,30.772v2.342
						c0.329,0.084,0.632,0.127,0.908,0.127c0.55,0,1.013-0.216,1.39-0.648c0.375-0.432,0.563-1.022,0.563-1.772
						c0-0.544-0.103-0.953-0.308-1.227s-0.438-0.411-0.698-0.411c-0.283,0-0.595,0.144-0.935,0.43
						C233.037,29.9,232.73,30.287,232.457,30.772z"/>
					<path fill="#FFFFFF" d="M238.282,33.919v-5.454h0.908v1.191c0.283-0.449,0.607-0.785,0.975-1.008
						c0.365-0.223,0.773-0.334,1.223-0.334c0.329,0,0.657,0.05,0.986,0.151v1.968H241.5v-1.245
						c-0.153-0.026-0.273-0.039-0.361-0.039c-0.339,0-0.671,0.133-0.996,0.4s-0.643,0.667-0.952,1.201v3.169H238.282z"/>
					<path fill="#FFFFFF" d="M246.263,34.071c-0.78,0-1.404-0.272-1.873-0.818c-0.468-0.545-0.702-1.233-0.702-2.063
						s0.234-1.517,0.702-2.061c0.469-0.543,1.093-0.815,1.873-0.815c0.777,0,1.4,0.272,1.869,0.815
						c0.468,0.543,0.702,1.23,0.702,2.061s-0.234,1.518-0.702,2.063C247.663,33.798,247.04,34.071,246.263,34.071z M246.263,33.314
						c0.484,0,0.87-0.189,1.156-0.566s0.429-0.897,0.429-1.558c0-0.658-0.143-1.175-0.429-1.553s-0.672-0.566-1.156-0.566
						c-0.487,0-0.874,0.189-1.16,0.566s-0.429,0.895-0.429,1.553c0,0.661,0.143,1.18,0.429,1.558S245.775,33.314,246.263,33.314z"/>
					<path fill="#FFFFFF" d="M254.81,33.763c-0.608,0.205-1.188,0.308-1.738,0.308c-0.547,0-1.032-0.126-1.458-0.378
						c-0.424-0.252-0.756-0.594-0.993-1.025s-0.356-0.922-0.356-1.472c0-0.827,0.27-1.514,0.809-2.061
						c0.538-0.547,1.188-0.82,1.95-0.82c0.563,0,1.159,0.106,1.787,0.317v0.874c-0.635-0.29-1.203-0.435-1.704-0.435
						c-0.332,0-0.645,0.082-0.938,0.247s-0.52,0.421-0.679,0.769s-0.239,0.707-0.239,1.074c0,0.492,0.154,0.96,0.461,1.406
						c0.309,0.446,0.791,0.669,1.448,0.669c0.198,0,0.394-0.014,0.586-0.042s0.547-0.129,1.064-0.305V33.763z"/>
					<path fill="#FFFFFF" d="M260.957,33.557c-0.726,0.343-1.413,0.514-2.061,0.514c-0.491,0-0.931-0.122-1.318-0.366
						c-0.388-0.244-0.697-0.593-0.93-1.046c-0.233-0.454-0.35-0.939-0.35-1.457c0-0.498,0.11-0.976,0.332-1.434
						c0.222-0.459,0.53-0.816,0.928-1.071c0.397-0.255,0.84-0.383,1.328-0.383c0.647,0,1.168,0.231,1.561,0.692
						c0.392,0.461,0.588,1.173,0.588,2.135v0.195h-3.76c0,0.378,0.079,0.725,0.236,1.038c0.158,0.313,0.366,0.548,0.623,0.705
						s0.55,0.235,0.879,0.235c0.586,0,1.233-0.196,1.943-0.587V33.557z M257.329,30.658h2.72v-0.131
						c0-0.445-0.109-0.798-0.327-1.061c-0.218-0.263-0.51-0.395-0.874-0.395c-0.368,0-0.686,0.134-0.955,0.401
						C257.625,29.74,257.437,30.135,257.329,30.658z"/>
					<path fill="#FFFFFF" d="M262.686,33.631v-0.962c0.364,0.238,0.75,0.404,1.157,0.5s0.752,0.144,1.035,0.144
						c0.459,0,0.789-0.074,0.991-0.222s0.303-0.333,0.303-0.554c0-0.146-0.047-0.272-0.142-0.376s-0.329-0.233-0.703-0.386
						l-0.312-0.127l-0.63-0.249c-0.677-0.264-1.104-0.508-1.279-0.732c-0.179-0.221-0.269-0.492-0.269-0.811
						c0-0.449,0.174-0.819,0.521-1.108c0.348-0.29,0.91-0.435,1.689-0.435c0.583,0,1.136,0.084,1.657,0.254v0.825
						c-0.6-0.215-1.164-0.322-1.692-0.322c-0.385,0-0.686,0.067-0.902,0.203s-0.325,0.304-0.325,0.505
						c0,0.195,0.095,0.352,0.283,0.469c0.186,0.117,0.488,0.252,0.909,0.405l0.615,0.225c0.564,0.205,0.96,0.428,1.187,0.669
						c0.228,0.241,0.341,0.542,0.341,0.903c0,0.472-0.182,0.86-0.545,1.165c-0.362,0.304-0.942,0.457-1.74,0.457
						C264.138,34.071,263.421,33.924,262.686,33.631z"/>
					<path fill="#FFFFFF" d="M268.887,33.631v-0.962c0.364,0.238,0.75,0.404,1.157,0.5s0.752,0.144,1.035,0.144
						c0.459,0,0.789-0.074,0.991-0.222s0.303-0.333,0.303-0.554c0-0.146-0.047-0.272-0.142-0.376s-0.329-0.233-0.703-0.386
						l-0.312-0.127l-0.63-0.249c-0.677-0.264-1.104-0.508-1.279-0.732c-0.179-0.221-0.269-0.492-0.269-0.811
						c0-0.449,0.174-0.819,0.521-1.108c0.348-0.29,0.91-0.435,1.689-0.435c0.583,0,1.136,0.084,1.657,0.254v0.825
						c-0.6-0.215-1.164-0.322-1.692-0.322c-0.385,0-0.686,0.067-0.902,0.203s-0.325,0.304-0.325,0.505
						c0,0.195,0.095,0.352,0.283,0.469c0.186,0.117,0.488,0.252,0.909,0.405l0.615,0.225c0.564,0.205,0.96,0.428,1.187,0.669
						c0.228,0.241,0.341,0.542,0.341,0.903c0,0.472-0.182,0.86-0.545,1.165c-0.362,0.304-0.942,0.457-1.74,0.457
						C270.339,34.071,269.622,33.924,268.887,33.631z"/>
				</g>
			</g>
		</g>
		<g>
			<g>
				<g>
					<g>
						<path fill="none" stroke="#FFFFFF" stroke-width="1.24" stroke-miterlimit="10" d="M170.896,34.062
							c3.052,0,4.818-2.547,4.818-4.295c0-1.75-0.792-2.646-1.77-2.646s-1.771,0.927-1.771,2.646c0,1.718,1.773,4.295,4.824,4.295"
							/>
					</g>
					<g>
						<path fill="none" stroke="#FFFFFF" stroke-width="1.24" stroke-miterlimit="10" d="M176.998,34.062
							c3.052,0,4.818-2.547,4.818-4.295c0-1.75-0.792-2.646-1.77-2.646c-0.977,0-1.77,0.927-1.77,2.646
							c0,1.718,1.772,4.295,4.824,4.295"/>
					</g>
					<g>
						<path fill="none" stroke="#FFFFFF" stroke-width="1.24" stroke-miterlimit="10" d="M183.102,34.062
							c3.051,0,4.818-2.547,4.818-4.295c0-1.75-0.793-2.646-1.77-2.646c-0.978,0-1.77,0.927-1.77,2.646
							c0,1.718,1.771,4.295,4.823,4.295"/>
					</g>
					<g>
						<path fill="none" stroke="#FFFFFF" stroke-width="1.24" stroke-miterlimit="10" d="M189.204,34.062
							c3.052,0,4.818-2.547,4.818-4.295c0-1.75-0.792-2.646-1.769-2.646c-0.979,0-1.771,0.927-1.771,2.646
							c0,1.718,1.772,4.295,4.823,4.295"/>
					</g>
					<g>
						<path fill="none" stroke="#FFFFFF" stroke-width="1.24" stroke-miterlimit="10" d="M195.307,34.062
							c3.053,0,4.818-2.547,4.818-4.295c0-1.75-0.791-2.646-1.769-2.646s-1.771,0.927-1.771,2.646c0,1.718,1.773,4.295,4.824,4.295"
							/>
					</g>
					<g>
						<polygon fill="#FFFFFF" points="171.041,31.09 170.178,30.591 171.041,30.093 						"/>
					</g>
				</g>
			</g>
			<g>
				<g>
					<line fill="none" stroke="#FFFFFF" stroke-miterlimit="10" x1="197.287" y1="30.591" x2="208.285" y2="30.591"/>
					<g>
						<polygon fill="#FFFFFF" points="204.971,34.681 204.289,33.949 207.9,30.592 204.289,27.235 204.971,26.502 209.369,30.592 
													"/>
					</g>
				</g>
			</g>
		</g>
		<g>
			<rect x="86.178" y="20.702" fill="none" stroke="#FFFFFF" stroke-miterlimit="10" width="84" height="19.779"/>
			<g>
				<g>
					<path fill="#FFFFFF" d="M110.395,33.631v-0.962c0.364,0.238,0.75,0.404,1.157,0.5s0.752,0.144,1.035,0.144
						c0.459,0,0.789-0.074,0.991-0.222s0.303-0.333,0.303-0.554c0-0.146-0.047-0.272-0.142-0.376s-0.329-0.233-0.703-0.386
						l-0.312-0.127l-0.63-0.249c-0.677-0.264-1.104-0.508-1.279-0.732c-0.179-0.221-0.269-0.492-0.269-0.811
						c0-0.449,0.174-0.819,0.521-1.108c0.348-0.29,0.91-0.435,1.689-0.435c0.583,0,1.136,0.084,1.657,0.254v0.825
						c-0.6-0.215-1.164-0.322-1.692-0.322c-0.385,0-0.686,0.067-0.902,0.203s-0.325,0.304-0.325,0.505
						c0,0.195,0.095,0.352,0.283,0.469c0.186,0.117,0.488,0.252,0.909,0.405l0.615,0.225c0.564,0.205,0.96,0.428,1.187,0.669
						c0.228,0.241,0.341,0.542,0.341,0.903c0,0.472-0.182,0.86-0.545,1.165c-0.362,0.304-0.942,0.457-1.74,0.457
						C111.847,34.071,111.13,33.924,110.395,33.631z"/>
					<path fill="#FFFFFF" d="M121.093,33.7c-0.427,0.179-0.735,0.286-0.928,0.32s-0.378,0.051-0.557,0.051
						c-0.381,0-0.729-0.073-1.045-0.22s-0.554-0.363-0.716-0.649c-0.16-0.287-0.241-0.729-0.241-1.328v-2.197h-1.362v-0.757h1.362
						v-2.197h0.908v2.197h2.427v0.757h-2.427v2.183c0,0.439,0.052,0.75,0.156,0.93s0.243,0.313,0.417,0.398
						c0.175,0.084,0.381,0.127,0.618,0.127c0.439,0,0.901-0.138,1.387-0.415V33.7z"/>
					<path fill="#FFFFFF" d="M123.197,33.919v-5.454h0.908v1.191c0.283-0.449,0.607-0.785,0.975-1.008
						c0.365-0.223,0.773-0.334,1.223-0.334c0.329,0,0.657,0.05,0.986,0.151v1.968h-0.874v-1.245
						c-0.153-0.026-0.273-0.039-0.361-0.039c-0.339,0-0.671,0.133-0.996,0.4s-0.643,0.667-0.952,1.201v3.169H123.197z"/>
					<path fill="#FFFFFF" d="M133.47,33.557c-0.726,0.343-1.413,0.514-2.061,0.514c-0.491,0-0.931-0.122-1.318-0.366
						c-0.388-0.244-0.697-0.593-0.93-1.046c-0.233-0.454-0.35-0.939-0.35-1.457c0-0.498,0.11-0.976,0.332-1.434
						c0.222-0.459,0.53-0.816,0.928-1.071c0.397-0.255,0.84-0.383,1.328-0.383c0.647,0,1.168,0.231,1.561,0.692
						c0.392,0.461,0.588,1.173,0.588,2.135v0.195h-3.76c0,0.378,0.079,0.725,0.236,1.038c0.158,0.313,0.366,0.548,0.623,0.705
						s0.55,0.235,0.879,0.235c0.586,0,1.233-0.196,1.943-0.587V33.557z M129.842,30.658h2.72v-0.131
						c0-0.445-0.109-0.798-0.327-1.061c-0.218-0.263-0.51-0.395-0.874-0.395c-0.368,0-0.686,0.134-0.955,0.401
						C130.138,29.74,129.949,30.135,129.842,30.658z"/>
					<path fill="#FFFFFF" d="M138.72,32.699c-0.276,0.454-0.609,0.796-0.999,1.026c-0.389,0.23-0.746,0.345-1.071,0.345
						c-0.456,0-0.866-0.197-1.229-0.591c-0.363-0.394-0.545-0.991-0.545-1.792c0-0.631,0.12-1.195,0.361-1.692
						s0.564-0.889,0.969-1.177c0.403-0.288,0.904-0.432,1.5-0.432c0.173,0,0.434,0.018,0.781,0.054
						c0.052,0.006,0.13,0.015,0.233,0.024h0.911v3.852c0,0.658,0.07,1.192,0.21,1.603h-0.947
						C138.821,33.621,138.763,33.214,138.72,32.699z M138.724,31.613v-2.342c-0.323-0.084-0.623-0.127-0.9-0.127
						c-0.561,0-1.027,0.217-1.401,0.65c-0.373,0.434-0.56,1.023-0.56,1.77c0,0.541,0.102,0.949,0.306,1.225s0.437,0.413,0.697,0.413
						c0.283,0,0.597-0.144,0.938-0.43C138.146,32.485,138.453,32.099,138.724,31.613z"/>
					<path fill="#FFFFFF" d="M140.926,33.919v-5.454h0.796v1.25c0.251-0.531,0.484-0.897,0.701-1.099
						c0.216-0.202,0.435-0.303,0.656-0.303c0.264,0,0.477,0.104,0.637,0.31c0.162,0.207,0.242,0.5,0.242,0.881v0.293
						c0.107-0.332,0.236-0.602,0.389-0.808c0.15-0.207,0.308-0.371,0.471-0.493s0.35-0.183,0.562-0.183
						c0.234,0,0.435,0.099,0.601,0.298s0.249,0.594,0.249,1.187v4.121h-0.796v-3.726c0-0.306-0.01-0.515-0.029-0.627
						s-0.059-0.198-0.117-0.256s-0.122-0.088-0.19-0.088c-0.169,0-0.351,0.129-0.544,0.388c-0.194,0.259-0.392,0.688-0.594,1.287
						v3.022h-0.757v-3.721c0-0.482-0.048-0.765-0.142-0.85c-0.096-0.084-0.18-0.127-0.255-0.127c-0.167,0-0.346,0.145-0.537,0.435
						c-0.19,0.29-0.373,0.661-0.546,1.113v3.149H140.926z"/>
				</g>
			</g>
		</g>
		<g>
			<g>
				<rect x="335.582" y="20.702" fill="none" stroke="#FFFFFF" stroke-miterlimit="10" width="90.24" height="19.779"/>
				<g>
					<g>
						<path fill="#FFFFFF" d="M347.416,33.631v-0.962c0.365,0.238,0.75,0.404,1.158,0.5c0.406,0.096,0.752,0.144,1.035,0.144
							c0.459,0,0.789-0.074,0.99-0.222c0.203-0.148,0.303-0.333,0.303-0.554c0-0.146-0.047-0.272-0.141-0.376
							c-0.096-0.104-0.33-0.233-0.703-0.386l-0.312-0.127l-0.631-0.249c-0.676-0.264-1.104-0.508-1.279-0.732
							c-0.178-0.221-0.268-0.492-0.268-0.811c0-0.449,0.174-0.819,0.52-1.108c0.348-0.29,0.91-0.435,1.689-0.435
							c0.584,0,1.137,0.084,1.658,0.254v0.825c-0.6-0.215-1.164-0.322-1.693-0.322c-0.385,0-0.686,0.067-0.902,0.203
							s-0.324,0.304-0.324,0.505c0,0.195,0.094,0.352,0.283,0.469c0.186,0.117,0.488,0.252,0.908,0.405l0.615,0.225
							c0.564,0.205,0.961,0.428,1.188,0.669s0.34,0.542,0.34,0.903c0,0.472-0.182,0.86-0.545,1.165
							c-0.361,0.304-0.941,0.457-1.74,0.457C348.869,34.071,348.152,33.924,347.416,33.631z"/>
						<path fill="#FFFFFF" d="M358.041,28.465v5.454h-0.908v-1.196c-0.293,0.449-0.617,0.786-0.977,1.011
							c-0.357,0.225-0.715,0.337-1.074,0.337c-0.318,0-0.611-0.085-0.877-0.256c-0.264-0.171-0.449-0.396-0.553-0.674
							c-0.105-0.278-0.156-0.821-0.156-1.628v-3.047h0.908v3.159c0,0.524,0.025,0.87,0.074,1.038
							c0.051,0.167,0.145,0.305,0.279,0.413s0.281,0.161,0.438,0.161c0.318,0,0.66-0.15,1.027-0.452
							c0.365-0.301,0.67-0.681,0.91-1.14v-3.179H358.041z"/>
						<path fill="#FFFFFF" d="M360.596,29.691c0.279-0.456,0.613-0.799,1-1.031c0.389-0.231,0.744-0.347,1.07-0.347
							c0.455,0,0.865,0.197,1.23,0.591c0.363,0.394,0.547,0.991,0.547,1.792c0,0.631-0.121,1.195-0.365,1.692
							c-0.242,0.497-0.564,0.889-0.969,1.177c-0.402,0.288-0.902,0.432-1.498,0.432c-0.17,0-0.43-0.018-0.781-0.054
							c-0.053-0.006-0.131-0.015-0.234-0.024h-0.908v-7.881h0.908V29.691z M360.596,30.772v2.342
							c0.328,0.084,0.631,0.127,0.908,0.127c0.549,0,1.012-0.216,1.389-0.648c0.375-0.432,0.564-1.022,0.564-1.772
							c0-0.544-0.104-0.953-0.309-1.227s-0.438-0.411-0.697-0.411c-0.283,0-0.596,0.144-0.936,0.43
							C361.176,29.9,360.869,30.287,360.596,30.772z"/>
						<path fill="#FFFFFF" d="M366.02,33.631v-0.962c0.363,0.238,0.75,0.404,1.156,0.5c0.408,0.096,0.752,0.144,1.035,0.144
							c0.459,0,0.789-0.074,0.992-0.222c0.201-0.148,0.303-0.333,0.303-0.554c0-0.146-0.047-0.272-0.143-0.376
							c-0.094-0.104-0.328-0.233-0.703-0.386l-0.312-0.127l-0.629-0.249c-0.678-0.264-1.104-0.508-1.279-0.732
							c-0.18-0.221-0.27-0.492-0.27-0.811c0-0.449,0.174-0.819,0.521-1.108s0.91-0.435,1.689-0.435c0.582,0,1.135,0.084,1.656,0.254
							v0.825c-0.6-0.215-1.164-0.322-1.691-0.322c-0.385,0-0.686,0.067-0.902,0.203s-0.326,0.304-0.326,0.505
							c0,0.195,0.096,0.352,0.283,0.469c0.186,0.117,0.488,0.252,0.91,0.405l0.615,0.225c0.564,0.205,0.959,0.428,1.186,0.669
							c0.229,0.241,0.342,0.542,0.342,0.903c0,0.472-0.182,0.86-0.545,1.165s-0.943,0.457-1.74,0.457
							C367.471,34.071,366.754,33.924,366.02,33.631z"/>
						<path fill="#FFFFFF" d="M376.746,33.763c-0.607,0.205-1.188,0.308-1.738,0.308c-0.547,0-1.031-0.126-1.457-0.378
							c-0.424-0.252-0.756-0.594-0.994-1.025c-0.236-0.431-0.355-0.922-0.355-1.472c0-0.827,0.27-1.514,0.809-2.061
							c0.537-0.547,1.188-0.82,1.949-0.82c0.564,0,1.16,0.106,1.787,0.317v0.874c-0.635-0.29-1.203-0.435-1.703-0.435
							c-0.332,0-0.645,0.082-0.938,0.247s-0.52,0.421-0.68,0.769c-0.158,0.348-0.238,0.707-0.238,1.074
							c0,0.492,0.154,0.96,0.461,1.406c0.309,0.446,0.791,0.669,1.447,0.669c0.199,0,0.395-0.014,0.586-0.042
							c0.193-0.028,0.547-0.129,1.064-0.305V33.763z"/>
						<path fill="#FFFFFF" d="M378.822,33.919v-5.454h0.908v1.191c0.283-0.449,0.607-0.785,0.975-1.008
							c0.365-0.223,0.773-0.334,1.223-0.334c0.328,0,0.656,0.05,0.986,0.151v1.968h-0.875v-1.245
							c-0.152-0.026-0.273-0.039-0.361-0.039c-0.338,0-0.67,0.133-0.996,0.4c-0.324,0.267-0.643,0.667-0.951,1.201v3.169H378.822z"
							/>
						<path fill="#FFFFFF" d="M386.088,33.919v-4.697h-1.514v-0.757h2.422v4.697h1.518v0.757H386.088z M385.941,26.495
							c0-0.204,0.068-0.356,0.209-0.457c0.139-0.101,0.27-0.151,0.395-0.151s0.258,0.05,0.398,0.151
							c0.139,0.101,0.209,0.253,0.209,0.457c0,0.201-0.07,0.352-0.209,0.452c-0.141,0.101-0.273,0.151-0.398,0.151
							s-0.256-0.05-0.395-0.151C386.01,26.847,385.941,26.696,385.941,26.495z"/>
						<path fill="#FFFFFF" d="M391.6,29.691c0.281-0.456,0.613-0.799,1.002-1.031c0.387-0.231,0.744-0.347,1.068-0.347
							c0.457,0,0.867,0.197,1.23,0.591c0.365,0.394,0.547,0.991,0.547,1.792c0,0.631-0.121,1.195-0.363,1.692
							s-0.566,0.889-0.969,1.177c-0.404,0.288-0.904,0.432-1.5,0.432c-0.168,0-0.43-0.018-0.781-0.054
							c-0.051-0.006-0.129-0.015-0.234-0.024h-0.908v-7.881h0.908V29.691z M391.6,30.772v2.342c0.33,0.084,0.633,0.127,0.908,0.127
							c0.551,0,1.014-0.216,1.391-0.648c0.375-0.432,0.562-1.022,0.562-1.772c0-0.544-0.102-0.953-0.307-1.227
							s-0.438-0.411-0.699-0.411c-0.283,0-0.594,0.144-0.934,0.43C392.18,29.9,391.873,30.287,391.6,30.772z"/>
						<path fill="#FFFFFF" d="M401.496,33.557c-0.725,0.343-1.412,0.514-2.061,0.514c-0.49,0-0.93-0.122-1.318-0.366
							c-0.387-0.244-0.697-0.593-0.93-1.046c-0.232-0.454-0.35-0.939-0.35-1.457c0-0.498,0.111-0.976,0.332-1.434
							c0.223-0.459,0.531-0.816,0.928-1.071c0.398-0.255,0.84-0.383,1.328-0.383c0.648,0,1.168,0.231,1.561,0.692
							s0.588,1.173,0.588,2.135v0.195h-3.76c0,0.378,0.08,0.725,0.236,1.038c0.158,0.313,0.367,0.548,0.623,0.705
							c0.258,0.157,0.551,0.235,0.879,0.235c0.586,0,1.234-0.196,1.943-0.587V33.557z M397.869,30.658h2.719v-0.131
							c0-0.445-0.109-0.798-0.326-1.061c-0.219-0.263-0.51-0.395-0.875-0.395c-0.367,0-0.686,0.134-0.955,0.401
							C398.164,29.74,397.977,30.135,397.869,30.658z"/>
						<path fill="#FFFFFF" d="M403.625,33.919v-5.454h0.908v1.191c0.283-0.449,0.607-0.785,0.975-1.008
							c0.365-0.223,0.773-0.334,1.223-0.334c0.33,0,0.658,0.05,0.986,0.151v1.968h-0.873v-1.245
							c-0.154-0.026-0.273-0.039-0.361-0.039c-0.34,0-0.672,0.133-0.996,0.4c-0.326,0.267-0.643,0.667-0.953,1.201v3.169H403.625z"
							/>
						<path fill="#FFFFFF" d="M409.426,33.631v-0.962c0.365,0.238,0.75,0.404,1.158,0.5c0.406,0.096,0.752,0.144,1.035,0.144
							c0.459,0,0.789-0.074,0.99-0.222c0.203-0.148,0.303-0.333,0.303-0.554c0-0.146-0.047-0.272-0.141-0.376
							c-0.096-0.104-0.33-0.233-0.703-0.386l-0.312-0.127l-0.631-0.249c-0.676-0.264-1.104-0.508-1.279-0.732
							c-0.178-0.221-0.268-0.492-0.268-0.811c0-0.449,0.174-0.819,0.52-1.108c0.348-0.29,0.91-0.435,1.689-0.435
							c0.584,0,1.137,0.084,1.658,0.254v0.825c-0.6-0.215-1.164-0.322-1.693-0.322c-0.385,0-0.686,0.067-0.902,0.203
							s-0.324,0.304-0.324,0.505c0,0.195,0.094,0.352,0.283,0.469c0.186,0.117,0.488,0.252,0.908,0.405l0.615,0.225
							c0.564,0.205,0.961,0.428,1.188,0.669s0.34,0.542,0.34,0.903c0,0.472-0.182,0.86-0.545,1.165
							c-0.361,0.304-0.941,0.457-1.74,0.457C410.879,34.071,410.162,33.924,409.426,33.631z"/>
					</g>
				</g>
			</g>
			<g>
				<polyline fill="none" stroke="#FFFFFF" stroke-miterlimit="10" points="423.107,40.481 423.107,43.298 332.867,43.298 
					332.867,23.519 335.582,23.519 				"/>
			</g>
		</g>
	</g>
</g>
</svg>
